<svg width="20" height="20" viewBox="0 0 20 20" fill="none" xmlns="http://www.w3.org/2000/svg">
    <path
        d="M9.7497 19.5C4.36643 19.5 0 15.1334 0 9.75C0 4.36656 4.36643 0 9.7497 0C15.133 0 19.4994 4.36656 19.4994 9.75C19.5592 15.0736 15.133 19.5 9.7497 19.5Z"
        fill="#515151" />
    <path
        d="M3.95342 8.04559L2.92276 11.9838H1.90527L3.40352 7.18945H4.03904L3.95342 8.04559ZM4.76676 11.9838L3.72951 8.04559L3.63402 7.18945H4.27942L5.79083 11.9838H4.76676ZM4.80298 10.1958V10.996H2.63958V10.1958H4.80298Z"
        fill="white" />
    <path
        d="M6.25381 7.18945H7.10007L8.07804 10.4691L9.05273 7.18945H9.8002L8.43696 11.9838H7.71583L6.25381 7.18945ZM5.91135 7.18945H6.7181L6.84323 10.3506V11.9838H5.91135V7.18945ZM9.4314 7.18945H10.2414V11.9838H9.31286V10.3506L9.4314 7.18945Z"
        fill="white" />
    <path
        d="M13.6647 11.187V11.9838H10.8131V11.187H13.6647ZM13.6285 7.75253L11.2346 11.9838H10.5595V11.401L12.9831 7.18945H13.6285V7.75253ZM13.3025 7.18945V7.98961H10.5398V7.18945H13.3025Z"
        fill="white" />
    <path
        d="M17.2822 7.18945V11.9838H16.3503L14.8455 8.98405V11.9838H13.9301V7.18945H14.8488L16.3668 10.2222V7.18945H17.2822Z"
        fill="white" />
</svg>
