<svg width="32" height="32" viewBox="0 0 32 32" fill="none" xmlns="http://www.w3.org/2000/svg"><circle cx="16" cy="16" r="16" fill="#141029"/><path d="M7.552 16.986l-.773-3.597h-.022l-.773 3.597h1.568zM7.765 12l2.118 8h-1.68l-.37-1.692h-2.13L5.335 20h-1.68l2.117-8h1.994zm2.675 0v8h1.613v-3.384h.863c.336 0 .575.09.717.27.142.178.22.425.235.739l.045 1.535c.007.157.022.31.045.459a.862.862 0 00.156.381h1.748v-.067c-.149-.082-.246-.235-.29-.46a10.72 10.72 0 01-.068-.974l-.022-.583a8.629 8.629 0 00-.034-.493c-.045-.448-.16-.773-.348-.975-.186-.201-.481-.332-.885-.392v-.022c.456-.097.792-.314 1.009-.65.216-.344.325-.785.325-1.322 0-.695-.187-1.21-.56-1.547-.374-.343-.897-.515-1.57-.515h-2.98zm1.613 3.496v-2.308h.762c.747 0 1.12.37 1.12 1.109 0 .433-.104.743-.314.93-.209.18-.507.269-.896.269h-.672zM18.279 12h-1.614v8h1.614v-2.375l.594-.908L20.52 20h1.815l-2.42-4.571L22.088 12H20.34l-2.039 3.204h-.022V12zm6.018 0h-1.614v8h1.614v-2.375l.594-.908L26.538 20h1.815l-2.42-4.571L28.106 12h-1.748l-2.039 3.204h-.022V12z" fill="#fff"/></svg>