<svg width="32" height="32" viewBox="0 0 32 32" fill="none" xmlns="http://www.w3.org/2000/svg"><circle cx="16" cy="16" r="16" fill="#FF6A00"/><path d="M5.44 18.812v-2.409h.695c.18 0 .344.019.493.056.15.038.277.105.381.202.112.09.198.213.258.37.067.15.1.34.1.571 0 .463-.119.78-.358.953-.239.171-.553.257-.941.257h-.627zm0-3.53v-2.094h.583c.404 0 .699.078.885.235.187.157.28.426.28.807 0 .38-.104.653-.313.818-.202.156-.527.235-.975.235h-.46zM3.828 12v8H6.55c.47 0 .863-.064 1.176-.19.321-.127.58-.295.773-.505.202-.216.344-.466.426-.75.082-.284.123-.583.123-.897 0-.538-.13-.967-.392-1.288-.261-.321-.616-.512-1.064-.572v-.022c.403-.112.706-.321.907-.627.202-.314.303-.688.303-1.121 0-.38-.056-.702-.168-.964a1.549 1.549 0 00-.47-.627 1.872 1.872 0 00-.729-.336A3.839 3.839 0 006.527 12h-2.7zm9.564 4.986l-.773-3.597h-.022l-.774 3.597h1.569zM13.605 12l2.117 8h-1.68l-.37-1.692h-2.129L11.173 20h-1.68l2.117-8h1.995zm4.287 6.812v-2.409h.695c.18 0 .344.019.493.056.15.038.277.105.381.202.112.09.198.213.258.37.067.15.1.34.1.571 0 .463-.119.78-.358.953-.239.171-.553.257-.941.257h-.628zm0-3.53v-2.094h.583c.403 0 .698.078.885.235.187.157.28.426.28.807 0 .38-.104.653-.313.818-.202.156-.527.235-.975.235h-.46zM16.28 12v8h2.723c.47 0 .862-.064 1.176-.19.321-.127.58-.295.773-.505.202-.216.344-.466.426-.75.082-.284.123-.583.123-.897 0-.538-.13-.967-.392-1.288-.261-.321-.616-.512-1.064-.572v-.022c.403-.112.706-.321.907-.627.202-.314.303-.688.303-1.121 0-.38-.056-.702-.168-.964a1.548 1.548 0 00-.47-.627 1.871 1.871 0 00-.73-.336A3.838 3.838 0 0018.98 12h-2.7zm9.564 4.986l-.773-3.597h-.023l-.773 3.597h1.569zM26.057 12l2.117 8h-1.68l-.37-1.692h-2.129L23.625 20h-1.68l2.117-8h1.995z" fill="#fff"/></svg>