<svg width="40" height="40" viewBox="0 0 40 40" fill="none" xmlns="http://www.w3.org/2000/svg">
<g clip-path="url(#clip0)">
<path d="M39.3968 24.8382C36.7256 35.5525 25.8738 42.0731 15.1583 39.4012C4.44713 36.73 -2.07344 25.8776 0.599031 15.164C3.269 4.44845 14.1208 -2.07273 24.8332 0.598492C35.5481 3.26972 42.068 14.1234 39.3968 24.8382Z" fill="#F7931A"/>
<path d="M28.8156 17.151C29.2137 14.4898 27.1875 13.0592 24.4169 12.1048L25.3156 8.49985L23.1213 7.95298L22.2463 11.4629C21.6694 11.3192 21.0769 11.1836 20.4882 11.0492L21.3694 7.51611L19.1763 6.96924L18.277 10.5729C17.7995 10.4642 17.3307 10.3567 16.8757 10.2436L16.8782 10.2323L13.852 9.47671L13.2683 11.8204C13.2683 11.8204 14.8964 12.1936 14.862 12.2167C15.7508 12.4386 15.9114 13.0267 15.8845 13.4929L14.8608 17.5998C14.922 17.6154 15.0014 17.6379 15.0889 17.6729C15.0158 17.6548 14.9376 17.6348 14.857 17.6154L13.422 23.3685C13.3133 23.6385 13.0377 24.0434 12.4164 23.8897C12.4383 23.9216 10.8214 23.4916 10.8214 23.4916L9.73206 26.0034L12.5877 26.7153C13.1189 26.8484 13.6395 26.9878 14.152 27.119L13.2439 30.7653L15.4358 31.3121L16.3351 27.7047C16.9339 27.8672 17.5151 28.0172 18.0839 28.1584L17.1876 31.749L19.382 32.2959L20.2901 28.6565C24.0319 29.3646 26.8456 29.079 28.03 25.6947C28.9844 22.9697 27.9825 21.3979 26.0138 20.3729C27.4475 20.0422 28.5275 19.0991 28.8156 17.151ZM23.8019 24.1816C23.1238 26.9065 18.5357 25.4334 17.0482 25.0641L18.2532 20.2335C19.7407 20.6047 24.5107 21.3397 23.8019 24.1816ZM24.4807 17.1116C23.8619 19.5904 20.0432 18.331 18.8045 18.0223L19.897 13.6411C21.1357 13.9498 25.125 14.526 24.4807 17.1116Z" fill="white"/>
</g>
<defs>
<clipPath id="clip0">
<rect width="39.9954" height="40" fill="white"/>
</clipPath>
</defs>
</svg>
