<svg width="40" height="40" viewBox="0 0 40 40" fill="none" xmlns="http://www.w3.org/2000/svg">
<path d="M20 40C31.0457 40 40 31.0457 40 20C40 8.9543 31.0457 0 20 0C8.9543 0 0 8.9543 0 20C0 31.0457 8.9543 40 20 40Z" fill="#8DC351"/>
<path d="M26.5 13.125C25.5 10.625 23.125 10.5 20.25 11L19.25 7.5L17.125 8.125L18.125 11.5C17.625 11.625 17 11.875 16.375 12L15.375 8.5L13.25 9.125L14.25 12.625C13.75 12.75 13.375 12.875 12.875 13L10 14L10.625 16.25C10.625 16.25 12.25 15.75 12.125 15.75C13 15.5 13.375 15.875 13.625 16.375L14.75 20.375C14.75 20.375 14.875 20.375 15 20.375L14.75 20.5L16.375 26.125C16.375 26.375 16.375 26.875 15.75 27.125L14.25 27.625L14.5 30.25L17.25 29.5C17.75 29.375 18.25 29.25 18.75 29.125L19.75 32.625L21.875 32L20.875 28.5C21.5 28.375 22 28.25 22.625 28L23.625 31.5L25.75 30.875L24.75 27.375C28.25 26.125 30.5 24.5 29.875 21C29.375 18.25 27.75 17.375 25.5 17.5C26.75 16.25 27.25 15 26.5 13.125ZM25.75 21.625C26.5 24.25 21.875 25.25 20.375 25.75L19 21C20.5 20.625 24.875 18.875 25.75 21.625ZM22.75 15.25C23.5 17.625 19.625 18.5 18.375 18.875L17.125 14.625C18.375 14.25 22.125 12.75 22.75 15.25Z" fill="white"/>
</svg>
