<svg width="32" height="32" viewBox="0 0 32 32" fill="none" xmlns="http://www.w3.org/2000/svg">
    <defs>
        <linearGradient id="paint0_linear_987_11512" x1="32" y1="-3.26257e-06" x2="4.63158" y2="32"
            gradientUnits="userSpaceOnUse">
            <stop stop-color="#F7931A" />
            <stop offset="1" stop-color="#E2820F" />
        </linearGradient>
        <clipPath id="clip0_987_11512">
            <rect width="23.5789" height="23.5789" fill="white"
                transform="translate(8.45007 1.13477) rotate(18.0747)" />
        </clipPath>
    </defs>
    <path
        d="M16 32C24.8366 32 32 24.8366 32 16C32 7.16344 24.8366 0 16 0C7.16344 0 0 7.16344 0 16C0 24.8366 7.16344 32 16 32Z"
        fill="url(#paint0_linear_987_11512)" />
    <g clip-path="url(#clip0_987_11512)">
        <path
            d="M10.2115 21.862L9.64 23.6132C9.57691 23.8066 9.68261 24.0147 9.87594 24.0778L11.2769 24.535C11.3698 24.5653 11.4709 24.5575 11.558 24.5133C11.6452 24.469 11.7111 24.392 11.7414 24.2991L12.313 22.5479L13.0135 22.7765L12.4419 24.5277C12.3788 24.721 12.4845 24.9291 12.6779 24.9922L14.0788 25.4494C14.1717 25.4798 14.2728 25.4719 14.36 25.4277C14.4471 25.3834 14.5131 25.3064 14.5434 25.2135L15.1149 23.4623L15.2326 23.5007C18.0233 24.4115 20.4906 23.6154 21.3076 21.1119C21.9944 19.0076 20.959 17.397 19.3607 16.694L19.401 16.5707C20.8706 16.6752 22.2041 15.9757 22.7601 14.2721C23.4606 12.1259 22.2747 10.2972 19.816 9.49475L19.6871 9.45269L20.2586 7.70148C20.2889 7.60859 20.2811 7.50747 20.2369 7.42035C20.1926 7.33323 20.1156 7.26725 20.0227 7.23694L18.6217 6.77972C18.5288 6.7494 18.4277 6.75723 18.3406 6.80148C18.2535 6.84572 18.1875 6.92276 18.1572 7.01565L17.5856 8.76686L16.7829 8.50487L17.3544 6.75367C17.3847 6.66078 17.3769 6.55965 17.3327 6.47253C17.2884 6.38541 17.2114 6.31944 17.1185 6.28912L15.8198 5.86528C15.7269 5.83496 15.6258 5.84279 15.5387 5.88704C15.4515 5.93128 15.3856 6.00832 15.3552 6.10121L14.7837 7.85242L11.9796 6.9543C11.8867 6.92399 11.7856 6.93181 11.6984 6.97606C11.6113 7.02031 11.5453 7.09735 11.515 7.19024L11.0628 8.57579C11.0002 8.76772 11.1026 8.97633 11.296 9.03942L12.356 9.37762C12.6328 9.47002 12.8619 9.66817 12.9932 9.92883C13.1245 10.1895 13.1473 10.4915 13.0568 10.769L10.5398 18.4813C10.4488 18.7599 10.2509 18.9911 9.98957 19.1238C9.72821 19.2565 9.42482 19.28 9.14616 19.1891L8.09321 18.8625C8.00032 18.8322 7.89919 18.84 7.81207 18.8842C7.72495 18.9285 7.65898 19.0055 7.62866 19.0984L7.17144 20.4994C7.10835 20.6927 7.21404 20.9008 7.40738 20.9639L10.2115 21.862ZM16.103 10.5881L18.5113 11.3741C19.7805 11.7883 20.2982 12.7292 19.926 13.8696C19.5277 15.0898 18.4977 15.5148 16.6736 14.9195L14.8804 14.3343L16.103 10.5881V10.5881ZM14.2508 16.2634L16.8286 17.1047C18.4215 17.6245 19.0235 18.7201 18.5919 20.0426C18.1561 21.3777 17.0519 21.7878 14.9056 21.0873L12.891 20.4299L14.2504 16.2648L14.2508 16.2634Z"
            fill="white" />
    </g>
</svg>
