<svg width="20" height="20" viewBox="0 0 20 20" fill="none" xmlns="http://www.w3.org/2000/svg">
    <path
        d="M9.7497 19.5C4.36643 19.5 0 15.1334 0 9.75C0 4.36656 4.36643 0 9.7497 0C15.133 0 19.4994 4.36656 19.4994 9.75C19.5592 15.0736 15.133 19.5 9.7497 19.5Z"
        fill="#294CFF" />
    <path
        d="M5.48901 10.3876H6.44723C6.43406 10.7476 6.36162 11.0517 6.2299 11.2997C6.09819 11.5456 5.9105 11.7322 5.66683 11.8595C5.42535 11.9868 5.13339 12.0505 4.79093 12.0505C4.52531 12.0505 4.28932 12.0066 4.08297 11.9188C3.87662 11.8288 3.701 11.6971 3.55611 11.5236C3.41123 11.3502 3.30147 11.1362 3.22683 10.8815C3.15439 10.6247 3.11816 10.3294 3.11816 9.99575V9.18242C3.11816 8.84874 3.15658 8.55348 3.23341 8.29664C3.31244 8.0398 3.4244 7.82467 3.56928 7.65124C3.71636 7.47562 3.89308 7.34391 4.09943 7.2561C4.30798 7.1661 4.54287 7.12109 4.8041 7.12109C5.15314 7.12109 5.44511 7.18695 5.68 7.31866C5.91489 7.45038 6.096 7.64246 6.22332 7.89491C6.35284 8.14517 6.43077 8.4514 6.45711 8.81362H5.4956C5.48901 8.58531 5.46267 8.4064 5.41657 8.27688C5.37267 8.14517 5.30242 8.05297 5.20583 8.00028C5.10924 7.9454 4.97533 7.91796 4.8041 7.91796C4.67678 7.91796 4.56702 7.94101 4.47482 7.98711C4.38262 8.03102 4.30688 8.10236 4.24761 8.20115C4.18834 8.29993 4.14443 8.42945 4.1159 8.5897C4.08955 8.74996 4.07638 8.94533 4.07638 9.17583V9.99575C4.07638 10.2219 4.08846 10.415 4.1126 10.5753C4.13675 10.7333 4.17517 10.8629 4.22785 10.9638C4.28054 11.0648 4.35188 11.1384 4.44189 11.1845C4.53409 11.2306 4.65044 11.2536 4.79093 11.2536C4.95338 11.2536 5.08399 11.2295 5.18278 11.1812C5.28376 11.1329 5.3584 11.0462 5.40669 10.921C5.45499 10.7959 5.48243 10.6181 5.48901 10.3876Z"
        fill="white" />
    <path
        d="M10.4184 9.21534V10.0155C10.4184 10.3536 10.3767 10.6499 10.2933 10.9046C10.2121 11.157 10.0957 11.3689 9.94424 11.5401C9.79496 11.7091 9.61385 11.8365 9.40092 11.9221C9.19017 12.0077 8.95638 12.0505 8.69954 12.0505C8.4427 12.0505 8.20781 12.0077 7.99487 11.9221C7.78413 11.8365 7.60192 11.7091 7.44826 11.5401C7.29679 11.3689 7.17934 11.157 7.09592 10.9046C7.0125 10.6499 6.9708 10.3536 6.9708 10.0155V9.21534C6.9708 8.8685 7.01141 8.56556 7.09263 8.30652C7.17385 8.04529 7.2913 7.82796 7.44497 7.65453C7.59863 7.47892 7.78084 7.3472 7.99158 7.25939C8.20232 7.16939 8.43611 7.12439 8.69295 7.12439C8.9498 7.12439 9.18359 7.16939 9.39433 7.25939C9.60507 7.3472 9.78728 7.47892 9.94094 7.65453C10.0946 7.82796 10.2121 8.04529 10.2933 8.30652C10.3767 8.56556 10.4184 8.8685 10.4184 9.21534ZM9.46019 10.0155V9.20876C9.46019 8.98045 9.44372 8.78618 9.4108 8.62592C9.37787 8.46348 9.32847 8.33067 9.26262 8.22749C9.19676 8.12431 9.11663 8.04858 9.02224 8.00028C8.92784 7.95199 8.81808 7.92784 8.69295 7.92784C8.56783 7.92784 8.45697 7.95199 8.36038 8.00028C8.26598 8.04858 8.18586 8.12431 8.12 8.22749C8.05634 8.33067 8.00804 8.46348 7.97511 8.62592C7.94438 8.78618 7.92901 8.98045 7.92901 9.20876V10.0155C7.92901 10.235 7.94548 10.4227 7.97841 10.5786C8.01134 10.7344 8.06073 10.8618 8.12659 10.9606C8.19244 11.0593 8.27257 11.1329 8.36696 11.1812C8.46355 11.2273 8.57441 11.2503 8.69954 11.2503C8.82247 11.2503 8.93114 11.2273 9.02553 11.1812C9.12212 11.1329 9.20225 11.0593 9.26591 10.9606C9.32957 10.8618 9.37787 10.7344 9.4108 10.5786C9.44372 10.4227 9.46019 10.235 9.46019 10.0155Z"
        fill="white" />
    <path d="M12.1208 7.19024V11.9846H11.1626V7.19024H12.1208Z" fill="white" />
    <path
        d="M16.2961 7.19024V11.9846H15.3643L13.8594 8.98485V11.9846H12.944V7.19024H13.8627L15.3807 10.223V7.19024H16.2961Z"
        fill="white" />
</svg>
