<svg width="40" height="40" viewBox="0 0 24 24" fill="none" xmlns="http://www.w3.org/2000/svg">
    <path
        d="M12 24C18.6274 24 24 18.6274 24 12C24 5.37258 18.6274 0 12 0C5.37258 0 0 5.37258 0 12C0 18.6274 5.37258 24 12 24Z"
        fill="#FF00AF" />
    <path fill-rule="evenodd" clip-rule="evenodd"
        d="M13.662 17.59V6.41C14.8652 6.77019 15.9203 7.50841 16.671 8.51527C17.4218 9.52213 17.8281 10.7441 17.83 12C17.8282 13.2558 17.422 14.4776 16.6714 15.4845C15.9209 16.4913 14.866 17.2296 13.663 17.59H13.662ZM11.996 4.5V10.821L11.044 9.869L10.922 7.493L11.915 4.504C11.2935 4.51172 10.6753 4.59705 10.075 4.758L9.59498 6.202L8.23198 5.52C7.69413 5.83174 7.19701 6.20895 6.75198 6.643L9.27498 7.906L9.34798 9.352L7.90198 9.278L6.63798 6.757C6.20498 7.2 5.82898 7.697 5.51498 8.237L6.19998 9.599L4.75398 10.079C4.59357 10.6794 4.50858 11.2975 4.50098 11.919L7.49098 10.926L9.86598 11.047L10.819 12L9.86598 12.953L7.48998 13.073L4.50098 12.081C4.50798 12.717 4.59898 13.333 4.75398 13.921L6.19998 14.401L5.51598 15.763C5.82998 16.303 6.20598 16.8 6.63898 17.243L7.90298 14.722L9.34898 14.648L9.27598 16.093L6.75398 17.358C7.19598 17.791 7.69398 18.166 8.23398 18.48L9.59498 17.797L10.075 19.242C10.6757 19.4028 11.2941 19.4882 11.916 19.496L10.923 16.507L11.045 14.131L11.997 13.179V19.5C13.9861 19.5 15.8938 18.7098 17.3003 17.3033C18.7068 15.8968 19.497 13.9891 19.497 12C19.497 10.0109 18.7068 8.10322 17.3003 6.6967C15.8938 5.29018 13.9861 4.5 11.997 4.5"
        fill="white" />
</svg>
