<svg width="32" height="32" viewBox="0 0 32 32" fill="none" xmlns="http://www.w3.org/2000/svg">
    <defs>
        <linearGradient id="paint0_linear_987_11512" x1="29.4737" y1="4.57024e-07" x2="4.21053"
            y2="32" gradientUnits="userSpaceOnUse">
            <stop stop-color="#FF00AF" />
            <stop offset="1" stop-color="#BF0083" />
        </linearGradient>
    </defs>
    <path
        d="M16 32C24.8366 32 32 24.8366 32 16C32 7.16344 24.8366 0 16 0C7.16344 0 0 7.16344 0 16C0 24.8366 7.16344 32 16 32Z"
        fill="url(#paint0_linear_987_11512)" />
    <path fill-rule="evenodd" clip-rule="evenodd"
        d="M18.6149 24.787V7.21284C20.5067 7.77903 22.1657 8.93946 23.3461 10.5222C24.5265 12.1049 25.1655 14.0257 25.1684 15.9999C25.1656 17.974 24.5269 19.8946 23.3468 21.4773C22.1666 23.06 20.508 24.2205 18.6164 24.787H18.6149ZM15.9953 4.21045V14.1466L14.4985 12.6501L14.3066 8.91524L15.868 4.21674C14.8907 4.22888 13.9188 4.36301 12.9748 4.61601L12.2201 6.88587L10.077 5.81382C9.23133 6.30385 8.44968 6.8968 7.74993 7.5791L11.717 9.56444L11.8317 11.8375L9.55813 11.7211L7.57068 7.7583C6.88985 8.45466 6.29865 9.23591 5.80493 10.0848L6.88199 12.2257L4.60838 12.9802C4.35616 13.9241 4.22253 14.8957 4.21057 15.8726L8.9119 14.3117L12.6462 14.5019L14.1447 15.9999L12.6462 17.498L8.91032 17.6866L4.21057 16.1273C4.22158 17.127 4.36466 18.0953 4.60838 19.0196L6.88199 19.7741L5.80651 21.9151C6.30022 22.7639 6.89143 23.5452 7.57225 24.2416L9.5597 20.2787L11.8333 20.1624L11.7185 22.4338L7.75307 24.4223C8.44805 25.103 9.23108 25.6924 10.0802 26.186L12.2201 25.1124L12.9748 27.3838C13.9194 27.6367 14.8918 27.7708 15.8695 27.7831L14.3082 23.0846L14.5 19.3497L15.9969 17.8532V27.7894C19.1245 27.7894 22.124 26.5473 24.3355 24.3363C26.5471 22.1254 27.7895 19.1267 27.7895 15.9999C27.7895 12.8732 26.5471 9.87446 24.3355 7.66351C22.124 5.45255 19.1245 4.21045 15.9969 4.21045"
        fill="white" />
</svg>
