<svg width="40" height="40" viewBox="0 0 40 40" fill="none" xmlns="http://www.w3.org/2000/svg">
<path d="M20.48 13.1802H17.6224V18.814H22.1182V21.1728H17.6224V26.8062H20.62C21.3902 26.8062 26.9432 26.8932 26.9346 20.2518C26.926 13.6104 21.5488 13.1802 20.48 13.1802Z" fill="#C2A633"/>
<path d="M20 0C8.9542 0 0 8.9542 0 20C0 31.0458 8.9542 40 20 40C31.0458 40 40 31.0458 40 20C40 8.9542 31.0458 0 20 0ZM20.7858 30.802H13.5428V21.1728H10.9896V18.814H13.5426V9.1842H19.759C21.2296 9.1842 30.9702 8.8788 30.9702 20.1738C30.9702 31.6556 20.786 30.802 20.786 30.802H20.7858Z" fill="#C2A633"/>
</svg>
