<svg width="20" height="20" viewBox="0 0 20 20" fill="none" xmlns="http://www.w3.org/2000/svg">
    <path
        d="M9.7497 19.5C4.36643 19.5 0 15.1334 0 9.75C0 4.36656 4.36643 0 9.7497 0C15.133 0 19.4994 4.36656 19.4994 9.75C19.5592 15.0736 15.133 19.5 9.7497 19.5Z"
        fill="#132235" />
    <path
        d="M7.01711 11.187V11.9838H4.93273V11.187H7.01711ZM5.23238 7.18945V11.9838H4.26758V7.18945H5.23238ZM6.73721 9.13223V9.90605H4.93273V9.13223H6.73721ZM7.01052 7.18945V7.98961H4.93273V7.18945H7.01052Z"
        fill="white" />
    <path
        d="M10.3297 11.187V11.9838H8.24534V11.187H10.3297ZM8.54499 7.18945V11.9838H7.58018V7.18945H8.54499ZM10.0498 9.13223V9.90605H8.24534V9.13223H10.0498ZM10.3231 7.18945V7.98961H8.24534V7.18945H10.3231Z"
        fill="white" />
    <path
        d="M11.2352 7.18945H12.0815L13.0595 10.4691L14.0342 7.18945H14.7816L13.4184 11.9838H12.6973L11.2352 7.18945ZM10.8928 7.18945H11.6995L11.8247 10.3506V11.9838H10.8928V7.18945ZM14.4128 7.18945H15.2229V11.9838H14.2943V10.3506L14.4128 7.18945Z"
        fill="white" />
</svg>
