<svg width="32" height="32" viewBox="0 0 32 32" fill="none" xmlns="http://www.w3.org/2000/svg">
    <defs>
        <linearGradient id="paint0_linear_987_11512" x1="27.7895" y1="2.52632" x2="3.36842" y2="32"
            gradientUnits="userSpaceOnUse">
            <stop stop-color="#627EEA" />
            <stop offset="1" stop-color="#3C61F1" />
        </linearGradient>
    </defs>
    <path
        d="M16 32C24.8366 32 32 24.8366 32 16C32 7.16344 24.8366 0 16 0C7.16344 0 0 7.16344 0 16C0 24.8366 7.16344 32 16 32Z"
        fill="url(#paint0_linear_987_11512)" />
    <path d="M15.8051 5.33301V13.2139L22.4656 16.1903L15.8051 5.33301Z" fill="white"
        fill-opacity="0.602" />
    <path d="M15.8053 5.33301L9.14288 16.1903L15.8053 13.2139V5.33301Z" fill="white" />
    <path d="M15.8051 21.2983V26.6537L22.4704 17.4312L15.8051 21.2983Z" fill="white"
        fill-opacity="0.602" />
    <path d="M15.8053 26.6537V21.2974L9.14288 17.4312L15.8053 26.6537Z" fill="white" />
    <path d="M15.8051 20.0583L22.4656 16.1906L15.8051 13.2158V20.0583Z" fill="white"
        fill-opacity="0.2" />
    <path d="M9.14288 16.1906L15.8053 20.0583V13.2158L9.14288 16.1906Z" fill="white"
        fill-opacity="0.602" />
</svg>
