<svg width="40" height="40" viewBox="0 0 40 40" fill="none" xmlns="http://www.w3.org/2000/svg">
<path d="M20 40C31.0457 40 40 31.0457 40 20C40 8.9543 31.0457 0 20 0C8.9543 0 0 8.9543 0 20C0 31.0457 8.9543 40 20 40Z" fill="#627EEA"/>
<path d="M20.6229 5V16.0871L29.9932 20.2745L20.6229 5Z" fill="white" fill-opacity="0.602"/>
<path d="M20.623 5L11.25 20.2745L20.623 16.0871V5Z" fill="white"/>
<path d="M20.6229 27.4599V34.9943L29.9999 22.0195L20.6229 27.4599Z" fill="white" fill-opacity="0.602"/>
<path d="M20.623 34.9943V27.4587L11.25 22.0195L20.623 34.9943Z" fill="white"/>
<path d="M20.6229 25.7161L29.9932 20.2748L20.6229 16.0898V25.7161Z" fill="white" fill-opacity="0.2"/>
<path d="M11.25 20.2748L20.623 25.7161V16.0898L11.25 20.2748Z" fill="white" fill-opacity="0.602"/>
</svg>
