<svg width="20" height="20" viewBox="0 0 20 20" fill="none" xmlns="http://www.w3.org/2000/svg">
    <path
        d="M9.7497 19.5C4.36643 19.5 0 15.1334 0 9.75C0 4.36656 4.36643 0 9.7497 0C15.133 0 19.4994 4.36656 19.4994 9.75C19.5592 15.0736 15.133 19.5 9.7497 19.5Z"
        fill="#3A75EA" />
    <path
        d="M7.5693 7.18945V11.9838H6.60449V7.18945H7.5693ZM9.07083 9.22773V10.0246H7.32563V9.22773H9.07083ZM9.25523 7.18945V7.98961H7.32563V7.18945H9.25523Z"
        fill="white" />
    <path
        d="M11.5025 9.89288H10.5213L10.518 9.1948H11.3544C11.4861 9.1948 11.5936 9.17284 11.6771 9.12894C11.7627 9.08284 11.8252 9.01589 11.8647 8.92808C11.9065 8.83807 11.9273 8.72941 11.9273 8.60208C11.9273 8.455 11.9087 8.33756 11.8713 8.24975C11.834 8.15975 11.7736 8.09389 11.6902 8.05218C11.6068 8.01047 11.4981 7.98961 11.3642 7.98961H10.8506V11.9838H9.88575V7.18945H11.3642C11.6035 7.18945 11.8176 7.2158 12.0063 7.26848C12.1951 7.32117 12.3554 7.40129 12.4871 7.50886C12.6188 7.61643 12.7187 7.75253 12.7867 7.91717C12.857 8.08181 12.8921 8.27609 12.8921 8.50001C12.8921 8.69758 12.8526 8.87978 12.7736 9.04662C12.6945 9.21346 12.5705 9.34956 12.4015 9.45493C12.2346 9.5603 12.0162 9.61957 11.7462 9.63275L11.5025 9.89288ZM11.4696 11.9838H10.248L10.6332 11.187H11.4696C11.5969 11.187 11.7001 11.1595 11.7791 11.1046C11.8582 11.0498 11.9152 10.9762 11.9504 10.884C11.9855 10.7896 12.003 10.6821 12.003 10.5613C12.003 10.4252 11.9866 10.3067 11.9537 10.2057C11.9229 10.1047 11.8713 10.0279 11.7989 9.9752C11.7264 9.92032 11.6288 9.89288 11.5058 9.89288H10.676L10.6826 9.1948H11.6902L11.9174 9.4714C12.1743 9.46262 12.3795 9.51201 12.5332 9.61957C12.6869 9.72495 12.7966 9.86324 12.8625 10.0345C12.9305 10.2035 12.9646 10.3835 12.9646 10.5745C12.9646 10.8818 12.9064 11.1409 12.79 11.3516C12.6759 11.5602 12.508 11.7182 12.2862 11.8258C12.0645 11.9312 11.7923 11.9838 11.4696 11.9838Z"
        fill="white" />
</svg>
