<svg width="32" height="32" viewBox="0 0 32 32" fill="none" xmlns="http://www.w3.org/2000/svg"><circle cx="16" cy="16" r="16" fill="#F5E045"/><path d="M11.191 18.961l.171.868h1.071v-4.134H9.221v1.253h1.692c-.05.535-.229.946-.536 1.231-.3.279-.728.418-1.285.418-.378 0-.7-.071-.964-.214a1.889 1.889 0 01-.642-.59 2.628 2.628 0 01-.364-.813 4.384 4.384 0 010-1.917c.078-.314.2-.593.364-.835.164-.25.378-.447.642-.59.264-.15.586-.224.964-.224.407 0 .753.107 1.039.32.285.215.478.536.578.965h1.607a2.853 2.853 0 00-.354-1.157 2.812 2.812 0 00-.739-.846 3.069 3.069 0 00-.996-.514A3.566 3.566 0 009.092 12a3.9 3.9 0 00-1.585.31 3.39 3.39 0 00-1.178.857 3.81 3.81 0 00-.739 1.286 4.73 4.73 0 00-.257 1.585c0 .556.086 1.078.257 1.563.171.478.418.896.739 1.253.321.357.714.64 1.178.846.471.2 1 .3 1.585.3.371 0 .739-.075 1.103-.225.364-.157.696-.428.996-.814zm2.6-6.779v7.647H19.2v-1.414h-3.727v-6.233H13.79zm8.03 6.233v-4.82h1.2c.413 0 .76.061 1.038.183.286.114.514.282.686.503.171.221.292.49.364.803.078.307.118.654.118 1.04 0 .42-.054.777-.161 1.07-.107.293-.25.532-.428.718a1.583 1.583 0 01-.61.385 2.16 2.16 0 01-.708.118h-1.499zm-1.681-6.233v7.647h3.298c.585 0 1.093-.097 1.52-.29.436-.2.797-.47 1.083-.813.292-.343.51-.75.653-1.221.143-.471.214-.986.214-1.542 0-.636-.09-1.19-.268-1.66a3.168 3.168 0 00-.728-1.179 2.93 2.93 0 00-1.103-.706 3.892 3.892 0 00-1.37-.236h-3.3z" fill="#284033"/></svg>