<svg width="33" height="32" viewBox="0 0 33 32" fill="none" xmlns="http://www.w3.org/2000/svg"><g clip-path="url(#clip0_1388_11290)"><path fill-rule="evenodd" clip-rule="evenodd" d="M16.5 0C7.663 0 .5 7.163.5 16s7.163 16 16 16c8.838 0 16-7.163 16-16s-7.162-16-16-16z" fill="#141029"/><path d="M10.358 18.961l.171.868H11.6v-4.134H8.388v1.253h1.692c-.05.535-.229.946-.536 1.231-.3.279-.728.418-1.285.418-.378 0-.7-.071-.964-.214a1.889 1.889 0 01-.642-.59 2.628 2.628 0 01-.365-.813 4.384 4.384 0 010-1.917c.079-.314.2-.593.365-.835.164-.25.378-.447.642-.59.264-.15.586-.224.964-.224.407 0 .753.107 1.039.32.285.215.478.536.578.965h1.607a2.853 2.853 0 00-.354-1.157 2.812 2.812 0 00-.739-.846 3.068 3.068 0 00-.996-.514A3.565 3.565 0 008.26 12a3.9 3.9 0 00-1.585.31 3.39 3.39 0 00-1.178.857 3.81 3.81 0 00-.739 1.286 4.73 4.73 0 00-.257 1.585c0 .556.086 1.078.257 1.563.171.478.418.896.739 1.253.321.357.714.64 1.178.846.471.2 1 .3 1.585.3.371 0 .739-.075 1.103-.225.364-.157.696-.428.996-.814zm2.6-6.779v7.647h1.575v-5.366h.021l1.874 5.366h1.296l1.874-5.42h.022v5.42h1.574v-7.647h-2.367l-1.692 5.258h-.022l-1.788-5.258h-2.367zm9.716 0v7.647h5.805v-1.414h-4.123v-1.874h3.705v-1.307h-3.705v-1.638h4.037v-1.414h-5.719z" fill="#fff"/></g><defs><clipPath id="clip0_1388_11290"><path fill="#fff" transform="translate(.5)" d="M0 0h32v32H0z"/></clipPath></defs></svg>