<svg width="32" height="32" viewBox="0 0 32 32" fill="none" xmlns="http://www.w3.org/2000/svg"><path fill-rule="evenodd" clip-rule="evenodd" d="M16 0C7.163 0 0 7.163 0 16s7.163 16 16 16c8.838 0 16-7.163 16-16S24.838 0 16 0z" fill="#34A853"/><path d="M7.974 14.447h1.494c0-.787-.187-1.39-.563-1.808-.375-.426-.988-.639-1.84-.639-.498 0-.913.083-1.245.249a1.944 1.944 0 00-.801.747c-.202.325-.347.732-.433 1.223a10.75 10.75 0 00-.12 1.71c0 .672.03 1.264.087 1.776.058.505.17.931.336 1.277.173.347.408.603.704.769.303.166.692.249 1.169.249.368 0 .682-.061.942-.184.267-.13.494-.346.682-.65h.021v.715h1.148v-4.168H7.032v1.148h1.029v.79c0 .21-.033.393-.098.552a1.194 1.194 0 01-.249.379.944.944 0 01-.314.227.77.77 0 01-.855-.13c-.137-.144-.245-.346-.324-.606a5.301 5.301 0 01-.152-.963 16.493 16.493 0 01-.043-1.256c0-.967.083-1.66.249-2.079.166-.418.436-.627.812-.627a.62.62 0 01.4.13.91.91 0 01.282.313c.072.123.122.26.151.412.036.151.054.3.054.444zm3.98 1.569c0-.52.011-.96.033-1.32.029-.361.08-.657.151-.888.08-.231.188-.397.325-.498.145-.108.332-.162.563-.162.231 0 .415.054.552.162.145.1.253.267.325.498.08.23.13.527.152.887.028.361.043.802.043 1.321 0 .52-.015.964-.043 1.332-.022.36-.073.657-.152.887-.072.224-.18.39-.325.498-.137.101-.321.152-.552.152-.23 0-.418-.05-.563-.152-.137-.108-.245-.274-.325-.498a4.16 4.16 0 01-.151-.887 23.229 23.229 0 01-.033-1.332zm-1.559 0c0 .592.026 1.133.076 1.624.058.49.177.913.357 1.267.188.353.455.624.802.811.346.188.811.282 1.396.282.585 0 1.05-.094 1.397-.282.346-.187.61-.458.79-.811.188-.354.307-.776.357-1.267.058-.49.087-1.032.087-1.624 0-.584-.03-1.122-.087-1.613-.05-.498-.17-.924-.357-1.277a1.932 1.932 0 00-.79-.823c-.347-.202-.812-.303-1.397-.303s-1.05.101-1.396.303a2 2 0 00-.802.823c-.18.354-.299.78-.357 1.277a15.83 15.83 0 00-.075 1.613zm7.575 0c0-.52.01-.96.032-1.32.029-.361.08-.657.152-.888.08-.231.187-.397.325-.498.144-.108.331-.162.562-.162.231 0 .415.054.552.162.145.1.253.267.325.498.08.23.13.527.152.887.029.361.043.802.043 1.321 0 .52-.014.964-.043 1.332-.022.36-.072.657-.152.887-.072.224-.18.39-.325.498-.137.101-.32.152-.552.152-.23 0-.418-.05-.563-.152-.137-.108-.245-.274-.324-.498a4.16 4.16 0 01-.152-.887 23.229 23.229 0 01-.032-1.332zm-1.56 0c0 .592.026 1.133.077 1.624.057.49.176.913.357 1.267.188.353.454.624.8.811.347.188.813.282 1.397.282.585 0 1.05-.094 1.397-.282.346-.187.61-.458.79-.811.188-.354.307-.776.357-1.267.058-.49.087-1.032.087-1.624 0-.584-.029-1.122-.087-1.613-.05-.498-.17-.924-.357-1.277a1.932 1.932 0 00-.79-.823c-.346-.202-.812-.303-1.397-.303-.584 0-1.05.101-1.396.303a2 2 0 00-.801.823c-.18.354-.3.78-.357 1.277a15.83 15.83 0 00-.076 1.613zm9.61-1.569h1.494c0-.787-.188-1.39-.563-1.808-.375-.426-.989-.639-1.84-.639-.498 0-.913.083-1.245.249a1.944 1.944 0 00-.801.747c-.202.325-.347.732-.433 1.223a10.75 10.75 0 00-.12 1.71c0 .672.03 1.264.087 1.776.058.505.17.931.336 1.277.173.347.408.603.704.769.303.166.692.249 1.169.249.368 0 .682-.061.942-.184.267-.13.494-.346.681-.65h.022v.715h1.148v-4.168h-2.523v1.148h1.029v.79c0 .21-.033.393-.098.552a1.194 1.194 0 01-.249.379.944.944 0 01-.314.227.77.77 0 01-.855-.13c-.137-.144-.245-.346-.325-.606a5.31 5.31 0 01-.151-.963 16.478 16.478 0 01-.043-1.256c0-.967.083-1.66.249-2.079.166-.418.436-.627.811-.627a.62.62 0 01.401.13.91.91 0 01.281.313c.073.123.123.26.152.412.036.151.054.3.054.444z" fill="#fff"/></svg>