<svg width="40" height="40" viewBox="0 0 40 40" fill="none" xmlns="http://www.w3.org/2000/svg">
<g clip-path="url(#clip0)">
<path d="M20 37.8353C29.8502 37.8353 37.8354 29.8501 37.8354 19.9999C37.8354 10.1497 29.8502 2.16455 20 2.16455C10.1498 2.16455 2.16467 10.1497 2.16467 19.9999C2.16467 29.8501 10.1498 37.8353 20 37.8353Z" fill="white"/>
<path d="M20 0C16.0444 0 12.1776 1.17298 8.88861 3.37061C5.59962 5.56824 3.03617 8.69181 1.52242 12.3463C0.00866562 16.0009 -0.387401 20.0222 0.384303 23.9018C1.15601 27.7814 3.06082 31.3451 5.85787 34.1421C8.65492 36.9392 12.2186 38.844 16.0982 39.6157C19.9778 40.3874 23.9992 39.9913 27.6537 38.4776C31.3082 36.9638 34.4318 34.4004 36.6294 31.1114C38.827 27.8224 40 23.9556 40 20C40.0076 17.3812 39.4994 14.7865 38.5043 12.3641C37.5092 9.94175 36.0467 7.73908 34.2003 5.88191C32.3539 4.02474 30.1598 2.54942 27.7433 1.5402C25.3267 0.530981 22.735 0.00762018 20.1162 0H20ZM20.339 20.678L18.2567 27.6998H29.3947C29.4685 27.6972 29.542 27.7091 29.6112 27.735C29.6803 27.7609 29.7437 27.8001 29.7977 27.8505C29.8516 27.9009 29.8951 27.9614 29.9257 28.0286C29.9563 28.0958 29.9733 28.1683 29.9758 28.2421V28.4261L29.0073 31.7676C28.9646 31.9256 28.8694 32.0644 28.7374 32.1612C28.6054 32.258 28.4444 32.307 28.2809 32.3002H11.2349L14.092 22.5666L10.8959 23.5351L11.6223 21.3075L14.8184 20.339L18.8378 6.68281C18.882 6.52568 18.9776 6.38787 19.1092 6.29134C19.2409 6.1948 19.401 6.14509 19.5642 6.15012H23.8741C23.9479 6.14753 24.0214 6.15951 24.0906 6.18538C24.1597 6.21124 24.2231 6.25048 24.2771 6.30085C24.3311 6.35123 24.3746 6.41174 24.4051 6.47894C24.4357 6.54614 24.4527 6.61871 24.4552 6.69249V6.87651L21.0654 18.4019L24.2615 17.4334L23.5835 19.7579L20.339 20.678Z" fill="#345D9D"/>
</g>
<defs>
<clipPath id="clip0">
<rect width="40" height="40" fill="white"/>
</clipPath>
</defs>
</svg>
