<svg width="20" height="20" viewBox="0 0 20 20" fill="none" xmlns="http://www.w3.org/2000/svg">
    <path
        d="M9.7497 19.5C4.36643 19.5 0 15.1334 0 9.75C0 4.36656 4.36643 0 9.7497 0C15.133 0 19.4994 4.36656 19.4994 9.75C19.5592 15.0736 15.133 19.5 9.7497 19.5Z"
        fill="#F1511B" />
    <path
        d="M2.93425 7.19086H3.78051L4.75849 10.4705L5.73317 7.19086H6.48065L5.11741 11.9852H4.39628L2.93425 7.19086ZM2.5918 7.19086H3.39854L3.52367 10.352V11.9852H2.5918V7.19086ZM6.11185 7.19086H6.92189V11.9852H5.99331V10.352L6.11185 7.19086Z"
        fill="white" />
    <path
        d="M9.53496 10.7241C9.53496 10.6385 9.52728 10.5605 9.51191 10.4903C9.49654 10.42 9.46362 10.3553 9.41313 10.296C9.36483 10.2367 9.29349 10.1775 9.19909 10.1182C9.10689 10.0589 8.98615 9.99746 8.83688 9.9338C8.65906 9.85916 8.48674 9.78013 8.3199 9.69671C8.15306 9.6111 8.00269 9.51231 7.86878 9.40036C7.73487 9.2884 7.6284 9.15669 7.54937 9.00522C7.47254 8.85155 7.43413 8.67154 7.43413 8.46519C7.43413 8.26323 7.47035 8.07993 7.54279 7.91528C7.61743 7.75064 7.7228 7.61015 7.8589 7.4938C7.99501 7.37526 8.15416 7.28415 8.33637 7.22049C8.52076 7.15683 8.72602 7.125 8.95213 7.125C9.25946 7.125 9.52508 7.18866 9.749 7.31599C9.97511 7.44331 10.1496 7.61783 10.2726 7.83955C10.3977 8.06127 10.4603 8.31591 10.4603 8.60349H9.49874C9.49874 8.46738 9.47898 8.34774 9.43947 8.24457C9.40215 8.1392 9.34178 8.05688 9.25836 7.9976C9.17494 7.93833 9.06738 7.9087 8.93566 7.9087C8.81273 7.9087 8.71065 7.93394 8.62943 7.98443C8.5504 8.03273 8.49113 8.09968 8.45161 8.1853C8.4143 8.26872 8.39564 8.36311 8.39564 8.46848C8.39564 8.54751 8.4143 8.61885 8.45161 8.68252C8.49113 8.74398 8.54491 8.79996 8.61296 8.85045C8.68102 8.89875 8.76114 8.94594 8.85334 8.99204C8.94774 9.03814 9.05091 9.08315 9.16287 9.12705C9.3802 9.21266 9.57228 9.30706 9.73912 9.41024C9.90596 9.51122 10.0454 9.62537 10.1573 9.75269C10.2693 9.87782 10.3538 10.0194 10.4109 10.1775C10.4679 10.3355 10.4965 10.5155 10.4965 10.7175C10.4965 10.9173 10.4613 11.0995 10.3911 11.2641C10.323 11.4266 10.2232 11.5671 10.0915 11.6856C9.95974 11.8019 9.80058 11.8919 9.61399 11.9556C9.42959 12.0193 9.22324 12.0511 8.99493 12.0511C8.77322 12.0511 8.56357 12.0204 8.366 11.9589C8.16843 11.8952 7.99391 11.7997 7.84244 11.6724C7.69316 11.5429 7.57572 11.3794 7.4901 11.1818C7.40449 10.982 7.36168 10.746 7.36168 10.4738H8.32649C8.32649 10.6187 8.34076 10.7427 8.36929 10.8459C8.39783 10.9469 8.44174 11.0281 8.50101 11.0896C8.56028 11.1489 8.63272 11.1939 8.71834 11.2246C8.80615 11.2531 8.90603 11.2674 9.01798 11.2674C9.14531 11.2674 9.24629 11.2433 9.32093 11.195C9.39776 11.1467 9.45264 11.0819 9.48557 11.0007C9.5185 10.9195 9.53496 10.8273 9.53496 10.7241Z"
        fill="white" />
    <path
        d="M11.9109 7.19086V11.9852H10.9461V7.19086H11.9109ZM13.4125 9.22913V10.026H11.6673V9.22913H13.4125ZM13.5969 7.19086V7.99102H11.6673V7.19086H13.5969Z"
        fill="white" />
    <path
        d="M15.9334 7.19086V11.9852H14.9751V7.19086H15.9334ZM17.1254 7.19086V7.99102H13.8062V7.19086H17.1254Z"
        fill="white" />
</svg>
