<svg width="20" height="20" viewBox="0 0 20 20" fill="none" xmlns="http://www.w3.org/2000/svg">
    <path
        d="M9.7497 19.5C4.36643 19.5 0 15.1334 0 9.75C0 4.36656 4.36643 0 9.7497 0C15.133 0 19.4994 4.36656 19.4994 9.75C19.5592 15.0736 15.133 19.5 9.7497 19.5Z"
        fill="#D22F27" />
    <path
        d="M6.62263 7.35352V12.1479H5.69075L4.18592 9.14812V12.1479H3.27051V7.35352H4.18921L5.70721 10.3862V7.35352H6.62263Z"
        fill="white" />
    <path
        d="M8.16223 7.35352V12.1479H7.19743V7.35352H8.16223ZM9.66377 9.39179V10.1887H7.91856V9.39179H9.66377ZM9.84817 7.35352V8.15368H7.91856V7.35352H9.84817Z"
        fill="white" />
    <path
        d="M12.8696 11.351V12.1479H10.8774V11.351H12.8696ZM11.1737 7.35352V12.1479H10.2089V7.35352H11.1737Z"
        fill="white" />
    <path
        d="M14.0832 7.35352L14.7681 8.95384L15.4201 7.35352H16.4836L15.3279 9.72766L16.5067 12.1479H15.4003L14.7187 10.5114L14.0371 12.1479H12.9537L14.1523 9.7079L12.9801 7.35352H14.0832Z"
        fill="white" />
</svg>
