<svg width="20" height="20" viewBox="0 0 20 20" fill="none" xmlns="http://www.w3.org/2000/svg">
    <path
        d="M9.7497 19.5C4.36643 19.5 0 15.1334 0 9.75C0 4.36656 4.36643 0 9.7497 0C15.133 0 19.4994 4.36656 19.4994 9.75C19.5592 15.0736 15.133 19.5 9.7497 19.5Z"
        fill="#83CE24" />
    <path
        d="M5.89509 7.18945V11.9838H4.96321L3.45838 8.98405V11.9838H2.54297V7.18945H3.46167L4.97968 10.2222V7.18945H5.89509Z"
        fill="white" />
    <path
        d="M7.96155 10.9598L8.87037 7.18945H9.91091L8.52133 11.9838H7.81995L7.96155 10.9598ZM7.18443 7.18945L8.08997 10.9598L8.23814 11.9838H7.53348L6.15377 7.18945H7.18443Z"
        fill="white" />
    <path
        d="M11.4176 11.9838H10.5713L10.5779 11.187H11.4176C11.6503 11.187 11.8314 11.1453 11.9609 11.0618C12.0904 10.9784 12.1815 10.8467 12.2342 10.6667C12.2891 10.4867 12.3165 10.2507 12.3165 9.95874V9.21126C12.3165 8.98954 12.3023 8.80185 12.2737 8.64818C12.2452 8.49232 12.1969 8.36719 12.1288 8.2728C12.0608 8.17621 11.9697 8.10486 11.8555 8.05876C11.7414 8.01266 11.5998 7.98961 11.4308 7.98961H10.5549V7.18945H11.4308C11.7074 7.18945 11.9587 7.23446 12.1848 7.32446C12.4109 7.41446 12.6052 7.54618 12.7677 7.7196C12.9301 7.89083 13.0552 8.10267 13.143 8.35512C13.2308 8.60757 13.2748 8.89515 13.2748 9.21785V9.95874C13.2748 10.2836 13.2308 10.5712 13.143 10.8215C13.0552 11.0717 12.9301 11.2836 12.7677 11.457C12.6074 11.6282 12.4131 11.7588 12.1848 11.8488C11.9565 11.9388 11.7008 11.9838 11.4176 11.9838ZM11.1311 7.18945V11.9838H10.1663V7.18945H11.1311Z"
        fill="white" />
    <path
        d="M15.44 8.04559L14.4093 11.9838H13.3918L14.8901 7.18945H15.5256L15.44 8.04559ZM16.2533 11.9838L15.2161 8.04559L15.1206 7.18945H15.766L17.2774 11.9838H16.2533ZM16.2895 10.1958V10.996H14.1261V10.1958H16.2895Z"
        fill="white" />
</svg>
