<svg width="20" height="20" viewBox="0 0 20 20" fill="none" xmlns="http://www.w3.org/2000/svg">
    <path
        d="M9.7497 19.5C4.36643 19.5 0 15.1334 0 9.75C0 4.36656 4.36643 0 9.7497 0C15.133 0 19.4994 4.36656 19.4994 9.75C19.5592 15.0736 15.133 19.5 9.7497 19.5Z"
        fill="#132235" />
    <path
        d="M4.33442 10.2954H3.35316V9.49524H4.33442C4.47053 9.49524 4.58139 9.4645 4.667 9.40304C4.75481 9.34157 4.81847 9.25705 4.85799 9.14949C4.8975 9.03973 4.91726 8.91679 4.91726 8.78069C4.91726 8.64239 4.8964 8.51397 4.85469 8.39543C4.81518 8.27469 4.75262 8.177 4.667 8.10236C4.58358 8.02772 4.47272 7.99041 4.33442 7.99041H3.66268V11.9846H2.70117V7.19024H4.33442C4.65712 7.19024 4.93482 7.2583 5.16751 7.3944C5.40021 7.5305 5.57802 7.7182 5.70096 7.95748C5.82608 8.19456 5.88865 8.46677 5.88865 8.7741C5.88865 9.08363 5.82608 9.35255 5.70096 9.58085C5.57802 9.80696 5.40021 9.98258 5.16751 10.1077C4.93482 10.2328 4.65712 10.2954 4.33442 10.2954Z"
        fill="white" />
    <path
        d="M7.65045 11.9846H6.80419L6.81078 11.1878H7.65045C7.88315 11.1878 8.06425 11.146 8.19377 11.0626C8.32329 10.9792 8.41439 10.8475 8.46708 10.6675C8.52196 10.4875 8.5494 10.2515 8.5494 9.95953V9.21205C8.5494 8.99033 8.53513 8.80264 8.50659 8.64897C8.47805 8.49311 8.42976 8.36799 8.36171 8.27359C8.29365 8.177 8.20255 8.10565 8.0884 8.05956C7.97425 8.01346 7.83266 7.99041 7.66362 7.99041H6.78773V7.19024H7.66362C7.94022 7.19024 8.19158 7.23525 8.41769 7.32525C8.64379 7.41525 8.83807 7.54697 9.00052 7.72039C9.16297 7.89162 9.28809 8.10346 9.3759 8.35591C9.46371 8.60836 9.50762 8.89594 9.50762 9.21864V9.95953C9.50762 10.2844 9.46371 10.572 9.3759 10.8223C9.28809 11.0725 9.16297 11.2843 9.00052 11.4578C8.84027 11.629 8.64599 11.7596 8.41769 11.8496C8.18938 11.9396 7.93364 11.9846 7.65045 11.9846ZM7.36397 7.19024V11.9846H6.39917V7.19024H7.36397Z"
        fill="white" />
    <path
        d="M11.6942 9.89367H10.7129L10.7096 9.19559H11.546C11.6777 9.19559 11.7853 9.17363 11.8687 9.12973C11.9543 9.08363 12.0169 9.01668 12.0564 8.92887C12.0981 8.83886 12.119 8.7302 12.119 8.60287C12.119 8.45579 12.1003 8.33835 12.063 8.25054C12.0257 8.16054 11.9653 8.09468 11.8819 8.05297C11.7985 8.01126 11.6898 7.99041 11.5559 7.99041H11.0422V11.9846H10.0774V7.19024H11.5559C11.7952 7.19024 12.0092 7.21659 12.198 7.26927C12.3868 7.32196 12.547 7.40208 12.6788 7.50965C12.8105 7.61722 12.9104 7.75332 12.9784 7.91796C13.0487 8.08261 13.0838 8.27688 13.0838 8.5008C13.0838 8.69837 13.0443 8.88057 12.9652 9.04741C12.8862 9.21425 12.7622 9.35035 12.5931 9.45572C12.4263 9.56109 12.2079 9.62036 11.9379 9.63354L11.6942 9.89367ZM11.6613 11.9846H10.4396L10.8249 11.1878H11.6613C11.7886 11.1878 11.8918 11.1603 11.9708 11.1054C12.0498 11.0506 12.1069 10.977 12.142 10.8848C12.1771 10.7904 12.1947 10.6829 12.1947 10.5621C12.1947 10.426 12.1782 10.3075 12.1453 10.2065C12.1146 10.1055 12.063 10.0287 11.9906 9.97599C11.9181 9.92111 11.8204 9.89367 11.6975 9.89367H10.8677L10.8743 9.19559H11.8819L12.1091 9.47219C12.3659 9.46341 12.5712 9.5128 12.7249 9.62036C12.8785 9.72574 12.9883 9.86403 13.0541 10.0353C13.1222 10.2043 13.1562 10.3843 13.1562 10.5753C13.1562 10.8826 13.098 11.1417 12.9817 11.3524C12.8675 11.5609 12.6996 11.719 12.4779 11.8266C12.2562 11.9319 11.984 11.9846 11.6613 11.9846Z"
        fill="white" />
    <path
        d="M16.0145 10.3876H16.9728C16.9596 10.7476 16.8872 11.0517 16.7554 11.2997C16.6237 11.5456 16.436 11.7322 16.1924 11.8595C15.9509 11.9868 15.6589 12.0505 15.3165 12.0505C15.0508 12.0505 14.8149 12.0066 14.6085 11.9188C14.4021 11.8288 14.2265 11.6971 14.0816 11.5236C13.9368 11.3502 13.827 11.1362 13.7524 10.8815C13.6799 10.6247 13.6437 10.3294 13.6437 9.99575V9.18242C13.6437 8.84874 13.6821 8.55348 13.7589 8.29664C13.838 8.0398 13.9499 7.82467 14.0948 7.65124C14.2419 7.47562 14.4186 7.34391 14.625 7.2561C14.8335 7.1661 15.0684 7.12109 15.3296 7.12109C15.6787 7.12109 15.9706 7.18695 16.2055 7.31866C16.4404 7.45038 16.6215 7.64246 16.7489 7.89491C16.8784 8.14517 16.9563 8.4514 16.9826 8.81362H16.0211C16.0145 8.58531 15.9882 8.4064 15.9421 8.27688C15.8982 8.14517 15.828 8.05297 15.7314 8.00028C15.6348 7.9454 15.5009 7.91796 15.3296 7.91796C15.2023 7.91796 15.0925 7.94101 15.0003 7.98711C14.9081 8.03102 14.8324 8.10236 14.7731 8.20115C14.7139 8.29993 14.67 8.42945 14.6414 8.5897C14.6151 8.74996 14.6019 8.94533 14.6019 9.17583V9.99575C14.6019 10.2219 14.614 10.415 14.6381 10.5753C14.6623 10.7333 14.7007 10.8629 14.7534 10.9638C14.8061 11.0648 14.8774 11.1384 14.9674 11.1845C15.0596 11.2306 15.176 11.2536 15.3165 11.2536C15.4789 11.2536 15.6095 11.2295 15.7083 11.1812C15.8093 11.1329 15.8839 11.0462 15.9322 10.921C15.9805 10.7959 16.008 10.6181 16.0145 10.3876Z"
        fill="white" />
</svg>
