<svg width="32" height="32" viewBox="0 0 32 32" fill="none" xmlns="http://www.w3.org/2000/svg"><path fill-rule="evenodd" clip-rule="evenodd" d="M16 0C7.163 0 0 7.163 0 16s7.163 16 16 16c8.838 0 16-7.163 16-16S24.838 0 16 0z" fill="#141029"/><path d="M7.24 15.619v-2.431h.673c.403 0 .69.104.862.313.172.21.258.516.258.92 0 .41-.1.713-.302.907-.195.194-.452.291-.774.291H7.24zM5.627 12v8H7.24v-3.193h.863c.381 0 .728-.049 1.042-.146.314-.097.58-.243.796-.437.224-.194.396-.444.515-.75.127-.307.19-.665.19-1.076 0-.299-.037-.59-.112-.874a2.12 2.12 0 00-.37-.773 1.829 1.829 0 00-.683-.538c-.276-.142-.62-.213-1.03-.213H5.626zm5.81 8h4.47v-1.322H13.05V12h-1.613v8zm8.82-8h-5.11v1.322h1.748V20h1.614v-6.678h1.748V12zm.699 0v8h1.614v-3.384h.863c.336 0 .575.09.717.27.142.178.22.425.235.739l.045 1.535c.007.157.022.31.045.459a.86.86 0 00.157.381h1.747v-.067c-.149-.082-.246-.235-.29-.46a10.72 10.72 0 01-.068-.974c-.008-.217-.015-.411-.023-.583a8.45 8.45 0 00-.033-.493c-.045-.448-.16-.773-.347-.975-.187-.201-.482-.332-.886-.392v-.022c.456-.097.792-.314 1.009-.65.216-.344.325-.785.325-1.322 0-.695-.187-1.21-.56-1.547-.374-.343-.897-.515-1.57-.515h-2.98zm1.614 3.496v-2.308h.762c.747 0 1.12.37 1.12 1.109 0 .433-.104.743-.313.93-.21.18-.508.269-.897.269h-.672z" fill="#fff"/></svg>