<svg width="32" height="32" viewBox="0 0 32 32" fill="none" xmlns="http://www.w3.org/2000/svg"><circle cx="16" cy="16" r="16" fill="#000AD2"/><path d="M6.172 15.648V13.3h.65c.39 0 .667.101.833.303.166.202.25.498.25.888 0 .397-.098.69-.293.877-.188.187-.437.281-.747.281h-.693zm-1.559-3.496v7.729h1.56v-3.085h.833c.368 0 .703-.047 1.006-.141a2.05 2.05 0 00.77-.422 1.81 1.81 0 00.497-.726 2.7 2.7 0 00.184-1.039c0-.288-.036-.57-.108-.844a2.049 2.049 0 00-.357-.747 1.767 1.767 0 00-.66-.52c-.268-.137-.6-.205-.997-.205H4.613zm7.248 6.581V13.3h.66c.297 0 .531.058.704.173.18.109.314.274.401.498.094.217.155.491.184.823.029.332.043.718.043 1.158 0 .527-.018.967-.054 1.321-.029.354-.094.639-.195.855a.938.938 0 01-.39.466c-.165.093-.385.14-.66.14h-.693zm-1.558-6.581v7.729h2.457c.52 0 .949-.08 1.288-.238.34-.159.61-.4.812-.726.202-.324.343-.736.422-1.234.087-.505.13-1.097.13-1.775 0-.57-.032-1.086-.097-1.548-.065-.462-.191-.855-.38-1.18a1.81 1.81 0 00-.768-.758c-.332-.18-.768-.27-1.31-.27h-2.554zm7.699 6.581v-2.327h.671c.173 0 .332.018.476.054a.825.825 0 01.368.195.818.818 0 01.25.357c.064.145.097.329.097.552 0 .448-.116.754-.347.92-.23.166-.534.25-.909.25h-.606zm0-3.41V13.3h.563c.39 0 .675.076.855.227.18.152.27.412.27.78 0 .368-.1.631-.302.79-.195.152-.51.227-.942.227h-.444zm-1.559-3.171v7.729h2.63c.455 0 .834-.061 1.137-.184.31-.123.56-.285.747-.487.195-.21.332-.451.412-.726.079-.274.119-.563.119-.866 0-.52-.127-.934-.38-1.244-.252-.31-.595-.495-1.028-.553V15.8c.39-.109.682-.31.877-.607.195-.303.293-.663.293-1.082 0-.368-.055-.678-.163-.931a1.497 1.497 0 00-.454-.606 1.808 1.808 0 00-.704-.325 3.705 3.705 0 00-.877-.097h-2.609zm9.317 2.608h1.559c0-.281-.022-.58-.065-.898a2.273 2.273 0 00-.292-.899 1.819 1.819 0 00-.726-.692c-.317-.18-.754-.271-1.31-.271-.584 0-1.05.101-1.396.303a2 2 0 00-.801.823c-.18.354-.3.78-.357 1.277-.05.491-.076 1.029-.076 1.613 0 .592.025 1.133.076 1.624.058.49.177.913.357 1.267.188.353.455.624.801.811.346.188.812.282 1.396.282.513 0 .928-.08 1.246-.238.324-.159.573-.379.746-.66.18-.282.303-.61.369-.986.064-.375.097-.772.097-1.19h-1.559c0 .418-.025.757-.076 1.017-.05.253-.119.451-.205.596a.684.684 0 01-.314.281 1.071 1.071 0 01-.38.065.98.98 0 01-.443-.097c-.123-.073-.227-.206-.314-.401-.08-.202-.14-.483-.184-.844a14.899 14.899 0 01-.054-1.418c0-.549.014-1.01.043-1.386.029-.383.08-.69.152-.92.072-.239.17-.408.292-.51a.735.735 0 01.487-.161c.354 0 .595.13.725.39.138.252.206.66.206 1.223z" fill="#fff"/></svg>