<svg width="32" height="32" viewBox="0 0 32 32" fill="none" xmlns="http://www.w3.org/2000/svg"><g clip-path="url(#clip0_1388_11287)"><path fill-rule="evenodd" clip-rule="evenodd" d="M16 0C7.163 0 0 7.163 0 16s7.163 16 16 16c8.838 0 16-7.163 16-16S24.838 0 16 0z" fill="#E82127"/></g><path d="M10.27 12.152H5.332v1.277h1.689v6.452H8.58v-6.452h1.688v-1.277zm1.931 5.315h-1.559v.314c0 .714.188 1.263.564 1.645.382.383 1.014.574 1.894.574.844 0 1.501-.184 1.97-.552.476-.375.715-.97.715-1.786a3 3 0 00-.065-.65 1.413 1.413 0 00-.239-.53 1.759 1.759 0 00-.443-.455 3.503 3.503 0 00-.726-.411l-1.201-.52c-.332-.137-.549-.285-.65-.444a1.145 1.145 0 01-.151-.606c0-.115.01-.227.032-.336a.738.738 0 01.14-.281.75.75 0 01.282-.206c.116-.05.26-.075.433-.075.304 0 .52.1.65.303.13.194.195.476.195.844h1.494v-.216c0-.369-.062-.683-.184-.942a1.602 1.602 0 00-.498-.65 1.859 1.859 0 00-.758-.368 3.587 3.587 0 00-.953-.119c-.743 0-1.328.188-1.754.563-.425.375-.638.945-.638 1.71 0 .318.04.6.119.845.08.238.202.45.368.638.173.18.386.34.639.477.252.137.552.263.898.379.26.086.476.173.65.26.18.079.324.169.433.27a.828.828 0 01.227.346c.05.123.076.271.076.444 0 .325-.098.567-.293.726a.989.989 0 01-.638.227 1.31 1.31 0 01-.509-.087.808.808 0 01-.314-.238.858.858 0 01-.162-.368 2.664 2.664 0 01-.044-.498v-.227zm4.359 2.413h4.319v-1.276h-2.76v-6.452h-1.56v7.729zm8.236-2.911l-.747-3.475h-.021l-.747 3.475h1.515zm.206-4.817l2.046 7.729h-1.624l-.357-1.635H23.01l-.357 1.635h-1.624l2.046-7.73h1.927z" fill="#F5F5F5"/><defs><clipPath id="clip0_1388_11287"><path fill="#fff" d="M0 0h32v32H0z"/></clipPath></defs></svg>