<svg width="24" height="25" viewBox="0 0 24 25" fill="none" xmlns="http://www.w3.org/2000/svg"><g clip-path="url(#clip0)" fill-rule="evenodd" clip-rule="evenodd"><path d="M12 0c6.628 0 12 5.372 12 12 0 6.627-5.372 12-12 12S0 18.627 0 12C0 5.372 5.372 0 12 0z" fill="#DDEDFF"/><path d="M9.75 20.343c0 .282-.22.443-.494.358a9.004 9.004 0 010-17.148c.273-.085.494.075.494.357v.697c0 .188-.145.41-.324.47-2.87 1.055-4.927 3.812-4.927 7.045s2.056 5.991 4.927 7.045a.542.542 0 01.324.47v.706zm2.998-2.593a.378.378 0 01-.376.377h-.748a.378.378 0 01-.377-.377v-1.186c-1.637-.22-2.437-1.138-2.654-2.385a.35.35 0 01.348-.405h.857c.179 0 .33.127.367.306.16.743.588 1.313 1.901 1.313.97 0 1.657-.542 1.657-1.35 0-.81-.405-1.116-1.826-1.352-2.1-.282-3.092-.917-3.092-2.564 0-1.27.96-2.259 2.447-2.47V6.493c0-.207.17-.377.376-.377h.749c.207 0 .376.17.376.377v1.195c1.21.217 1.976.904 2.226 2.042a.348.348 0 01-.343.42h-.791a.381.381 0 01-.362-.278c-.212-.725-.73-1.035-1.629-1.035-.993 0-1.506.48-1.506 1.152 0 .71.292 1.068 1.817 1.29 2.061.282 3.125.87 3.125 2.626 0 1.332-.989 2.41-2.537 2.658v1.186h-.005zm1.502 2.594c0 .282.22.442.494.357 3.628-1.162 6.254-4.56 6.258-8.564a9.005 9.005 0 00-6.258-8.575c-.273-.089-.495.076-.495.358v.696c0 .19.146.405.325.471 2.87 1.054 4.927 3.812 4.927 7.045s-2.056 5.99-4.927 7.044a.5.5 0 00-.325.471v.697z" fill="#2775CA"/></g><defs><clipPath id="clip0"><path fill="#fff" transform="translate(0 .007)" d="M0 0h24v24H0z"/></clipPath></defs></svg>