<svg xmlns="http://www.w3.org/2000/svg" enable-background="new 0 0 100 100" viewBox="0 0 100 100">
    <circle cx="50" cy="50" r="49" fill="#50af95" />
    <path fill="#fff" d="M56.1,40.925v-7.349h16.817V22.368H27.128v11.207h16.817v7.346C30.278,41.549,20,44.258,20,47.501
			c0,3.243,10.279,5.948,23.946,6.579v23.551H56.1V54.074C87.782,52.518,87.76,42.483,56.1,40.925z" />
    <path fill="#50af95" d="M56.1,52.076c-8.19,0.694-33.327-0.672-33.246-5.147c0-2.513,9.014-4.616,21.091-5.156v8.213
			c0.622,0.217,11.992,0.211,12.155,0.003c0,0,0-8.21,0-8.21C84.01,43.1,84.016,50.764,56.1,52.076z" />
</svg>