<svg width="20" height="20" viewBox="0 0 20 20" fill="none" xmlns="http://www.w3.org/2000/svg">
    <path
        d="M9.7497 19.5C4.36643 19.5 0 15.1334 0 9.75C0 4.36656 4.36643 0 9.7497 0C15.133 0 19.4994 4.36656 19.4994 9.75C19.5592 15.0736 15.133 19.5 9.7497 19.5Z"
        fill="#882423" />
    <path
        d="M5.83609 11.1233L6.74492 7.35297H7.78546L6.39588 12.1474H5.6945L5.83609 11.1233ZM5.05898 7.35297L5.96451 11.1233L6.11269 12.1474H5.40802L4.02832 7.35297H5.05898Z"
        fill="white" />
    <path
        d="M11.3633 9.37807V10.1782C11.3633 10.5163 11.3216 10.8127 11.2382 11.0673C11.157 11.3197 11.0406 11.5316 10.8892 11.7028C10.7399 11.8719 10.5588 11.9992 10.3458 12.0848C10.1351 12.1704 9.90131 12.2132 9.64447 12.2132C9.38763 12.2132 9.15274 12.1704 8.9398 12.0848C8.72906 11.9992 8.54685 11.8719 8.39319 11.7028C8.24171 11.5316 8.12427 11.3197 8.04085 11.0673C7.95743 10.8127 7.91572 10.5163 7.91572 10.1782V9.37807C7.91572 9.03122 7.95633 8.72828 8.03756 8.46924C8.11878 8.20801 8.23623 7.99068 8.38989 7.81726C8.54356 7.64164 8.72576 7.50993 8.93651 7.42212C9.14725 7.33211 9.38104 7.28711 9.63788 7.28711C9.89472 7.28711 10.1285 7.33211 10.3393 7.42212C10.55 7.50993 10.7322 7.64164 10.8859 7.81726C11.0395 7.99068 11.157 8.20801 11.2382 8.46924C11.3216 8.72828 11.3633 9.03122 11.3633 9.37807ZM10.4051 10.1782V9.37148C10.4051 9.14318 10.3887 8.9489 10.3557 8.78865C10.3228 8.6262 10.2734 8.49339 10.2075 8.39021C10.1417 8.28704 10.0616 8.2113 9.96717 8.16301C9.87277 8.11471 9.76301 8.09056 9.63788 8.09056C9.51275 8.09056 9.40189 8.11471 9.3053 8.16301C9.21091 8.2113 9.13078 8.28704 9.06493 8.39021C9.00126 8.49339 8.95297 8.6262 8.92004 8.78865C8.88931 8.9489 8.87394 9.14318 8.87394 9.37148V10.1782C8.87394 10.3978 8.89041 10.5854 8.92333 10.7413C8.95626 10.8972 9.00566 11.0245 9.07151 11.1233C9.13737 11.2221 9.21749 11.2956 9.31189 11.3439C9.40848 11.39 9.51934 11.413 9.64447 11.413C9.7674 11.413 9.87606 11.39 9.97046 11.3439C10.067 11.2956 10.1472 11.2221 10.2108 11.1233C10.2745 11.0245 10.3228 10.8972 10.3557 10.7413C10.3887 10.5854 10.4051 10.3978 10.4051 10.1782Z"
        fill="white" />
    <path
        d="M15.231 9.37807V10.1782C15.231 10.5163 15.1893 10.8127 15.1059 11.0673C15.0246 11.3197 14.9083 11.5316 14.7568 11.7028C14.6075 11.8719 14.4264 11.9992 14.2135 12.0848C14.0027 12.1704 13.769 12.2132 13.5121 12.2132C13.2553 12.2132 13.0204 12.1704 12.8074 12.0848C12.5967 11.9992 12.4145 11.8719 12.2608 11.7028C12.1094 11.5316 11.9919 11.3197 11.9085 11.0673C11.8251 10.8127 11.7834 10.5163 11.7834 10.1782V9.37807C11.7834 9.03122 11.824 8.72828 11.9052 8.46924C11.9864 8.20801 12.1039 7.99068 12.2575 7.81726C12.4112 7.64164 12.5934 7.50993 12.8042 7.42212C13.0149 7.33211 13.2487 7.28711 13.5055 7.28711C13.7624 7.28711 13.9962 7.33211 14.2069 7.42212C14.4176 7.50993 14.5999 7.64164 14.7535 7.81726C14.9072 7.99068 15.0246 8.20801 15.1059 8.46924C15.1893 8.72828 15.231 9.03122 15.231 9.37807ZM14.2728 10.1782V9.37148C14.2728 9.14318 14.2563 8.9489 14.2234 8.78865C14.1904 8.6262 14.141 8.49339 14.0752 8.39021C14.0093 8.28704 13.9292 8.2113 13.8348 8.16301C13.7404 8.11471 13.6307 8.09056 13.5055 8.09056C13.3804 8.09056 13.2695 8.11471 13.173 8.16301C13.0786 8.2113 12.9984 8.28704 12.9326 8.39021C12.8689 8.49339 12.8206 8.6262 12.7877 8.78865C12.757 8.9489 12.7416 9.14318 12.7416 9.37148V10.1782C12.7416 10.3978 12.7581 10.5854 12.791 10.7413C12.8239 10.8972 12.8733 11.0245 12.9392 11.1233C13.005 11.2221 13.0851 11.2956 13.1795 11.3439C13.2761 11.39 13.387 11.413 13.5121 11.413C13.635 11.413 13.7437 11.39 13.8381 11.3439C13.9347 11.2956 14.0148 11.2221 14.0785 11.1233C14.1421 11.0245 14.1904 10.8972 14.2234 10.7413C14.2563 10.5854 14.2728 10.3978 14.2728 10.1782Z"
        fill="white" />
</svg>
