<svg width="24" height="25" viewBox="0 0 24 25" fill="none" xmlns="http://www.w3.org/2000/svg">
    <path d="M12 2.84448C6.48 2.84448 2 7.31638 2 12.8264C2 18.3364 6.48 22.8083 12 22.8083C17.52 22.8083 22 18.3364 22 12.8264C22 7.31638 17.52 2.84448 12 2.84448ZM12 20.8119C7.58 20.8119 4 17.2384 4 12.8264C4 8.41439 7.58 4.84087 12 4.84087C16.42 4.84087 20 8.41439 20 12.8264C20 17.2384 16.42 20.8119 12 20.8119Z" fill="#FE19AB"/>
    <path d="M12 17.8174C14.7614 17.8174 17 15.5828 17 12.8264C17 10.07 14.7614 7.83545 12 7.83545C9.23858 7.83545 7 10.07 7 12.8264C7 15.5828 9.23858 17.8174 12 17.8174Z" fill="#FE19AB"/>
</svg>
