<svg width="16" height="17" viewBox="0 0 16 17" fill="none" xmlns="http://www.w3.org/2000/svg">
    <defs>
        <linearGradient id="paint0_linear_990_14239" x1="16" y1="0.499998" x2="2.31579" y2="16.5" gradientUnits="userSpaceOnUse">
            <stop stop-color="#F7931A"/>
            <stop offset="1" stop-color="#E2820F"/>
        </linearGradient>
        <clipPath id="clip0_990_14239">
            <rect width="11.7895" height="11.7895" fill="white" transform="translate(4.22504 1.06726) rotate(18.0747)"/>
        </clipPath>
    </defs>
    <path d="M8 16.5C12.4183 16.5 16 12.9183 16 8.5C16 4.08172 12.4183 0.5 8 0.5C3.58172 0.5 0 4.08172 0 8.5C0 12.9183 3.58172 16.5 8 16.5Z" fill="url(#paint0_linear_990_14239)"/>
    <g clip-path="url(#clip0_990_14239)">
        <path d="M5.10576 11.4309L4.82 12.3065C4.78845 12.4032 4.8413 12.5072 4.93797 12.5388L5.63845 12.7674C5.6849 12.7825 5.73546 12.7786 5.77902 12.7565C5.82258 12.7344 5.85557 12.6959 5.87072 12.6494L6.15649 11.7738L6.50673 11.8881L6.22097 12.7637C6.18942 12.8604 6.24227 12.9644 6.33893 12.996L7.03941 13.2246C7.08586 13.2398 7.13642 13.2358 7.17998 13.2137C7.22354 13.1916 7.25653 13.1531 7.27169 13.1066L7.55745 12.231L7.61629 12.2502C9.01165 12.7056 10.2453 12.3076 10.6538 11.0558C10.9972 10.0037 10.4795 9.19838 9.68037 8.8469L9.70049 8.78525C10.4353 8.83749 11.1021 8.48773 11.3801 7.63595C11.7303 6.56281 11.1373 5.64846 9.90799 5.24725L9.84355 5.22622L10.1293 4.35062C10.1445 4.30417 10.1406 4.25361 10.1184 4.21005C10.0963 4.16649 10.0578 4.1335 10.0113 4.11835L9.31086 3.88974C9.26442 3.87458 9.21385 3.87849 9.17029 3.90062C9.12673 3.92274 9.09375 3.96126 9.07859 4.0077L8.79283 4.88331L8.39145 4.75231L8.67721 3.87671C8.69237 3.83027 8.68846 3.7797 8.66633 3.73614C8.64421 3.69258 8.60569 3.6596 8.55924 3.64444L7.9099 3.43252C7.86345 3.41736 7.81289 3.42127 7.76933 3.4434C7.72577 3.46552 7.69278 3.50404 7.67762 3.55049L7.39186 4.42609L5.98979 3.97703C5.94334 3.96187 5.89278 3.96579 5.84922 3.98791C5.80566 4.01003 5.77267 4.04855 5.75751 4.095L5.53142 4.78777C5.5001 4.88374 5.55132 4.98804 5.64799 5.01959L6.17799 5.18869C6.31642 5.23489 6.43095 5.33396 6.49659 5.46429C6.56224 5.59463 6.57367 5.74563 6.52839 5.88436L5.2699 9.74051C5.22442 9.87985 5.12546 9.99541 4.99478 10.0618C4.8641 10.1281 4.71241 10.1399 4.57308 10.0944L4.0466 9.93112C4.00016 9.91596 3.94959 9.91988 3.90603 9.942C3.86247 9.96412 3.82949 10.0026 3.81433 10.0491L3.58572 10.7496C3.55417 10.8462 3.60702 10.9503 3.70369 10.9818L5.10576 11.4309ZM8.05151 5.79393L9.25563 6.18691C9.89027 6.39403 10.1491 6.86449 9.96299 7.43468C9.76387 8.0448 9.24885 8.25729 8.33682 7.95964L7.4402 7.66702L8.05151 5.79393V5.79393ZM7.12541 8.63158L8.41429 9.05222C9.21074 9.31215 9.51175 9.85994 9.29594 10.5212C9.07807 11.1888 8.52595 11.3938 7.45281 11.0436L6.44552 10.7148L7.12518 8.63228L7.12541 8.63158Z" fill="white"/>
    </g>
</svg>
