<svg width="16" height="17" viewBox="0 0 16 17" fill="none" xmlns="http://www.w3.org/2000/svg">
    <defs>
        <linearGradient id="paint0_linear_990_14232" x1="1.77778" y1="0.944444" x2="12.4444"
            y2="17.8333" gradientUnits="userSpaceOnUse">
            <stop stop-color="#3A5EE9" />
            <stop offset="1" stop-color="#1943E8" />
        </linearGradient>
    </defs>
    <path
        d="M8 16.5C12.4183 16.5 16 12.9183 16 8.5C16 4.08172 12.4183 0.5 8 0.5C3.58172 0.5 0 4.08172 0 8.5C0 12.9183 3.58172 16.5 8 16.5Z"
        fill="url(#paint0_linear_990_14232)" />
    <path
        d="M8.54046 13.0813C7.81038 13.0813 7.15083 12.9486 6.56179 12.6831C5.97275 12.4176 5.47497 12.0401 5.06846 11.5507C4.66194 11.0612 4.37572 10.4929 4.20979 9.84577H3.10223V8.97466H4.08535C4.07705 8.90829 4.06875 8.84607 4.06046 8.78799C4.06046 8.72162 4.06046 8.65525 4.06046 8.58888C4.06046 8.52251 4.06046 8.45614 4.06046 8.38977C4.06875 8.3234 4.07705 8.26118 4.08535 8.2031H3.10223V7.31955H4.22223C4.38816 6.67244 4.67023 6.10829 5.06846 5.6271C5.47497 5.13762 5.97275 4.76014 6.56179 4.49466C7.15912 4.22918 7.81868 4.09644 8.54046 4.09644C9.30372 4.09644 9.98401 4.23332 10.5813 4.5071C11.187 4.77258 11.6848 5.17081 12.0747 5.70177L10.9173 6.57288C10.6768 6.22444 10.3449 5.95895 9.92179 5.77644C9.50698 5.58562 9.05068 5.49021 8.5529 5.49021C8.12149 5.49021 7.72742 5.56488 7.37068 5.71421C7.02223 5.86355 6.71942 6.0751 6.46223 6.34888C6.21335 6.62266 6.01838 6.94621 5.87735 7.31955H9.06312L8.72712 8.2031H5.67823C5.66994 8.26118 5.66579 8.3234 5.66579 8.38977C5.66579 8.45614 5.66579 8.52251 5.66579 8.58888C5.66579 8.65525 5.66579 8.72162 5.66579 8.78799C5.66579 8.84607 5.66994 8.90829 5.67823 8.97466H8.45335L8.11735 9.84577H5.87735C6.01838 10.2274 6.21335 10.5551 6.46223 10.8289C6.71942 11.1027 7.02223 11.3142 7.37068 11.4635C7.71912 11.6129 8.10905 11.6875 8.54046 11.6875C9.03823 11.6875 9.49868 11.5921 9.92179 11.4013C10.3532 11.2105 10.6892 10.9492 10.9298 10.6173L12.0622 11.476C11.664 11.9987 11.1662 12.3969 10.5689 12.6707C9.97157 12.9444 9.29542 13.0813 8.54046 13.0813Z"
        fill="white" />
</svg>
