<svg width="23" height="23" viewBox="0 0 23 23" fill="none" xmlns="http://www.w3.org/2000/svg">
    <path d="M21.1843 11.2058H13.1941L14.9213 9.65242L14.0201 8.65039L10.4297 11.8796L14.0201 15.1089L14.9213 14.1069L13.1941 12.5535H21.1843V11.2058Z" fill="#FF00A3"/>
    <path d="M7.81461 18.7754C5.84613 18.7754 3.98663 18.5543 2.5786 18.1526C2.1062 18.0179 1.69993 17.8661 1.35551 17.6988C1.35551 18.6007 1.35551 19.1585 1.35551 19.1585C1.35551 20.2818 4.24736 21.1924 7.81465 21.1924C11.3819 21.1924 14.2738 20.2818 14.2738 19.1585C14.2738 19.1585 14.2738 18.6007 14.2738 17.6988C13.9294 17.8661 13.5231 18.0179 13.0507 18.1526C11.6426 18.5542 9.78304 18.7754 7.81461 18.7754ZM7.81461 6.02061C11.9299 6.02061 14.062 5.06431 14.2414 4.67192C14.2433 4.60548 14.2548 4.54155 14.2738 4.48091C14.2738 4.10249 14.2738 3.88637 14.2738 3.88354C14.2738 2.76027 11.3819 1.84961 7.81465 1.84961C4.24736 1.84961 1.35551 2.76027 1.35551 3.88354C1.35551 3.88637 1.35551 4.10244 1.35551 4.48077C1.37452 4.54142 1.38602 4.60539 1.38786 4.67187C1.56732 5.06431 3.69945 6.02061 7.81461 6.02061ZM2.5786 10.5929C2.1062 10.4582 1.69993 10.3064 1.35551 10.1391V12.0459C1.37452 12.1066 1.38602 12.1705 1.38786 12.2371C1.56719 12.6294 3.6994 13.5857 7.81456 13.5857C8.16302 13.5857 8.49692 13.5787 8.81695 13.5659V11.1962C8.48713 11.209 8.15251 11.2157 7.81456 11.2157C5.84613 11.2157 3.98663 10.9945 2.5786 10.5929ZM7.81461 9.80581C8.71228 9.80581 9.51553 9.76031 10.2248 9.68506L13.403 6.69991C13.2899 6.73693 13.1726 6.77287 13.0507 6.80759C11.6426 7.20919 9.78308 7.43039 7.81461 7.43039C5.84613 7.43039 3.98663 7.20924 2.5786 6.80759C2.1062 6.67287 1.69993 6.52108 1.35551 6.35379C1.35551 6.9278 1.35551 7.5749 1.35551 8.26598C1.37452 8.32663 1.38602 8.39059 1.38786 8.45708C1.56732 8.84956 3.69945 9.80581 7.81461 9.80581ZM7.81461 17.3655C10.3771 17.3655 12.1705 16.9948 13.2025 16.6202L10.9412 14.7969C9.97207 14.9269 8.91025 14.9955 7.81456 14.9955C5.84608 14.9955 3.98659 14.7744 2.57856 14.3728C2.10616 14.2381 1.69988 14.0863 1.35547 13.919C1.35547 14.5901 1.35547 15.2335 1.35547 15.8258C1.37447 15.8865 1.38597 15.9505 1.38781 16.0169C1.56732 16.4093 3.69945 17.3655 7.81461 17.3655Z" fill="#FF00A3"/>
</svg>
