<svg width="248" height="153" viewBox="0 0 248 153" fill="none" xmlns="http://www.w3.org/2000/svg">
    <defs>
        <linearGradient id="paint0_linear_987_11512" x1="111.822" y1="15.7833" x2="110.049"
            y2="64.8372" gradientUnits="userSpaceOnUse">
            <stop stop-color="#FF00A3" />
            <stop offset="1" stop-color="#BC00C0" />
        </linearGradient>
        <linearGradient id="paint1_linear_987_11512" x1="239.112" y1="86.7087" x2="208.107"
            y2="154.919" gradientUnits="userSpaceOnUse">
            <stop stop-color="#FF00A3" />
            <stop offset="1" stop-color="#BC00C0" />
        </linearGradient>
        <linearGradient id="paint2_linear_987_11512" x1="214.429" y1="59.0405" x2="188.335"
            y2="85.0942" gradientUnits="userSpaceOnUse">
            <stop stop-color="#FF00A3" />
            <stop offset="1" stop-color="#BC00C0" />
        </linearGradient>
        <linearGradient id="paint3_linear_987_11512" x1="222.126" y1="56.8203" x2="196.826"
            y2="70.4172" gradientUnits="userSpaceOnUse">
            <stop stop-color="#FF00A3" />
            <stop offset="1" stop-color="#BC00C0" />
        </linearGradient>
    </defs>
    <path fill-rule="evenodd" clip-rule="evenodd"
        d="M97.6753 40.5784L107.404 52.4904L107.395 52.367L116.896 51.6362L102.013 34.0387L113.261 15.6727L104.253 16.3655L97.011 28.7139L87.8422 17.6277L78.3411 18.3585L92.417 35.1492L80.5049 54.5593L90.1293 53.819L97.6753 40.5784ZM56.2822 26.8844L57.013 36.3854L72.3134 35.2086L72.8259 41.8717L57.5255 43.0485L58.541 56.2513L50.1504 56.8966L47.3697 20.7432L74.639 18.6459L75.1515 25.3089L56.2728 26.761L56.2822 26.8844ZM25.0628 22.8496L11.9834 23.8556L12.5434 31.1357L23.5251 30.291C29.3244 29.8449 34.5068 34.287 34.9528 40.0864C35.3989 45.8857 30.9568 51.0681 25.1574 51.5142L14.1757 52.3588L14.7357 59.6388L27.4449 58.6613C37.4395 57.8926 44.843 49.2553 44.0742 39.2607C43.315 29.3895 34.8106 22.0999 25.0628 22.8496ZM16.7252 32.1853L15.8615 32.2517C18.8513 34.0077 21.0818 37.1873 21.376 41.0124C21.6702 44.8375 20.0756 48.3115 17.2661 50.5135L18.1298 50.447C23.1888 50.0579 26.9475 45.6728 26.5584 40.6138C26.1693 35.5548 21.7843 31.7961 16.7252 32.1853ZM11.0275 51.7365C16.4567 51.3189 20.5571 46.5352 20.1395 41.1061C19.7219 35.6769 15.0616 31.567 9.50904 31.9941C4.07986 32.4116 -0.0205406 37.1954 0.397041 42.6245C0.814622 48.0537 5.59834 52.1541 11.0275 51.7365Z"
        fill="url(#paint0_linear_987_11512)" />
    <path
        d="M181.425 88.8347C181.568 87.0502 182.415 85.396 183.779 84.2358C185.142 83.0756 186.91 82.5046 188.695 82.6483L226.261 85.6738C228.194 85.8294 229.986 86.7467 231.243 88.2237C232.5 89.7007 233.118 91.6165 232.963 93.5497L232.781 95.8059C236.59 97.5076 239.096 101.472 238.743 105.866L236.394 135.022C236.179 137.698 234.909 140.18 232.864 141.92C230.819 143.66 228.166 144.517 225.489 144.301L187.363 141.23C184.686 141.015 182.205 139.745 180.464 137.7C178.724 135.655 177.868 133.002 178.083 130.325L181.38 89.3953L181.402 89.3972C181.402 89.2094 181.409 89.0218 181.425 88.8347V88.8347ZM228.477 93.1884C228.602 91.6409 227.447 90.2839 225.899 90.1592L188.334 87.1338C187.739 87.0859 187.149 87.2762 186.695 87.663C186.24 88.0497 185.958 88.6011 185.91 89.1959C185.862 89.7907 186.053 90.3802 186.439 90.8347C186.826 91.2891 187.378 91.5714 187.972 91.6193L228.342 94.8705L228.477 93.1884ZM219.627 118.999C219.032 118.951 218.442 119.141 217.988 119.528C217.533 119.915 217.251 120.466 217.203 121.061C217.155 121.656 217.346 122.245 217.732 122.7C218.119 123.154 218.671 123.436 219.265 123.484L225.994 124.026C226.588 124.074 227.178 123.884 227.632 123.497C228.087 123.11 228.369 122.559 228.417 121.964C228.465 121.369 228.274 120.78 227.888 120.325C227.501 119.871 226.95 119.589 226.355 119.541L219.627 118.999Z"
        fill="url(#paint1_linear_987_11512)" />
    <g opacity="0.6">
        <path d="M131 27.3637C168.01 20.4966 200.5 37.4999 209.5 68.0023"
            stroke="url(#paint2_linear_987_11512)" stroke-width="3" stroke-miterlimit="10"
            stroke-linecap="round" />
        <path d="M217.981 53.5143L210.959 71.4423L193 62.9398"
            stroke="url(#paint3_linear_987_11512)" stroke-width="3" stroke-miterlimit="10"
            stroke-linecap="round" />
    </g>

</svg>
