<svg width="57" height="57" viewBox="0 0 57 57" fill="none" xmlns="http://www.w3.org/2000/svg">
    <defs>
        <linearGradient id="paint0_linear_987_11512" x1="34.191" y1="-10.3481" x2="53.1934"
            y2="59.2959" gradientUnits="userSpaceOnUse">
            <stop stop-color="#FF00A3" />
            <stop offset="1" stop-color="#BC00C0" />
        </linearGradient>
        <clipPath id="clip0_987_11512">
            <rect width="41.5311" height="41.5311" fill="white"
                transform="translate(2.32599 14.4902) rotate(-17.0265)" />
        </clipPath>
    </defs>
    <path
        d="M44.467 51.3222C57.2008 42.3723 60.2683 24.7942 51.3184 12.0604C42.3686 -0.673455 24.7905 -3.74096 12.0566 5.2089C-0.677195 14.1588 -3.7447 31.7369 5.20516 44.4707C14.155 57.2045 31.7331 60.272 44.467 51.3222Z"
        fill="url(#paint0_linear_987_11512)" />
    <g clip-path="url(#clip0_987_11512)">
        <path
            d="M25.8573 42.5757L26.8074 45.6781C26.9123 46.0206 27.2754 46.2135 27.6179 46.1086L30.0998 45.3485C30.2644 45.2981 30.4022 45.1844 30.4829 45.0324C30.5637 44.8804 30.5807 44.7026 30.5303 44.538L29.5802 41.4356L30.8212 41.0556L31.7713 44.158C31.8762 44.5005 32.2393 44.6934 32.5818 44.5885L35.0637 43.8284C35.2282 43.778 35.3661 43.6643 35.4468 43.5123C35.5275 43.3603 35.5445 43.1825 35.4942 43.0179L34.5441 39.9155L34.7526 39.8517C39.6966 38.3376 42.4457 34.6915 41.0875 30.2563C39.9459 26.5285 36.8226 25.2562 33.8074 25.8619L33.7406 25.6435C35.9641 24.3056 37.1773 21.9469 36.2531 18.9289C35.0887 15.1266 31.5276 13.6925 27.1719 15.0264L26.9435 15.0963L25.9935 11.9939C25.9431 11.8293 25.8294 11.6915 25.6774 11.6108C25.5254 11.5301 25.3475 11.513 25.183 11.5634L22.701 12.3235C22.5365 12.3739 22.3987 12.4876 22.318 12.6396C22.2372 12.7916 22.2202 12.9694 22.2706 13.134L23.2207 16.2364L21.7985 16.6719L20.8484 13.5695C20.798 13.4049 20.6843 13.2671 20.5323 13.1864C20.3803 13.1056 20.2025 13.0886 20.0379 13.139L17.7372 13.8436C17.5726 13.894 17.4348 14.0077 17.3541 14.1597C17.2734 14.3117 17.2563 14.4895 17.3067 14.6541L18.2568 17.7565L13.3063 19.3024C13.1417 19.3528 13.0039 19.4665 12.9232 19.6185C12.8425 19.7705 12.8254 19.9483 12.8758 20.1129L13.6275 22.5675C13.7316 22.9075 14.0905 23.1044 14.433 22.9995L16.3031 22.4132C16.7956 22.266 17.3264 22.3195 17.7796 22.5622C18.2328 22.8048 18.5716 23.2169 18.7222 23.7084L22.9063 37.3714C23.0574 37.8651 23.0063 38.3986 22.7641 38.8546C22.522 39.3106 22.1085 39.6517 21.6149 39.8029L19.7667 40.3987C19.6022 40.4491 19.4644 40.5628 19.3837 40.7148C19.3029 40.8668 19.2859 41.0446 19.3363 41.2092L20.0963 43.6911C20.2012 44.0336 20.5643 44.2265 20.9068 44.1216L25.8573 42.5757ZM22.9287 20.3625L27.1951 19.056C29.4438 18.3673 31.1426 19.199 31.7613 21.2193C32.4233 23.381 31.3694 25.0367 28.138 26.0263L24.9611 26.9992L22.9287 20.3625ZM26.0077 30.4168L30.5744 29.0183C33.3964 28.1541 35.3735 29.1231 36.091 31.4661C36.8153 33.8313 35.6394 35.5406 31.8371 36.705L28.2681 37.798L26.0085 30.4192L26.0077 30.4168Z"
            fill="white" />
    </g>

</svg>
