<svg width="63" height="28" viewBox="0 0 63 28" fill="none" xmlns="http://www.w3.org/2000/svg">
    <defs>
        <linearGradient id="paint0_linear_2309_19821" x1="61.2599" y1="8.68085" x2="54.1984"
            y2="33.7012" gradientUnits="userSpaceOnUse">
            <stop stop-color="#FF00A3" />
            <stop offset="1" stop-color="#BC00C0" />
        </linearGradient>
    </defs>
    <path fill-rule="evenodd" clip-rule="evenodd"
        d="M31.2822 7.4288L30.4669 12.4106L38.4896 13.7235L37.9179 17.2173L29.8952 15.9044L28.7623 22.8272L24.3627 22.1072L27.465 3.15036L41.7635 5.4903L41.1917 8.98406L31.2928 7.3641L31.2822 7.4288ZM15.7214 1.43464L8.86331 0.312319L8.23862 4.12957L13.9968 5.07189C17.0377 5.56952 19.148 8.50573 18.6504 11.5466C18.1528 14.5875 15.2166 16.6978 12.1757 16.2002L6.41749 15.2578L5.79281 19.0751L12.4568 20.1656C17.6975 21.0233 22.5911 17.506 23.4487 12.2654C24.2958 7.08946 20.8327 2.27109 15.7214 1.43464ZM50.869 19.6709L54.3827 27.0219L54.3933 26.9572L59.3751 27.7725L53.9217 16.8489L62.0139 8.80624L57.2909 8.03332L52.0149 13.4809L48.6859 6.62513L43.704 5.80985L48.8434 16.2171L40.2783 24.7138L45.3248 25.5396L50.869 19.6709ZM10.2581 5.19802L9.80517 5.12391C11.1238 6.40262 11.8732 8.3189 11.5449 10.3246C11.2167 12.3302 9.96035 13.9183 8.23816 14.6994L8.69105 14.7735C11.3437 15.2076 13.8282 13.4219 14.2623 10.7693C14.6964 8.1166 12.9107 5.63213 10.2581 5.19802ZM4.87468 14.5418C7.72145 15.0076 10.4318 13.0596 10.8977 10.2129C11.3635 7.36611 9.48021 4.66636 6.56875 4.18991C3.72199 3.72404 1.01165 5.67204 0.545777 8.51881C0.0799084 11.3656 2.02792 14.0759 4.87468 14.5418Z"
        fill="url(#paint0_linear_2309_19821)" />

</svg>
