<svg width="38" height="38" viewBox="0 0 38 38" fill="none" xmlns="http://www.w3.org/2000/svg">
    <defs>
        <linearGradient id="paint0_linear_2309_19820" x1="29.1879" y1="-2.92982" x2="23.3493"
            y2="40.1001" gradientUnits="userSpaceOnUse">
            <stop stop-color="#FF00A3" />
            <stop offset="1" stop-color="#BC00C0" />
        </linearGradient>
    </defs>
    <path
        d="M11.9802 1.56024C12.4295 1.04756 13.0302 0.690935 13.6954 0.541865C14.3606 0.392796 15.056 0.458991 15.6812 0.730895L31.1641 7.46052C33.2021 8.34464 32.9209 11.3171 30.7561 11.8079L3.0722 18.0115C0.90492 18.4915 -0.616027 15.9229 0.847957 14.254L11.9784 1.56064L11.9802 1.56024ZM17.2009 7.78172C17.0944 7.30615 16.8032 6.8924 16.3916 6.63148C15.98 6.37057 15.4816 6.28385 15.006 6.39042C14.5304 6.49699 14.1167 6.78811 13.8558 7.19974C13.5949 7.61137 13.5081 8.10978 13.6147 8.58535C13.7213 9.06091 14.0124 9.47466 14.424 9.73558C14.8356 9.9965 15.3341 10.0832 15.8096 9.97664C16.2852 9.87008 16.6989 9.57896 16.9599 9.16733C17.2208 8.7557 17.3075 8.25728 17.2009 7.78172ZM17.9807 25.9677L14.3945 26.7714L12.3854 17.8058L15.9716 17.0022L17.9807 25.9677ZM24.2566 24.5614L20.6703 25.365L18.6613 16.3995L22.2475 15.5958L24.2566 24.5614ZM30.9807 23.0546L26.9462 23.9587L24.9372 14.9931L28.9717 14.089L30.9807 23.0546ZM31.8308 24.7472L7.62383 30.1717C6.55381 30.4115 5.62287 31.0665 5.0358 31.9927C4.44874 32.9189 4.25363 34.0403 4.49341 35.1103L4.69432 36.0069C4.86107 36.751 5.59817 37.2167 6.34051 37.0504L35.9269 30.4204C36.2835 30.3405 36.5938 30.1221 36.7895 29.8134C36.9852 29.5047 37.0503 29.1309 36.9703 28.7742L36.7694 27.8776C36.5296 26.8076 35.8746 25.8767 34.9485 25.2896C34.0223 24.7026 32.9008 24.5075 31.8308 24.7472ZM11.7048 27.3741L7.67029 28.2782L5.66121 19.3126L9.69571 18.4085L11.7048 27.3741Z"
        fill="url(#paint0_linear_2309_19820)" />

</svg>
