<svg width="105" height="166" viewBox="0 0 105 166" fill="none" xmlns="http://www.w3.org/2000/svg">
    <defs>
        <linearGradient id="paint0_linear_987_11512" x1="69.9639" y1="120" x2="68.5596" y2="136.218"
            gradientUnits="userSpaceOnUse">
            <stop stop-color="#FF00A3" />
            <stop offset="1" stop-color="#BC00C0" />
        </linearGradient>
        <linearGradient id="paint1_linear_987_11512" x1="82.4953" y1="138.633" x2="77.8172"
            y2="174.777" gradientUnits="userSpaceOnUse">
            <stop stop-color="#FF00A3" />
            <stop offset="1" stop-color="#BC00C0" />
        </linearGradient>
        <linearGradient id="paint2_linear_987_11512" x1="19.116" y1="145.393" x2="10.7019"
            y2="158.156" gradientUnits="userSpaceOnUse">
            <stop stop-color="#FF00A3" />
            <stop offset="1" stop-color="#BC00C0" />
        </linearGradient>
        <linearGradient id="paint3_linear_987_11512" x1="14.2471" y1="144.843" x2="7.9278"
            y2="162.358" gradientUnits="userSpaceOnUse">
            <stop stop-color="#FF00A3" />
            <stop offset="1" stop-color="#BC00C0" />
        </linearGradient>
        <linearGradient id="paint4_linear_987_11512" x1="91.0171" y1="69.6433" x2="62.3152"
            y2="95.9991" gradientUnits="userSpaceOnUse">
            <stop stop-color="#FF00A3" />
            <stop offset="1" stop-color="#BC00C0" />
        </linearGradient>
        <linearGradient id="paint5_linear_987_11512" x1="95.1066" y1="55.1568" x2="78.7616"
            y2="78.7749" gradientUnits="userSpaceOnUse">
            <stop stop-color="#FF00A3" />
            <stop offset="1" stop-color="#BC00C0" />
        </linearGradient>
    </defs>
    <path
        d="M21.6906 124.155H22.7061V124.957H22.7527C22.8583 124.665 23.0291 124.441 23.2651 124.286C23.5073 124.124 23.7899 124.044 24.1129 124.044C24.7278 124.044 25.203 124.267 25.5384 124.714C25.8738 125.155 26.0415 125.776 26.0415 126.578C26.0415 127.379 25.8738 128.003 25.5384 128.45C25.203 128.891 24.7278 129.112 24.1129 129.112C23.7899 129.112 23.5073 129.031 23.2651 128.87C23.0291 128.708 22.8583 128.484 22.7527 128.199H22.7061V130.863H21.6906V124.155ZM23.8055 128.236C24.1595 128.236 24.4421 128.124 24.6533 127.901C24.8645 127.671 24.97 127.37 24.97 126.997V126.158C24.97 125.786 24.8645 125.488 24.6533 125.264C24.4421 125.034 24.1595 124.919 23.8055 124.919C23.4949 124.919 23.234 124.997 23.0229 125.152C22.8117 125.301 22.7061 125.5 22.7061 125.748V127.407C22.7061 127.655 22.8117 127.857 23.0229 128.012C23.234 128.161 23.4949 128.236 23.8055 128.236ZM29.1048 129.112C28.7694 129.112 28.4619 129.053 28.1824 128.935C27.9091 128.817 27.6762 128.649 27.4837 128.432C27.2911 128.208 27.142 127.941 27.0365 127.63C26.9309 127.314 26.8781 126.963 26.8781 126.578C26.8781 126.193 26.9309 125.845 27.0365 125.534C27.142 125.217 27.2911 124.95 27.4837 124.733C27.6762 124.509 27.9091 124.339 28.1824 124.221C28.4619 124.103 28.7694 124.044 29.1048 124.044C29.4402 124.044 29.7445 124.103 30.0178 124.221C30.2973 124.339 30.5333 124.509 30.7259 124.733C30.9184 124.95 31.0675 125.217 31.1731 125.534C31.2787 125.845 31.3315 126.193 31.3315 126.578C31.3315 126.963 31.2787 127.314 31.1731 127.63C31.0675 127.941 30.9184 128.208 30.7259 128.432C30.5333 128.649 30.2973 128.817 30.0178 128.935C29.7445 129.053 29.4402 129.112 29.1048 129.112ZM29.1048 128.273C29.4526 128.273 29.7321 128.168 29.9433 127.957C30.1544 127.739 30.26 127.416 30.26 126.988V126.168C30.26 125.739 30.1544 125.419 29.9433 125.208C29.7321 124.991 29.4526 124.882 29.1048 124.882C28.7569 124.882 28.4774 124.991 28.2663 125.208C28.0551 125.419 27.9495 125.739 27.9495 126.168V126.988C27.9495 127.416 28.0551 127.739 28.2663 127.957C28.4774 128.168 28.7569 128.273 29.1048 128.273ZM31.9148 124.155H32.9024L33.3962 126.186L33.8341 128.022H33.862L34.3651 126.186L34.9521 124.155H35.8651L36.4614 126.186L36.9738 128.022H37.0018L37.4303 126.186L37.9334 124.155H38.8744L37.5701 129H36.4241L35.7906 126.792L35.3993 125.432H35.3806L34.9987 126.792L34.3558 129H33.2378L31.9148 124.155ZM41.6787 129.112C41.3308 129.112 41.0203 129.053 40.747 128.935C40.4737 128.817 40.2408 128.649 40.0482 128.432C39.8557 128.208 39.7066 127.941 39.601 127.63C39.5017 127.314 39.452 126.963 39.452 126.578C39.452 126.193 39.5017 125.845 39.601 125.534C39.7066 125.217 39.8557 124.95 40.0482 124.733C40.2408 124.509 40.4737 124.339 40.747 124.221C41.0203 124.103 41.3308 124.044 41.6787 124.044C42.0327 124.044 42.3433 124.106 42.6103 124.23C42.8836 124.354 43.1103 124.528 43.2904 124.752C43.4706 124.969 43.6041 125.224 43.6911 125.516C43.7842 125.807 43.8308 126.121 43.8308 126.457V126.839H40.5048V126.997C40.5048 127.37 40.6135 127.677 40.8308 127.919C41.0544 128.155 41.3712 128.273 41.7811 128.273C42.0793 128.273 42.3308 128.208 42.5358 128.078C42.7408 127.947 42.9147 127.77 43.0575 127.547L43.6538 128.134C43.4737 128.432 43.2128 128.671 42.8712 128.851C42.5296 129.025 42.1321 129.112 41.6787 129.112ZM41.6787 124.835C41.5047 124.835 41.3433 124.866 41.1942 124.929C41.0513 124.991 40.9271 125.078 40.8215 125.189C40.7221 125.301 40.6445 125.435 40.5886 125.59C40.5327 125.745 40.5048 125.916 40.5048 126.103V126.168H42.7594V126.075C42.7594 125.702 42.6631 125.404 42.4706 125.18C42.278 124.95 42.0141 124.835 41.6787 124.835ZM44.955 129V124.155H45.9705V125.087H46.0171C46.0854 124.839 46.2283 124.621 46.4457 124.435C46.6631 124.248 46.9643 124.155 47.3494 124.155H47.6196V125.134H47.219C46.8152 125.134 46.5047 125.199 46.2873 125.329C46.0761 125.46 45.9705 125.652 45.9705 125.907V129H44.955ZM50.3767 129.112C50.0288 129.112 49.7183 129.053 49.445 128.935C49.1717 128.817 48.9388 128.649 48.7462 128.432C48.5537 128.208 48.4046 127.941 48.299 127.63C48.1997 127.314 48.15 126.963 48.15 126.578C48.15 126.193 48.1997 125.845 48.299 125.534C48.4046 125.217 48.5537 124.95 48.7462 124.733C48.9388 124.509 49.1717 124.339 49.445 124.221C49.7183 124.103 50.0288 124.044 50.3767 124.044C50.7307 124.044 51.0413 124.106 51.3083 124.23C51.5816 124.354 51.8083 124.528 51.9885 124.752C52.1686 124.969 52.3021 125.224 52.3891 125.516C52.4822 125.807 52.5288 126.121 52.5288 126.457V126.839H49.2028V126.997C49.2028 127.37 49.3115 127.677 49.5288 127.919C49.7525 128.155 50.0692 128.273 50.4792 128.273C50.7773 128.273 51.0288 128.208 51.2338 128.078C51.4388 127.947 51.6127 127.77 51.7555 127.547L52.3518 128.134C52.1717 128.432 51.9108 128.671 51.5692 128.851C51.2276 129.025 50.8301 129.112 50.3767 129.112ZM50.3767 124.835C50.2028 124.835 50.0413 124.866 49.8922 124.929C49.7493 124.991 49.6251 125.078 49.5195 125.189C49.4202 125.301 49.3425 125.435 49.2866 125.59C49.2307 125.745 49.2028 125.916 49.2028 126.103V126.168H51.4574V126.075C51.4574 125.702 51.3611 125.404 51.1686 125.18C50.976 124.95 50.7121 124.835 50.3767 124.835ZM56.6996 128.199H56.653C56.5474 128.484 56.3735 128.708 56.1313 128.87C55.8952 129.031 55.6157 129.112 55.2928 129.112C54.6779 129.112 54.2027 128.891 53.8673 128.45C53.5319 128.003 53.3642 127.379 53.3642 126.578C53.3642 125.776 53.5319 125.155 53.8673 124.714C54.2027 124.267 54.6779 124.044 55.2928 124.044C55.6157 124.044 55.8952 124.124 56.1313 124.286C56.3735 124.441 56.5474 124.665 56.653 124.957H56.6996V122.106H57.7151V129H56.6996V128.199ZM55.6002 128.236C55.9108 128.236 56.1716 128.161 56.3828 128.012C56.594 127.857 56.6996 127.655 56.6996 127.407V125.748C56.6996 125.5 56.594 125.301 56.3828 125.152C56.1716 124.997 55.9108 124.919 55.6002 124.919C55.2462 124.919 54.9636 125.034 54.7524 125.264C54.5412 125.488 54.4356 125.786 54.4356 126.158V126.997C54.4356 127.37 54.5412 127.671 54.7524 127.901C54.9636 128.124 55.2462 128.236 55.6002 128.236ZM61.3684 122.106H62.3839V124.957H62.4305C62.5361 124.665 62.7069 124.441 62.9429 124.286C63.1852 124.124 63.4678 124.044 63.7907 124.044C64.4056 124.044 64.8808 124.267 65.2162 124.714C65.5516 125.155 65.7193 125.776 65.7193 126.578C65.7193 127.379 65.5516 128.003 65.2162 128.45C64.8808 128.891 64.4056 129.112 63.7907 129.112C63.4678 129.112 63.1852 129.031 62.9429 128.87C62.7069 128.708 62.5361 128.484 62.4305 128.199H62.3839V129H61.3684V122.106ZM63.4833 128.236C63.8373 128.236 64.1199 128.124 64.3311 127.901C64.5423 127.671 64.6479 127.37 64.6479 126.997V126.158C64.6479 125.786 64.5423 125.488 64.3311 125.264C64.1199 125.034 63.8373 124.919 63.4833 124.919C63.1727 124.919 62.9119 124.997 62.7007 125.152C62.4895 125.301 62.3839 125.5 62.3839 125.748V127.407C62.3839 127.655 62.4895 127.857 62.7007 128.012C62.9119 128.161 63.1727 128.236 63.4833 128.236ZM69.7903 124.155H70.7686L68.7282 129.96C68.6723 130.121 68.6071 130.258 68.5326 130.37C68.4643 130.488 68.3804 130.581 68.281 130.649C68.1879 130.724 68.073 130.776 67.9363 130.807C67.7997 130.845 67.6382 130.863 67.4518 130.863H66.8649V130.034H67.6848L67.9643 129.214L66.2034 124.155H67.2189L68.1879 127.006L68.4674 128.059H68.5139L68.8214 127.006L69.7903 124.155Z"
        fill="url(#paint0_linear_987_11512)" />
    <path fill-rule="evenodd" clip-rule="evenodd"
        d="M70.5525 155.987L77.0036 165.255V165.164H84L74.0961 151.444L83.364 138.633H76.7311L70.7342 147.265L64.6464 138.633H57.6501L67.0088 151.717L57.1958 165.255H64.283L70.5525 155.987ZM18.3954 138.909H8.76404V144.27H16.8507C21.1212 144.27 24.6649 147.814 24.6649 152.084C24.6649 156.355 21.1212 159.898 16.8507 159.898H8.76404V165.259H18.1228C25.4826 165.259 31.3886 159.353 31.3886 151.993C31.3886 144.724 25.5735 138.909 18.3954 138.909ZM40.1785 143.997V150.994H51.4454V155.9H40.1785V165.622H33.9999V139H54.0804V143.907H40.1785V143.997Z"
        fill="url(#paint1_linear_987_11512)" />
    <path
        d="M12.5394 145.393C12.3577 145.393 12.176 145.393 11.9034 145.393C13.9932 146.846 15.447 149.3 15.447 152.116C15.447 154.933 14.0841 157.386 11.9034 158.84C12.0851 158.84 12.2668 158.84 12.5394 158.84C16.2647 158.84 19.2632 155.842 19.2632 152.116C19.2632 148.391 16.2647 145.393 12.5394 145.393Z"
        fill="url(#paint2_linear_987_11512)" />
    <path
        d="M14.5379 152.112C14.5379 156.11 11.2669 159.381 7.26895 159.381C3.27103 159.381 0 156.11 0 152.112C0 148.114 3.27103 144.843 7.26895 144.843C11.3577 144.843 14.5379 148.114 14.5379 152.112Z"
        fill="url(#paint3_linear_987_11512)" />
    <g opacity="0.6">
        <path d="M3.99997 32.1535C39.5867 33.8318 67.8238 41.4121 90.5033 73.042"
            stroke="url(#paint4_linear_987_11512)" stroke-width="3" stroke-miterlimit="10"
            stroke-linecap="round" />
        <path d="M89.9112 54.0984L91.814 73.2581L71.9523 73.8568"
            stroke="url(#paint5_linear_987_11512)" stroke-width="3" stroke-miterlimit="10"
            stroke-linecap="round" />
    </g>
</svg>
