<svg width="32" height="32" viewBox="0 0 32 32" fill="none" xmlns="http://www.w3.org/2000/svg">
    <path
        d="M29.4741 15.5905H18.3574L20.7605 13.4293L19.5065 12.0352L14.5112 16.528L19.5065 21.0209L20.7605 19.6268L18.3574 17.4655H29.4741V15.5905Z"
        fill="#474747" />
    <path
        d="M10.8729 26.1232C8.13411 26.1232 5.54698 25.8155 3.58798 25.2567C2.93073 25.0692 2.36548 24.858 1.88629 24.6253C1.88629 25.88 1.88629 26.6562 1.88629 26.6562C1.88629 28.219 5.90973 29.486 10.8729 29.486C15.8361 29.486 19.8595 28.219 19.8595 26.6562C19.8595 26.6562 19.8595 25.88 19.8595 24.6253C19.3804 24.858 18.8151 25.0692 18.1579 25.2567C16.1987 25.8154 13.6115 26.1232 10.8729 26.1232ZM10.8729 8.37734C16.5984 8.37734 19.5649 7.04684 19.8145 6.50091C19.8171 6.40847 19.8331 6.31953 19.8595 6.23516C19.8595 5.70866 19.8595 5.40797 19.8595 5.40403C19.8595 3.84122 15.8361 2.57422 10.8729 2.57422C5.90973 2.57422 1.88629 3.84122 1.88629 5.40403C1.88629 5.40797 1.88629 5.70859 1.88629 6.23497C1.91273 6.31934 1.92873 6.40834 1.93129 6.50084C2.18098 7.04684 5.14742 8.37734 10.8729 8.37734ZM3.58798 14.7388C2.93073 14.5513 2.36548 14.3402 1.88629 14.1074V16.7604C1.91273 16.8448 1.92873 16.9338 1.93129 17.0263C2.18079 17.5722 5.14735 18.9027 10.8728 18.9027C11.3576 18.9027 11.8222 18.893 12.2674 18.8752V15.5782C11.8085 15.596 11.343 15.6053 10.8728 15.6053C8.1341 15.6053 5.54698 15.2976 3.58798 14.7388ZM10.8729 13.6437C12.1218 13.6437 13.2394 13.5804 14.2262 13.4757L18.648 9.32247C18.4906 9.37397 18.3274 9.42397 18.1579 9.47228C16.1987 10.031 13.6116 10.3388 10.8729 10.3388C8.13411 10.3388 5.54698 10.0311 3.58798 9.47228C2.93073 9.28484 2.36548 9.07366 1.88629 8.84091C1.88629 9.63953 1.88629 10.5398 1.88629 11.5013C1.91273 11.5857 1.92873 11.6747 1.93129 11.7672C2.18098 12.3133 5.14742 13.6437 10.8729 13.6437ZM10.8729 24.1616C14.4381 24.1616 16.9333 23.6457 18.3691 23.1246L15.2229 20.5878C13.8745 20.7687 12.3972 20.8642 10.8728 20.8642C8.13404 20.8642 5.54692 20.5565 3.58792 19.9978C2.93067 19.8104 2.36542 19.5992 1.88623 19.3664C1.88623 20.3001 1.88623 21.1953 1.88623 22.0194C1.91267 22.1038 1.92867 22.1928 1.93123 22.2853C2.18098 22.8312 5.14742 24.1616 10.8729 24.1616Z"
        fill="#474747" />
</svg>
