<svg width="16" height="15" viewBox="0 0 16 15" fill="none" xmlns="http://www.w3.org/2000/svg">
    <defs>
        <linearGradient id="paint0_linear_3291_4377" x1="15.0401" y1="0.733398" x2="9.66375"
            y2="17.1247" gradientUnits="userSpaceOnUse">
            <stop stop-color="#FF00A3" />
            <stop offset="1" stop-color="#BC00C0" />
        </linearGradient>
        <linearGradient id="paint1_linear_3291_4377" x1="15.0401" y1="0.733398" x2="9.66375"
            y2="17.1247" gradientUnits="userSpaceOnUse">
            <stop stop-color="#FF00A3" />
            <stop offset="1" stop-color="#BC00C0" />
        </linearGradient>
    </defs>
    <path d="M1.39279 4.09216V5.049L2.07378 4.37685L3.50192 2.96725C3.502 2.96717 3.50209 2.96708 3.50217 2.967C4.69576 1.79332 6.31303 1.1334 8.00008 1.1334C9.68699 1.1334 11.3041 1.79321 12.4977 2.9667C12.5274 2.99627 12.5431 3.03512 12.5431 3.07452C12.5431 3.11406 12.5273 3.15305 12.4974 3.18265L12.4974 3.18263L12.4945 3.18556C12.4802 3.19998 12.4628 3.21172 12.4433 3.21984C12.4238 3.22796 12.4026 3.23221 12.3811 3.23221C12.3596 3.23221 12.3384 3.22796 12.3188 3.21984C12.2993 3.21172 12.282 3.19998 12.2677 3.18556L12.2677 3.18553L12.2639 3.18176C11.1307 2.06758 9.5974 1.44291 8.00008 1.44291C6.40277 1.44291 4.8695 2.06758 3.73628 3.18176L3.73573 3.18231L2.30707 4.59242L1.61337 5.2771H2.58805H4.60789C4.6528 5.2771 4.69483 5.29476 4.72501 5.32455C4.75502 5.35417 4.77091 5.39322 4.77091 5.43281C4.77091 5.47241 4.75502 5.51146 4.72501 5.54107C4.69483 5.57086 4.6528 5.58852 4.60789 5.58852H1.22977C1.18486 5.58852 1.14282 5.57086 1.11264 5.54107C1.08264 5.51146 1.06675 5.47241 1.06675 5.43281V2.09856C1.06675 2.05896 1.08264 2.01991 1.11264 1.9903C1.14282 1.96051 1.18486 1.94285 1.22977 1.94285C1.27468 1.94285 1.31671 1.96051 1.34689 1.9903C1.3769 2.01991 1.39279 2.05896 1.39279 2.09856V4.09216ZM13.6931 10.2048L14.3868 9.52016H13.4121H11.3923C11.3474 9.52016 11.3053 9.5025 11.2751 9.47271C11.2451 9.4431 11.2293 9.40405 11.2293 9.36445C11.2293 9.32486 11.2451 9.28581 11.2751 9.25619C11.3053 9.2264 11.3474 9.20874 11.3923 9.20874H14.7704C14.8153 9.20874 14.8573 9.2264 14.8875 9.25619C14.9175 9.28581 14.9334 9.32485 14.9334 9.36445V12.6987C14.9334 12.7383 14.9175 12.7774 14.8875 12.807C14.8573 12.8368 14.8153 12.8544 14.7704 12.8544C14.7255 12.8544 14.6835 12.8368 14.6533 12.807C14.6233 12.7774 14.6074 12.7383 14.6074 12.6987V10.7051V9.74827L13.9264 10.4204L12.4979 11.8303C11.3053 13.0057 9.68768 13.6667 8.00008 13.6667C6.31267 13.6667 4.69525 13.0058 3.50262 11.8307C3.47281 11.8011 3.45703 11.7622 3.45703 11.7227C3.45703 11.6832 3.47287 11.6442 3.50278 11.6146L3.5028 11.6146L3.50569 11.6117C3.51997 11.5973 3.53732 11.5855 3.55685 11.5774L3.40337 11.208L3.55685 11.5774C3.57639 11.5693 3.59756 11.5651 3.61908 11.5651C3.6406 11.5651 3.66178 11.5693 3.68132 11.5774L3.8348 11.208L3.68132 11.5774C3.70085 11.5855 3.71819 11.5973 3.73248 11.6117L3.73245 11.6117L3.73628 11.6155C4.8695 12.7297 6.40277 13.3544 8.00008 13.3544C9.5974 13.3544 11.1307 12.7297 12.2639 11.6155L12.2644 11.615L13.6931 10.2048Z" fill="url(#paint0_linear_3291_4377)" stroke="url(#paint1_linear_3291_4377)" stroke-width="0.8"/>
</svg>
