<svg width="16" height="17" viewBox="0 0 16 17" fill="none" xmlns="http://www.w3.org/2000/svg">
    <defs>
        <linearGradient id="paint0_linear_1682_11963" x1="11.84" y1="4" x2="7.07402" y2="15.0079"
            gradientUnits="userSpaceOnUse">
            <stop stop-color="#FF00A3" />
            <stop offset="1" stop-color="#BC00C0" />
        </linearGradient>
        <linearGradient id="paint1_linear_1682_11963" x1="11.84" y1="4" x2="7.07402" y2="15.0079"
            gradientUnits="userSpaceOnUse">
            <stop stop-color="#FF00A3" />
            <stop offset="1" stop-color="#BC00C0" />
        </linearGradient>
        <linearGradient id="paint2_linear_1682_11963" x1="15.68" y1="0.800048" x2="-3.71025"
            y2="28.9928" gradientUnits="userSpaceOnUse">
            <stop stop-color="#FF00A3" />
            <stop offset="1" stop-color="#BC00C0" />
        </linearGradient>
    </defs>
    <path
        d="M11.2027 8.59646L11.4582 8.49747V8.22348C11.4582 7.17456 11.1102 6.2568 10.4914 5.59794C9.87106 4.9374 8.99932 4.55988 8.00099 4.55988C7.00266 4.55988 6.13093 4.9374 5.51058 5.59794C4.89179 6.2568 4.54378 7.17456 4.54378 8.22348V8.49747L4.79927 8.59646C6.86178 9.3956 9.14021 9.3956 11.2027 8.59646ZM5.81412 9.37534V9.07776L5.5291 8.99222L4.75143 8.75883C4.56167 8.67326 4.42447 8.48345 4.40312 8.25534C4.41042 5.88323 6.02638 4.4 8.00099 4.4C9.97324 4.4 11.5877 5.87968 11.5988 8.24681C11.5674 8.46755 11.4332 8.65876 11.2388 8.76236L10.4729 8.99222L10.1879 9.07776V9.37534V10.4792C10.1879 10.6647 10.2593 10.8348 10.3919 10.9557C10.5179 11.0705 10.6762 11.1204 10.823 11.1204C10.9698 11.1204 11.1282 11.0705 11.2542 10.9557C11.3868 10.8348 11.4582 10.6647 11.4582 10.4792C11.4582 10.4492 11.4636 10.4337 11.4661 10.4277C11.4686 10.4218 11.4711 10.419 11.4736 10.4168C11.4798 10.4112 11.4981 10.4005 11.5285 10.4005C11.559 10.4005 11.5773 10.4112 11.5835 10.4168C11.586 10.419 11.5885 10.4218 11.591 10.4277C11.5935 10.4337 11.5989 10.4492 11.5989 10.4792V10.4878L11.5993 10.4965C11.618 10.9291 11.2794 11.2791 10.8701 11.2791H10.823H10.8141L10.8052 11.2795C10.3994 11.2976 10.0472 10.963 10.0472 10.5272V9.6633V9.2633H9.64719H9.17685H8.77684V9.6633V12.399C8.77684 12.5844 8.84828 12.7546 8.98087 12.8755C9.10685 12.9903 9.26523 13.0401 9.41202 13.0401C9.5588 13.0401 9.71718 12.9903 9.84316 12.8755C9.97575 12.7546 10.0472 12.5844 10.0472 12.399C10.0472 12.369 10.0525 12.3534 10.0551 12.3475C10.0576 12.3416 10.0601 12.3387 10.0625 12.3365C10.0687 12.3309 10.0871 12.3202 10.1175 12.3202C10.1479 12.3202 10.1663 12.3309 10.1725 12.3365C10.1749 12.3387 10.1774 12.3416 10.18 12.3475C10.1825 12.3534 10.1879 12.369 10.1879 12.399V12.4076L10.1882 12.4162C10.2069 12.8489 9.86842 13.1988 9.45905 13.1988H9.41202H9.40276L9.39352 13.1992C9.29395 13.2039 9.19436 13.1873 9.101 13.1503C9.00762 13.1133 8.92222 13.0567 8.85049 12.9835C8.77874 12.9103 8.72226 12.8221 8.68512 12.7244C8.64797 12.6267 8.6311 12.5219 8.63577 12.4167L8.63616 12.4079V12.399V9.75929V9.35929H8.23616H7.76582H7.36582V9.75929V12.399V12.4073L7.36617 12.4156C7.38499 12.8669 7.02781 13.2175 6.60733 13.1992L6.59865 13.1988H6.58997H6.54294C6.12629 13.1988 5.77841 12.8302 5.81294 12.3817L5.81595 12.3425L5.8113 12.3036C5.8106 12.2976 5.81125 12.2917 5.81304 12.2864C5.81483 12.2811 5.81755 12.277 5.82042 12.2741C5.82325 12.2712 5.8261 12.2696 5.82847 12.2687C5.83081 12.2679 5.83302 12.2677 5.83512 12.268L5.88446 12.2741L5.9338 12.268C5.9359 12.2677 5.93812 12.2679 5.94045 12.2687L6.07323 11.8914L5.94046 12.2687C5.94282 12.2696 5.94568 12.2712 5.94851 12.2741C5.95137 12.277 5.95409 12.2811 5.95588 12.2864C5.95768 12.2917 5.95833 12.2976 5.95762 12.3036L5.9548 12.3272V12.351C5.9548 12.5364 6.02624 12.7066 6.15882 12.8275C6.2848 12.9423 6.44318 12.9921 6.58997 12.9921C6.73676 12.9921 6.89514 12.9423 7.02112 12.8275C7.1537 12.7066 7.22514 12.5364 7.22514 12.351V9.61531V9.21531H6.82514H6.3548H5.9548V9.61531V10.4792V10.4875L5.95515 10.4959C5.97397 10.9471 5.61679 11.2977 5.1963 11.2794L5.18763 11.2791H5.17895L5.13245 11.2791C5.13234 11.2791 5.13224 11.2791 5.13214 11.2791C5.03504 11.2789 4.93875 11.2588 4.84897 11.2196C4.75906 11.1805 4.67726 11.1229 4.60871 11.0501C4.54014 10.9772 4.48627 10.8905 4.45073 10.7949C4.41519 10.6994 4.39883 10.5972 4.4028 10.4947L4.40402 10.4631L4.40028 10.4318C4.39957 10.4259 4.40022 10.42 4.40202 10.4146L4.02308 10.2866L4.40202 10.4146C4.40381 10.4094 4.40653 10.4052 4.40939 10.4023L4.12444 10.1231L4.40939 10.4023C4.41223 10.3994 4.41508 10.3978 4.41744 10.397C4.41978 10.3961 4.422 10.3959 4.4241 10.3962L4.47344 10.4023L4.52278 10.3962C4.52488 10.3959 4.5271 10.3961 4.52944 10.397C4.5318 10.3978 4.53465 10.3994 4.53749 10.4023L4.82317 10.1223L4.53749 10.4023C4.54035 10.4052 4.54307 10.4094 4.54486 10.4146C4.54666 10.42 4.54731 10.4259 4.5466 10.4318L4.54378 10.4554V10.4792C4.54378 10.6464 4.60878 10.8082 4.72697 10.9289C4.84544 11.0497 5.00786 11.1192 5.17895 11.1192C5.35005 11.1192 5.51246 11.0497 5.63093 10.9289C5.74912 10.8082 5.81412 10.6464 5.81412 10.4792V9.37534Z"
        fill="url(#paint0_linear_1682_11963)" stroke="url(#paint1_linear_1682_11963)"
        stroke-width="0.8" />
    <circle cx="8" cy="8.80005" r="7.48" stroke="url(#paint2_linear_1682_11963)" stroke-width="1.04"
        stroke-linecap="round" stroke-linejoin="round" />
</svg>
