<svg width="56" height="32" viewBox="0 0 56 32" fill="none" xmlns="http://www.w3.org/2000/svg">
    <path fill-rule="evenodd" clip-rule="evenodd"
        d="M40.8815 0.766338C40.2908 0.185531 39.341 0.19357 38.7602 0.784293C38.1794 1.37502 38.1875 2.32473 38.7782 2.90554L50.7633 14.6894L2.12708 14.6895C1.29865 14.6895 0.627075 15.361 0.627075 16.1895C0.627075 17.0179 1.29865 17.6895 2.12708 17.6895L50.7442 17.6894L38.7815 29.3796C38.189 29.9586 38.178 30.9083 38.757 31.5008C39.336 32.0933 40.2857 32.1042 40.8782 31.5252L55.4752 17.2607C55.7635 16.9791 55.9263 16.5932 55.9269 16.1902C55.9275 15.7872 55.7659 15.4009 55.4785 15.1183L40.8815 0.766338Z"
        fill="#FF00A3" />
</svg>
