<svg width="235" height="206" viewBox="0 0 235 206" fill="none" xmlns="http://www.w3.org/2000/svg">
    <path d="M179.826 0.392724L114.582 10.7085C102.54 12.6125 91.1601 17.4779 81.4637 24.8676L18.4422 72.8973C9.55572 79.6698 5.1005 90.7712 6.83965 101.808L18.9408 178.603C21.6689 195.915 37.8912 207.734 55.1744 205.002L66.1662 203.264L210.797 107.774C220.74 101.21 225.932 89.4418 224.077 77.6726L216.059 26.7918C213.331 9.47929 197.109 -2.33996 179.826 0.392724Z" fill="#120C23"/>
    <path d="M228.076 137.772C230.507 136.397 233.563 137.872 233.998 140.631L234.608 144.503C237.336 161.815 225.537 178.065 208.254 180.798L152.085 189.679C147.685 190.374 145.614 184.441 149.49 182.247L228.076 137.772Z" fill="#120C23"/>
    <path d="M0.392075 60.8914L0.701469 62.8548L44.6182 29.3851C47.9226 26.8668 45.6725 21.604 41.5689 22.2528L26.7465 24.5964C9.46328 27.3291 -2.33599 43.5789 0.392075 60.8914Z" fill="#120C23"/>
</svg>
