<svg width="79" height="79" viewBox="0 0 79 79" fill="none" xmlns="http://www.w3.org/2000/svg">
    <path
        d="M39.6271 78.1445C18.0744 78.1445 0.627075 60.6972 0.627075 39.1445C0.627075 17.5919 18.0744 0.144531 39.6271 0.144531C61.1797 0.144531 78.6271 17.5919 78.6271 39.1445C78.6271 60.6972 60.8376 78.1445 39.6271 78.1445Z"
        fill="#FF932F" />
    <path
        d="M49.2136 22.3851L51.2666 14.8573L46.134 13.4886L44.4232 21.0164C43.0545 20.6742 42.028 20.332 40.6593 19.9898L42.3701 12.4621L37.5797 11.4355L35.8689 19.3055C34.8424 18.9633 33.8158 18.9633 32.7893 18.6212L26.2881 16.9103L24.9194 22.0429L28.3411 22.7272C30.3941 23.0694 30.7363 24.4381 30.3941 25.4646L25.6037 46.6793C25.2615 47.3636 24.5772 48.0479 23.5507 47.7058L20.129 47.0214L17.7338 52.4962L23.8929 53.8649L27.3146 54.8914L25.2615 62.7613L30.0519 63.7879L32.105 55.9179C33.4737 56.2601 34.5002 56.6022 35.8689 56.9444L33.4737 64.4722L38.2641 65.4987L40.3171 57.6288C48.1871 58.9974 54.3462 58.6553 56.7414 51.4697C58.7944 45.6527 56.7414 42.231 52.2931 40.178C55.3727 39.4936 57.7679 37.4406 58.4522 33.3346C59.4787 27.5176 55.0305 24.4381 49.2136 22.3851ZM47.8449 48.3901C46.4762 54.207 36.5532 51.1275 33.4737 50.101L36.211 39.8358C38.9484 40.5202 49.2136 42.231 47.8449 48.3901ZM49.2136 33.3346C47.8449 38.8093 39.6328 36.0719 36.8954 35.3876L39.2906 25.8068C42.028 26.4911 50.5823 27.5176 49.2136 33.3346Z"
        fill="white" />
</svg>
