<svg width="91" height="91" viewBox="0 0 91 91" fill="none" xmlns="http://www.w3.org/2000/svg">
    <path
        d="M45.6681 84.2891C24.1154 84.2891 6.66809 66.8417 6.66809 45.2891C6.66809 23.7364 24.1154 6.28906 45.6681 6.28906C67.2207 6.28906 84.6681 23.7364 84.6681 45.2891C84.6681 66.8417 66.8786 84.2891 45.6681 84.2891Z"
        fill="#FF00A3" />
    <path
        d="M55.2546 28.5296L57.3076 21.0018L52.175 19.6331L50.4642 27.1609C49.0955 26.8187 48.069 26.4765 46.7003 26.1344L48.4112 18.6066L43.6207 17.5801L41.9099 25.45C40.8834 25.1079 39.8569 25.1079 38.8303 24.7657L32.3291 23.0548L30.9604 28.1874L34.3821 28.8718C36.4351 29.2139 36.7773 30.5826 36.4351 31.6091L31.6447 52.8238C31.3026 53.5081 30.6182 54.1925 29.5917 53.8503L26.17 53.166L23.7748 58.6407L29.9339 60.0094L33.3556 61.0359L31.3026 68.9059L36.093 69.9324L38.146 62.0624C39.5147 62.4046 40.5412 62.7468 41.9099 63.0889L39.5147 70.6167L44.3051 71.6432L46.3581 63.7733C54.2281 65.142 60.3872 64.7998 62.7824 57.6142C64.8354 51.7973 62.7824 48.3756 58.3341 46.3225C61.4137 45.6382 63.8089 43.5851 64.4932 39.4791C65.5197 33.6622 61.0715 30.5826 55.2546 28.5296ZM53.8859 54.5346C52.5172 60.3516 42.5942 57.272 39.5147 56.2455L42.2521 45.9803C44.9894 46.6647 55.2546 48.3756 53.8859 54.5346ZM55.2546 39.4791C53.8859 44.9538 45.6738 42.2165 42.9364 41.5321L45.3316 31.9513C48.069 32.6356 56.6233 33.6622 55.2546 39.4791Z"
        fill="white" />
    <path
        d="M31.5142 3.57754C8.53748 11.515 -3.57752 36.5805 4.35989 59.5572C12.2973 82.5339 37.3628 94.6489 60.3396 86.7115C83.3163 78.7741 95.4313 53.7086 87.4939 30.7319C79.5565 7.75513 54.4909 -4.35987 31.5142 3.57754Z"
        stroke="#FF00A3" stroke-width="2" stroke-miterlimit="10" />
</svg>
