<svg width="234" height="172" viewBox="0 0 234 172" fill="none" xmlns="http://www.w3.org/2000/svg">
    <defs>
        <linearGradient id="paint0_linear_1786_15355" x1="152.52" y1="49" x2="120.354" y2="138.153"
            gradientUnits="userSpaceOnUse">
            <stop stop-color="#FF00A3" />
            <stop offset="1" stop-color="#BC00C0" />
        </linearGradient>
        <linearGradient id="paint1_linear_1786_15355" x1="173.64" y1="32" x2="129.854" y2="164.594"
            gradientUnits="userSpaceOnUse">
            <stop stop-color="#FF00A3" />
            <stop offset="1" stop-color="#BC00C0" />
        </linearGradient>
        <clipPath id="clip0_1786_15355">
            <rect width="55.2275" height="55.2275" fill="white"
                transform="translate(99 51) rotate(18.0747)" />
        </clipPath>
    </defs>
    <rect x="71" y="16" width="91" height="12" rx="6" fill="#9490EA" fill-opacity="0.16" />
    <rect x="89" width="55" height="12" rx="6" fill="#9490EA" fill-opacity="0.16" />
    <rect x="89" y="160" width="55" height="12" rx="6" fill="#9490EA" fill-opacity="0.16" />
    <rect x="71" y="144" width="91" height="12" rx="6" fill="#9490EA" fill-opacity="0.16" />
    <rect x="54" y="32" width="125" height="12" rx="6" fill="#9490EA" fill-opacity="0.16" />
    <rect x="54" y="128" width="125" height="12" rx="6" fill="#9490EA" fill-opacity="0.16" />
    <rect x="37" y="48" width="115" height="12" rx="6" fill="#9490EA" fill-opacity="0.16" />
    <rect x="156" y="48" width="41" height="12" rx="6" fill="#9490EA" fill-opacity="0.16" />
    <rect x="20" y="64" width="194" height="12" rx="6" fill="#9490EA" fill-opacity="0.16" />
    <rect y="80" width="194" height="12" rx="6" fill="#9490EA" fill-opacity="0.16" />
    <rect x="40" y="96" width="194" height="12" rx="6" fill="#9490EA" fill-opacity="0.16" />
    <rect x="82" y="112" width="115" height="12" rx="6" fill="#9490EA" fill-opacity="0.16" />
    <rect x="37" y="112" width="41" height="12" rx="6" fill="#9490EA" fill-opacity="0.16" />
    <path
        d="M117 123C137.435 123 154 106.435 154 86C154 65.5655 137.435 49 117 49C96.5655 49 80 65.5655 80 86C80 106.435 96.5655 123 117 123Z"
        fill="url(#paint0_linear_1786_15355)" />
    <g clip-path="url(#clip0_1786_15355)">
        <path
            d="M103.124 99.5511L101.786 103.653C101.638 104.106 101.885 104.593 102.338 104.741L105.62 105.812C105.837 105.883 106.074 105.864 106.278 105.761C106.482 105.657 106.637 105.477 106.708 105.259L108.046 101.157L109.687 101.693L108.348 105.795C108.201 106.247 108.448 106.735 108.901 106.883L112.182 107.954C112.4 108.025 112.637 108.006 112.841 107.903C113.045 107.799 113.199 107.619 113.27 107.401L114.609 103.299L114.885 103.389C121.421 105.523 127.2 103.658 129.114 97.794C130.722 92.8653 128.297 89.0929 124.554 87.4464L124.648 87.1576C128.09 87.4023 131.214 85.7639 132.516 81.7737C134.157 76.7467 131.379 72.4634 125.62 70.5839L125.318 70.4854L126.657 66.3837C126.728 66.1661 126.71 65.9293 126.606 65.7252C126.502 65.5211 126.322 65.3666 126.104 65.2956L122.823 64.2247C122.605 64.1537 122.368 64.172 122.164 64.2757C121.96 64.3793 121.806 64.5597 121.735 64.7773L120.396 68.879L118.516 68.2654L119.855 64.1637C119.926 63.9461 119.907 63.7092 119.804 63.5052C119.7 63.3011 119.52 63.1466 119.302 63.0756L116.26 62.0829C116.043 62.0119 115.806 62.0302 115.602 62.1338C115.398 62.2375 115.243 62.4179 115.172 62.6355L113.833 66.7372L107.265 64.6336C107.048 64.5626 106.811 64.5809 106.607 64.6846C106.403 64.7882 106.248 64.9687 106.177 65.1862L105.118 68.4315C104.971 68.8811 105.211 69.3697 105.664 69.5175L108.147 70.3096C108.796 70.526 109.332 70.9901 109.64 71.6007C109.947 72.2112 110.001 72.9186 109.789 73.5685L103.893 91.6325C103.68 92.2852 103.217 92.8266 102.604 93.1375C101.992 93.4484 101.282 93.5034 100.629 93.2904L98.1626 92.5254C97.9451 92.4544 97.7082 92.4727 97.5041 92.5764C97.3001 92.68 97.1456 92.8605 97.0746 93.078L96.0036 96.3594C95.8559 96.8122 96.1034 97.2997 96.5563 97.4475L103.124 99.5511ZM116.923 73.1448L122.564 74.9857C125.537 75.956 126.75 78.1598 125.878 80.8309C124.945 83.689 122.532 84.6844 118.26 83.29L114.06 81.9193L116.923 73.1448ZM112.585 86.4377L118.623 88.4082C122.354 89.6259 123.764 92.192 122.753 95.2896C121.732 98.4167 119.146 99.3772 114.119 97.7366L109.4 96.1966L112.584 86.441L112.585 86.4377Z"
            fill="white" />
    </g>
    <path
        d="M89.7083 74.5665H62.5298C61.3284 74.5665 60.1762 74.0923 59.3267 73.2481C58.4772 72.404 58 71.2591 58 70.0652V43.0578C58 41.864 58.4772 40.7191 59.3267 39.8749C60.1762 39.0308 61.3284 38.5566 62.5298 38.5566C63.7311 38.5566 64.8833 39.0308 65.7328 39.8749C66.5823 40.7191 67.0595 41.864 67.0595 43.0578V59.206L78.5537 47.7841C88.7632 37.6757 102.588 32 117 32C131.412 32 145.237 37.6757 155.446 47.7841C156.293 48.6279 156.769 49.7712 156.769 50.9631C156.769 52.155 156.293 53.2983 155.446 54.1421C155.03 54.5657 154.532 54.9023 153.983 55.1322C153.433 55.362 152.843 55.4804 152.247 55.4804C151.651 55.4804 151.061 55.362 150.512 55.1322C149.962 54.9023 149.465 54.5657 149.048 54.1421C140.537 45.7173 129.013 40.9871 117 40.9871C104.987 40.9871 93.4631 45.7173 84.952 54.1421L73.4578 65.564H89.7083C90.9096 65.564 92.0618 66.0382 92.9113 66.8824C93.7608 67.7265 94.238 68.8714 94.238 70.0652C94.238 71.2591 93.7608 72.404 92.9113 73.2481C92.0618 74.0923 90.9096 74.5665 89.7083 74.5665ZM171.47 97.4103H144.292C143.09 97.4103 141.938 97.8845 141.089 98.7287C140.239 99.5728 139.762 100.718 139.762 101.912C139.762 103.105 140.239 104.25 141.089 105.094C141.938 105.939 143.09 106.413 144.292 106.413H160.542L149.048 117.835C140.537 126.259 129.013 130.99 117 130.99C104.987 130.99 93.4631 126.259 84.952 117.835C84.5354 117.411 84.0378 117.074 83.4884 116.845C82.939 116.615 82.349 116.496 81.7529 116.496C81.1568 116.496 80.5667 116.615 80.0174 116.845C79.468 117.074 78.9704 117.411 78.5537 117.835C77.7066 118.679 77.2309 119.822 77.2309 121.014C77.2309 122.206 77.7066 123.349 78.5537 124.193C88.7558 134.315 102.583 140 117 140C131.417 140 145.244 134.315 155.446 124.193L166.941 112.771V128.919C166.941 130.113 167.418 131.258 168.267 132.102C169.117 132.946 170.269 133.42 171.47 133.42C172.672 133.42 173.824 132.946 174.673 132.102C175.523 131.258 176 130.113 176 128.919V101.912C176 100.718 175.523 99.5728 174.673 98.7287C173.824 97.8845 172.672 97.4103 171.47 97.4103Z"
        fill="url(#paint1_linear_1786_15355)" stroke="white" stroke-width="3" />
</svg>
