<svg width="140" height="44" viewBox="0 0 140 44" fill="none" xmlns="http://www.w3.org/2000/svg">
    <path d="M22.7161 15.1874H17.5411V32.0507H22.7161V15.1874Z" fill="#BDBDBD"/>
    <path d="M34.1479 15.1874H28.9729V32.0507H34.1479V15.1874Z" fill="#BDBDBD"/>
    <path d="M11.2843 15.1874H6.10934V32.0507H11.2843V15.1874Z" fill="#BDBDBD"/>
    <path d="M0.00139453 10.4825L20.0218 0L39.9961 10.4825L40 12.8483H-3.25116e-07L0.00139453 10.4825Z" fill="#BDBDBD"/>
    <path d="M40 34.3877H0V38.91H40V34.3877Z" fill="#BDBDBD"/>
    <path d="M75.5002 9.16732L72.9152 11.7523L81.3118 20.1673L51.6668 20.1673L51.6668 23.834L81.3118 23.834L72.8968 32.249L75.5002 34.834L88.3335 22.0007L75.5002 9.16732Z" fill="#BDBDBD"/>
    <path d="M140 20.3437V20.0004C140 8.54224 130.362 -0.667544 118.749 0.0380065C108.17 0.682409 100 9.61938 100 20.2167V20.3437C100 21.5714 100.997 22.5639 102.22 22.5639C103.448 22.5639 104.44 23.5611 104.44 24.784V30.0944C104.44 31.3221 105.437 32.3146 106.66 32.3146C107.888 32.3146 108.881 31.3174 108.881 30.0944V24.784C108.881 23.5563 109.878 22.5639 111.101 22.5639C112.328 22.5639 113.321 23.5611 113.321 24.784V38.006C113.321 39.2337 114.318 40.2261 115.541 40.2261C116.769 40.2261 117.761 39.229 117.761 38.006V24.784C117.761 23.5563 118.758 22.5639 119.981 22.5639C121.209 22.5639 122.201 23.5611 122.201 24.784V40.6542C122.201 41.8818 123.198 42.8743 124.421 42.8743C125.649 42.8743 126.642 41.8771 126.642 40.6542V24.784C126.642 23.5563 127.639 22.5639 128.862 22.5639C130.089 22.5639 131.082 23.5611 131.082 24.784V31.0728C131.082 32.3005 132.079 33.2929 133.302 33.2929C134.53 33.2929 135.522 32.2958 135.522 31.0728V24.784C135.522 23.5563 136.519 22.5639 137.742 22.5639C139.003 22.5686 140 21.5714 140 20.3437Z" fill="url(#paint0_linear_3537_5278)"/>
    <path d="M140 20.3437V20.0004C140 8.54224 130.362 -0.667544 118.749 0.0380065C108.17 0.682409 100 9.61938 100 20.2167V20.3437C100 21.5714 100.997 22.5639 102.22 22.5639C103.448 22.5639 104.44 23.5611 104.44 24.784V26.3315C104.44 27.5592 105.437 28.5516 106.66 28.5516C107.888 28.5516 108.881 27.5545 108.881 26.3315V24.784C108.881 23.5564 109.878 22.5639 111.101 22.5639C112.328 22.5639 113.321 23.5611 113.321 24.784V32.3616C113.321 33.5893 114.318 34.5817 115.541 34.5817C116.769 34.5817 117.761 33.5846 117.761 32.3616V24.784C117.761 23.5564 118.758 22.5639 119.981 22.5639C121.209 22.5639 122.201 23.5611 122.201 24.784V29.3654C122.201 30.593 123.198 31.5855 124.421 31.5855C125.649 31.5855 126.642 30.5883 126.642 29.3654V24.784C126.642 23.5564 127.639 22.5639 128.862 22.5639C130.089 22.5639 131.082 23.5611 131.082 24.784V27.3099C131.082 28.5375 132.079 29.53 133.302 29.53C134.53 29.53 135.522 28.5328 135.522 27.3099V24.784C135.522 23.5564 136.519 22.5639 137.742 22.5639C139.003 22.5686 140 21.5714 140 20.3437Z" fill="url(#paint1_radial_3537_5278)"/>
    <path d="M113.655 13.061C114.884 13.061 115.88 12.0649 115.88 10.8362C115.88 9.60742 114.884 8.61133 113.655 8.61133C112.426 8.61133 111.43 9.60742 111.43 10.8362C111.43 12.0649 112.426 13.061 113.655 13.061Z" fill="#680198"/>
    <path d="M126.577 13.061C127.806 13.061 128.802 12.0649 128.802 10.8362C128.802 9.60742 127.806 8.61133 126.577 8.61133C125.348 8.61133 124.352 9.60742 124.352 10.8362C124.352 12.0649 125.348 13.061 126.577 13.061Z" fill="#680198"/>
    <path d="M120.116 17.2535C118.94 17.2535 117.821 16.7596 117.125 15.927C116.974 15.7483 116.998 15.4802 117.176 15.3297C117.355 15.1792 117.623 15.2027 117.774 15.3814C118.31 16.0211 119.185 16.4021 120.116 16.4021C121.047 16.4021 121.922 16.0211 122.459 15.3814C122.609 15.2027 122.877 15.1792 123.056 15.3297C123.235 15.4802 123.258 15.7483 123.108 15.927C122.407 16.7596 121.292 17.2535 120.116 17.2535Z" fill="#680198"/>
    <defs>
        <linearGradient id="paint0_linear_3537_5278" x1="120" y1="43.1571" x2="120" y2="0.276435" gradientUnits="userSpaceOnUse">
            <stop offset="0.03125" stop-color="#8921F1"/>
            <stop offset="0.318203" stop-color="#EE4FFF"/>
        </linearGradient>
        <radialGradient id="paint1_radial_3537_5278" cx="0" cy="0" r="1" gradientUnits="userSpaceOnUse" gradientTransform="translate(120 27.269) rotate(-90) scale(27.269 37.7503)">
            <stop offset="0.375" stop-color="#FF66BE"/>
            <stop offset="0.921875" stop-color="#FF00A3"/>
        </radialGradient>
    </defs>
</svg>
