<svg width="87" height="87" viewBox="0 0 87 87" fill="none" xmlns="http://www.w3.org/2000/svg">
<path fill-rule="evenodd" clip-rule="evenodd" d="M52.9548 75.6587V11.0341C66.8666 15.1905 77.0361 28.1029 77.0361 43.3464C77.0361 58.5898 66.8666 71.5046 52.9548 75.6587ZM43.3223 0V36.5338L37.8197 31.0312L37.1165 17.2976L42.8551 0.0240813C39.1755 0.0626114 35.6211 0.587584 32.2184 1.49063L29.4418 9.83963L21.572 5.8927C18.4583 7.70602 15.5782 9.87575 13.0184 12.3826L27.5948 19.6865L28.021 28.0451L19.6648 27.6165L12.3585 13.0424C9.85407 15.6023 7.68194 18.48 5.86862 21.5961L9.81795 29.4683L1.46414 32.2425C0.563503 35.6452 0.0385301 39.1996 0 42.8792L17.2759 37.1406L31.0095 37.8414L36.5121 43.3464L31.0095 48.8514L17.2759 49.5521L0 43.8135C0.0385301 47.4932 0.563503 51.0476 1.46414 54.4503L9.81795 57.2244L5.86862 65.0966C7.68194 68.2127 9.85407 71.0905 12.3585 73.6503L19.6648 59.0763L28.021 58.6476L27.5948 67.0039L13.0184 74.3101C15.5782 76.8146 18.4583 78.9843 21.572 80.8L29.4418 76.8531L32.2184 85.2021C35.6211 86.1027 39.1755 86.6301 42.8551 86.6687L37.1165 69.3951L37.8197 55.6616L43.3223 50.159V86.6927C67.2615 86.6927 86.6687 67.2856 86.6687 43.3464C86.6687 19.4071 67.2615 0 43.3223 0Z" fill="#FF00AF"/>
</svg>
