<svg width="40" height="40" viewBox="0 0 40 40" fill="none" xmlns="http://www.w3.org/2000/svg">
<path fill-rule="evenodd" clip-rule="evenodd" d="M24.4333 34.9089V5.09111C30.8522 7.00889 35.5444 12.9667 35.5444 20C35.5444 27.0333 30.8522 32.9922 24.4333 34.9089ZM19.9889 0V16.8567L17.45 14.3178L17.1256 7.98111L19.7733 0.0111111C18.0756 0.0288889 16.4356 0.271111 14.8656 0.687778L13.5844 4.54L9.95333 2.71889C8.51667 3.55556 7.18778 4.55667 6.00667 5.71333L12.7322 9.08333L12.9289 12.94L9.07333 12.7422L5.70222 6.01778C4.54667 7.19889 3.54445 8.52667 2.70778 9.96445L4.53 13.5967L0.675556 14.8767C0.26 16.4467 0.0177778 18.0867 0 19.7844L7.97111 17.1367L14.3078 17.46L16.8467 20L14.3078 22.54L7.97111 22.8633L0 20.2156C0.0177778 21.9133 0.26 23.5533 0.675556 25.1233L4.53 26.4033L2.70778 30.0356C3.54445 31.4733 4.54667 32.8011 5.70222 33.9822L9.07333 27.2578L12.9289 27.06L12.7322 30.9156L6.00667 34.2867C7.18778 35.4422 8.51667 36.4433 9.95333 37.2811L13.5844 35.46L14.8656 39.3122C16.4356 39.7278 18.0756 39.9711 19.7733 39.9889L17.1256 32.0189L17.45 25.6822L19.9889 23.1433V40C31.0344 40 39.9889 31.0456 39.9889 20C39.9889 8.95444 31.0344 0 19.9889 0Z" fill="#FF00AF"/>
</svg>
