<svg width="84" height="46" viewBox="0 0 84 46" fill="none" xmlns="http://www.w3.org/2000/svg">
    <path
        d="M21.6906 4.15532H22.7061V4.95655H22.7527C22.8583 4.66463 23.0291 4.44103 23.2651 4.28575C23.5073 4.12426 23.7899 4.04352 24.1129 4.04352C24.7278 4.04352 25.203 4.26712 25.5384 4.71432C25.8738 5.15531 26.0415 5.77642 26.0415 6.57766C26.0415 7.3789 25.8738 8.00311 25.5384 8.45032C25.203 8.89131 24.7278 9.1118 24.1129 9.1118C23.7899 9.1118 23.5073 9.03106 23.2651 8.86957C23.0291 8.70808 22.8583 8.48448 22.7527 8.19876H22.7061V10.8633H21.6906V4.15532ZM23.8055 8.23603C24.1595 8.23603 24.4421 8.12423 24.6533 7.90063C24.8645 7.67082 24.97 7.36958 24.97 6.99691V6.15841C24.97 5.78574 24.8645 5.48761 24.6533 5.26401C24.4421 5.03419 24.1595 4.91929 23.8055 4.91929C23.4949 4.91929 23.234 4.99693 23.0229 5.15221C22.8117 5.30127 22.7061 5.50003 22.7061 5.74847V7.40685C22.7061 7.65529 22.8117 7.85715 23.0229 8.01243C23.234 8.1615 23.4949 8.23603 23.8055 8.23603ZM29.1048 9.1118C28.7694 9.1118 28.4619 9.05279 28.1824 8.93478C27.9091 8.81677 27.6762 8.64907 27.4837 8.43168C27.2911 8.20808 27.142 7.941 27.0365 7.63045C26.9309 7.31368 26.8781 6.96275 26.8781 6.57766C26.8781 6.19257 26.9309 5.84475 27.0365 5.53419C27.142 5.21742 27.2911 4.95034 27.4837 4.73295C27.6762 4.50935 27.9091 4.33855 28.1824 4.22054C28.4619 4.10252 28.7694 4.04352 29.1048 4.04352C29.4402 4.04352 29.7445 4.10252 30.0178 4.22054C30.2973 4.33855 30.5333 4.50935 30.7259 4.73295C30.9184 4.95034 31.0675 5.21742 31.1731 5.53419C31.2787 5.84475 31.3315 6.19257 31.3315 6.57766C31.3315 6.96275 31.2787 7.31368 31.1731 7.63045C31.0675 7.941 30.9184 8.20808 30.7259 8.43168C30.5333 8.64907 30.2973 8.81677 30.0178 8.93478C29.7445 9.05279 29.4402 9.1118 29.1048 9.1118ZM29.1048 8.2733C29.4526 8.2733 29.7321 8.16771 29.9433 7.95653C30.1544 7.73914 30.26 7.41616 30.26 6.98759V6.16773C30.26 5.73916 30.1544 5.41928 29.9433 5.20811C29.7321 4.99072 29.4526 4.88202 29.1048 4.88202C28.7569 4.88202 28.4774 4.99072 28.2663 5.20811C28.0551 5.41928 27.9495 5.73916 27.9495 6.16773V6.98759C27.9495 7.41616 28.0551 7.73914 28.2663 7.95653C28.4774 8.16771 28.7569 8.2733 29.1048 8.2733ZM31.9148 4.15532H32.9024L33.3962 6.18636L33.8341 8.02175H33.862L34.3651 6.18636L34.9521 4.15532H35.8651L36.4614 6.18636L36.9738 8.02175H37.0018L37.4303 6.18636L37.9334 4.15532H38.8744L37.5701 9H36.4241L35.7906 6.79194L35.3993 5.43171H35.3806L34.9987 6.79194L34.3558 9H33.2378L31.9148 4.15532ZM41.6787 9.1118C41.3308 9.1118 41.0203 9.05279 40.747 8.93478C40.4737 8.81677 40.2408 8.64907 40.0482 8.43168C39.8557 8.20808 39.7066 7.941 39.601 7.63045C39.5017 7.31368 39.452 6.96275 39.452 6.57766C39.452 6.19257 39.5017 5.84475 39.601 5.53419C39.7066 5.21742 39.8557 4.95034 40.0482 4.73295C40.2408 4.50935 40.4737 4.33855 40.747 4.22054C41.0203 4.10252 41.3308 4.04352 41.6787 4.04352C42.0327 4.04352 42.3433 4.10563 42.6103 4.22985C42.8836 4.35408 43.1103 4.52799 43.2904 4.75159C43.4706 4.96898 43.6041 5.22363 43.6911 5.51556C43.7842 5.80748 43.8308 6.12114 43.8308 6.45654V6.83853H40.5048V6.99691C40.5048 7.36958 40.6135 7.67703 40.8308 7.91926C41.0544 8.15529 41.3712 8.2733 41.7811 8.2733C42.0793 8.2733 42.3308 8.20808 42.5358 8.07765C42.7408 7.94721 42.9147 7.7702 43.0575 7.5466L43.6538 8.13355C43.4737 8.43168 43.2128 8.67081 42.8712 8.85093C42.5296 9.02484 42.1321 9.1118 41.6787 9.1118ZM41.6787 4.83544C41.5047 4.83544 41.3433 4.86649 41.1942 4.9286C41.0513 4.99072 40.9271 5.07767 40.8215 5.18947C40.7221 5.30127 40.6445 5.43481 40.5886 5.59009C40.5327 5.74537 40.5048 5.91617 40.5048 6.10251V6.16773H42.7594V6.07456C42.7594 5.70189 42.6631 5.40376 42.4706 5.18016C42.278 4.95034 42.0141 4.83544 41.6787 4.83544ZM44.955 9V4.15532H45.9705V5.08699H46.0171C46.0854 4.83854 46.2283 4.62115 46.4457 4.43482C46.6631 4.24849 46.9643 4.15532 47.3494 4.15532H47.6196V5.13357H47.219C46.8152 5.13357 46.5047 5.19879 46.2873 5.32922C46.0761 5.45966 45.9705 5.6522 45.9705 5.90686V9H44.955ZM50.3767 9.1118C50.0288 9.1118 49.7183 9.05279 49.445 8.93478C49.1717 8.81677 48.9388 8.64907 48.7462 8.43168C48.5537 8.20808 48.4046 7.941 48.299 7.63045C48.1997 7.31368 48.15 6.96275 48.15 6.57766C48.15 6.19257 48.1997 5.84475 48.299 5.53419C48.4046 5.21742 48.5537 4.95034 48.7462 4.73295C48.9388 4.50935 49.1717 4.33855 49.445 4.22054C49.7183 4.10252 50.0288 4.04352 50.3767 4.04352C50.7307 4.04352 51.0413 4.10563 51.3083 4.22985C51.5816 4.35408 51.8083 4.52799 51.9885 4.75159C52.1686 4.96898 52.3021 5.22363 52.3891 5.51556C52.4822 5.80748 52.5288 6.12114 52.5288 6.45654V6.83853H49.2028V6.99691C49.2028 7.36958 49.3115 7.67703 49.5288 7.91926C49.7525 8.15529 50.0692 8.2733 50.4792 8.2733C50.7773 8.2733 51.0288 8.20808 51.2338 8.07765C51.4388 7.94721 51.6127 7.7702 51.7555 7.5466L52.3518 8.13355C52.1717 8.43168 51.9108 8.67081 51.5692 8.85093C51.2276 9.02484 50.8301 9.1118 50.3767 9.1118ZM50.3767 4.83544C50.2028 4.83544 50.0413 4.86649 49.8922 4.9286C49.7493 4.99072 49.6251 5.07767 49.5195 5.18947C49.4202 5.30127 49.3425 5.43481 49.2866 5.59009C49.2307 5.74537 49.2028 5.91617 49.2028 6.10251V6.16773H51.4574V6.07456C51.4574 5.70189 51.3611 5.40376 51.1686 5.18016C50.976 4.95034 50.7121 4.83544 50.3767 4.83544ZM56.6996 8.19876H56.653C56.5474 8.48448 56.3735 8.70808 56.1313 8.86957C55.8952 9.03106 55.6157 9.1118 55.2928 9.1118C54.6779 9.1118 54.2027 8.89131 53.8673 8.45032C53.5319 8.00311 53.3642 7.3789 53.3642 6.57766C53.3642 5.77642 53.5319 5.15531 53.8673 4.71432C54.2027 4.26712 54.6779 4.04352 55.2928 4.04352C55.6157 4.04352 55.8952 4.12426 56.1313 4.28575C56.3735 4.44103 56.5474 4.66463 56.653 4.95655H56.6996V2.10565H57.7151V9H56.6996V8.19876ZM55.6002 8.23603C55.9108 8.23603 56.1716 8.1615 56.3828 8.01243C56.594 7.85715 56.6996 7.65529 56.6996 7.40685V5.74847C56.6996 5.50003 56.594 5.30127 56.3828 5.15221C56.1716 4.99693 55.9108 4.91929 55.6002 4.91929C55.2462 4.91929 54.9636 5.03419 54.7524 5.26401C54.5412 5.48761 54.4356 5.78574 54.4356 6.15841V6.99691C54.4356 7.36958 54.5412 7.67082 54.7524 7.90063C54.9636 8.12423 55.2462 8.23603 55.6002 8.23603ZM61.3684 2.10565H62.3839V4.95655H62.4305C62.5361 4.66463 62.7069 4.44103 62.9429 4.28575C63.1852 4.12426 63.4678 4.04352 63.7907 4.04352C64.4056 4.04352 64.8808 4.26712 65.2162 4.71432C65.5516 5.15531 65.7193 5.77642 65.7193 6.57766C65.7193 7.3789 65.5516 8.00311 65.2162 8.45032C64.8808 8.89131 64.4056 9.1118 63.7907 9.1118C63.4678 9.1118 63.1852 9.03106 62.9429 8.86957C62.7069 8.70808 62.5361 8.48448 62.4305 8.19876H62.3839V9H61.3684V2.10565ZM63.4833 8.23603C63.8373 8.23603 64.1199 8.12423 64.3311 7.90063C64.5423 7.67082 64.6479 7.36958 64.6479 6.99691V6.15841C64.6479 5.78574 64.5423 5.48761 64.3311 5.26401C64.1199 5.03419 63.8373 4.91929 63.4833 4.91929C63.1727 4.91929 62.9119 4.99693 62.7007 5.15221C62.4895 5.30127 62.3839 5.50003 62.3839 5.74847V7.40685C62.3839 7.65529 62.4895 7.85715 62.7007 8.01243C62.9119 8.1615 63.1727 8.23603 63.4833 8.23603ZM69.7903 4.15532H70.7686L68.7282 9.95962C68.6723 10.1211 68.6071 10.2578 68.5326 10.3696C68.4643 10.4876 68.3804 10.5807 68.281 10.6491C68.1879 10.7236 68.073 10.7764 67.9363 10.8074C67.7997 10.8447 67.6382 10.8633 67.4518 10.8633H66.8649V10.0342H67.6848L67.9643 9.21428L66.2034 4.15532H67.2189L68.1879 7.00623L68.4674 8.05901H68.5139L68.8214 7.00623L69.7903 4.15532Z"
        fill="#FF00A3" />
    <path fill-rule="evenodd" clip-rule="evenodd"
        d="M41.0213 23.6302V30.6266H52.2881V35.5331H41.0213V45.2553H34.8427V18.6328H54.9231V23.5394H41.0213V23.6302ZM18.3954 18.9091H8.76404V24.2699H16.8507C21.1212 24.2699 24.6649 27.8135 24.6649 32.084C24.6649 36.3546 21.1212 39.8982 16.8507 39.8982H8.76404V45.259H18.1228C25.4826 45.259 31.3886 39.353 31.3886 31.9932C31.3886 24.7242 25.5735 18.9091 18.3954 18.9091ZM70.5525 35.9874L77.0036 45.2553V45.1644H84L74.0961 31.4443L83.364 18.6328H76.7311L70.7342 27.2647L64.6464 18.6328H57.6501L67.0088 31.7169L57.1958 45.2553H64.283L70.5525 35.9874Z"
        fill="#FF00A3" />
    <path
        d="M12.5394 25.3945C12.3576 25.3945 12.1759 25.3945 11.9033 25.3945C13.9931 26.8483 15.4469 29.3016 15.4469 32.1183C15.4469 34.935 14.084 37.3883 11.9033 38.8421C12.085 38.8421 12.2668 38.8421 12.5394 38.8421C16.2647 38.8421 19.2631 35.8436 19.2631 32.1183C19.2631 28.393 16.2647 25.3945 12.5394 25.3945Z"
        fill="#FF00A3" />
    <path
        d="M14.5379 32.1127C14.5379 36.1106 11.2669 39.3816 7.26895 39.3816C3.27103 39.3816 0 36.1106 0 32.1127C0 28.1148 3.27103 24.8438 7.26895 24.8438C11.3577 24.8438 14.5379 28.1148 14.5379 32.1127Z"
        fill="#FF00A3" />
</svg>
