<svg width="356" height="153" viewBox="0 0 356 153" fill="none" xmlns="http://www.w3.org/2000/svg">
    <path fill-rule="evenodd" clip-rule="evenodd" d="M80.4573 90.1053C80.4573 106.319 93.5829 119.445 109.797 119.445C125.754 119.445 139.137 106.319 139.137 90.1053C139.137 73.8912 126.011 60.7656 109.797 60.7656C93.5829 60.7656 80.4573 73.8912 80.4573 90.1053ZM114.692 70.8049L118.553 71.8346L117.009 77.4977C121.385 79.0422 124.731 81.359 123.959 85.735C123.444 88.824 121.642 90.3685 119.326 90.8833C122.672 92.4278 124.216 95.002 122.672 99.378C120.87 104.784 116.237 105.041 110.316 104.012L108.772 109.932L105.168 109.16L106.97 103.497C106.455 103.368 106.004 103.239 105.554 103.111C105.103 102.982 104.653 102.853 104.138 102.724L102.594 108.645L98.9897 107.873L100.534 101.952L97.9601 101.18L93.3266 100.15L95.1285 96.0316L97.7026 96.5465C98.4749 96.8039 98.9897 96.2891 99.2471 95.7742L102.851 79.8145C103.108 79.0422 102.851 78.0126 101.306 77.7552L98.7323 77.2403L99.762 73.3791L104.653 74.6662C105.039 74.7949 105.425 74.8592 105.811 74.9236C106.197 74.9879 106.583 75.0523 106.97 75.181L108.257 69.2604L111.86 70.0327L110.573 75.6958C111.088 75.8245 111.539 75.9532 111.989 76.082C112.44 76.2107 112.89 76.3394 113.405 76.4681L114.692 70.8049ZM105.168 98.3484C107.484 99.1206 114.949 101.437 115.979 97.0613C116.918 92.8373 110.583 91.3944 107.896 90.7823C107.635 90.723 107.409 90.6714 107.227 90.6259L105.168 98.3484ZM108.343 87.4376C110.804 88.0971 116.066 89.5072 117.009 85.735C117.92 81.861 112.981 80.8113 110.407 80.2643C110.074 80.1934 109.78 80.131 109.544 80.0719L107.742 87.2795C107.915 87.3228 108.117 87.3771 108.343 87.4376Z" fill="#FF00A3"/>
    <path d="M56.1621 149.9C44.2896 146.015 37.8137 133.063 41.6993 121.19C45.5848 109.318 58.5366 102.842 70.4091 106.728C82.2815 110.613 88.7574 123.565 84.8719 135.437C80.9864 147.31 68.0346 153.786 56.1621 149.9Z" stroke="#FF00A3" stroke-width="2" stroke-miterlimit="10"/>
    <path d="M63.2858 136.304L72.7838 130.691L63.2858 144.075L53.7878 130.691L63.2858 136.304Z" fill="#FF00A3"/>
    <path d="M63.2853 112.773L53.7874 128.531L63.2853 134.144L72.7833 128.531L63.2853 112.773Z" fill="#FF00A3"/>
    <path d="M38.4616 106.73C28.9636 114.717 14.7167 113.638 6.51387 104.356C-1.68893 94.8579 -0.609617 80.3951 8.88837 72.4082C18.3863 64.2054 32.8492 65.2847 40.8361 74.7827C49.0389 84.0648 47.9596 98.5276 38.4616 106.73Z" stroke="#FF00A3" stroke-width="2" stroke-miterlimit="10"/>
    <path d="M37.0041 86.8147H23.6248V92.1427H31.3208C30.9656 93.9187 30.0184 95.3395 28.4792 96.4051C27.1768 97.2339 25.5192 97.8259 23.6248 97.8259C19.9544 97.8259 16.7576 95.3395 15.692 91.9059C15.3368 91.0771 15.2184 90.1299 15.2184 89.1827C15.2184 88.2355 15.3368 87.2883 15.692 86.4595C16.7576 83.0258 19.9544 80.5394 23.6248 80.5394C25.756 80.5394 27.532 81.2498 29.0712 82.6706L33.0968 78.645C30.7288 76.3954 27.4136 74.9746 23.6248 74.9746C18.06 74.9746 13.324 78.1714 10.956 82.789C10.0088 84.6834 9.41675 86.9331 9.41675 89.1827C9.41675 91.4323 10.0088 93.6819 10.956 95.5763C13.324 100.194 18.06 103.391 23.6248 103.391C27.4136 103.391 30.7288 102.088 32.9784 99.9571C35.7017 97.4707 37.2409 93.8003 37.2409 89.5379C37.2409 88.5907 37.1225 87.6435 37.0041 86.8147Z" fill="#FF00A3"/>
    <path d="M55.7307 30.0951C43.8582 34.1965 37.5982 47.1483 41.6996 59.0207C45.801 70.8932 58.7528 77.1533 70.6252 73.0519C82.4977 68.9505 88.7578 55.9987 84.6564 44.1262C80.5549 32.2537 67.6032 25.9937 55.7307 30.0951Z" stroke="#FF00A3" stroke-width="2" stroke-miterlimit="10"/>
    <path d="M63.2865 37.2168V49.0893C62.6389 48.4417 61.9913 47.7941 61.3438 47.1465C61.3438 46.0672 61.1279 42.8292 61.1279 42.8292L63.0707 37.2168C61.9913 37.2168 60.912 37.4327 59.8327 37.6485L58.9693 40.4547L56.163 39.1596C55.2996 39.8072 54.2203 40.4547 53.5727 41.1023L58.3217 43.4768V46.2831L55.5154 46.0672L53.141 41.3182C52.2775 42.1817 51.6299 43.0451 51.1982 43.9086L52.4934 46.4989L49.6871 47.5782C49.4713 48.6575 49.2554 49.7369 49.2554 50.8162L54.8679 49.0893L59.401 49.3051L61.3438 51.2479L59.401 53.1907L54.8679 53.4065L49.0396 51.4638C49.0396 52.5431 49.2554 53.8383 49.4713 54.7017L52.2775 55.5652L50.9823 58.1555C51.6299 59.019 52.2775 60.0983 52.9251 60.7459L55.2996 55.9969L58.1058 55.781L57.8899 58.5873L53.3568 60.9618C54.2203 61.8252 55.0837 62.4728 55.9472 62.9045L58.5375 61.6093L59.401 64.1997C60.4803 64.4156 61.5596 64.6314 62.6389 64.6314L60.912 59.019C60.912 59.019 61.1279 55.781 61.1279 54.7017C61.7755 54.0541 62.4231 53.4065 63.0707 52.759V64.4156C70.8417 64.4156 77.1018 58.1555 77.1018 50.3845C77.1018 43.4768 70.8417 37.2168 63.2865 37.2168ZM66.3086 61.6093C66.3086 54.7017 66.3086 47.5782 66.3086 40.6706C69.7624 41.3182 74.0797 45.2037 74.2956 50.8162C74.2956 57.0762 69.7624 60.9618 66.3086 61.6093Z" fill="#FF00A3"/>
    <path d="M131.369 56.0308C162.153 20.5105 218.275 -11.2207 271.082 22.6418" stroke="#FF00A3" stroke-width="4" stroke-miterlimit="10" stroke-linecap="round"/>
    <path d="M268.477 2.74805L275.581 25.7177L251.427 31.401" stroke="#FF00A3" stroke-width="4" stroke-miterlimit="10" stroke-linecap="round"/>
    <path d="M351.895 72.5301H340.947L321.328 47.7736C320.245 46.3743 318.185 46.159 316.776 47.2354C315.367 48.3118 315.15 50.3569 316.234 51.7562L332.709 72.5301H274.721L291.196 51.7562C292.28 50.3569 292.063 48.3118 290.654 47.2354C289.245 46.159 287.186 46.3743 286.102 47.7736L266.483 72.5301H254.235C252.392 72.5301 250.983 73.9293 250.983 75.7592C250.983 77.589 252.392 78.9883 254.235 78.9883H259.112L265.182 115.477C266.266 121.72 271.686 126.241 277.972 126.241H328.265C334.552 126.241 339.972 121.72 341.056 115.477L347.125 79.0959H352.003C353.846 79.0959 355.255 77.6966 355.255 75.8668C355.146 74.037 353.737 72.6377 351.895 72.5301ZM334.66 114.401C334.119 117.522 331.409 119.783 328.265 119.783H277.972C274.829 119.783 272.119 117.522 271.577 114.401L265.724 79.0959H340.514L334.66 114.401Z" fill="#FF00A3"/>
</svg>
