<svg width="10" height="10" viewBox="0 0 10 10" fill="none" xmlns="http://www.w3.org/2000/svg">
    <defs>
        <linearGradient id="icon_photo_gradient" x1="9.8" y1="0.5" x2="6.20031" y2="11.5855"
            gradientUnits="userSpaceOnUse">
            <stop stop-color="#FF00A3" />
            <stop offset="1" stop-color="#BC00C0" />
        </linearGradient>
    </defs>
    <path id="Vector_icon"
        d="M5 7.75C5.625 7.75 6.15633 7.53133 6.594 7.094C7.03133 6.65633 7.25 6.125 7.25 5.5C7.25 4.875 7.03133 4.34367 6.594 3.906C6.15633 3.46867 5.625 3.25 5 3.25C4.375 3.25 3.84367 3.46867 3.406 3.906C2.96867 4.34367 2.75 4.875 2.75 5.5C2.75 6.125 2.96867 6.65633 3.406 7.094C3.84367 7.53133 4.375 7.75 5 7.75ZM5 6.75C4.65 6.75 4.35417 6.62917 4.1125 6.3875C3.87083 6.14583 3.75 5.85 3.75 5.5C3.75 5.15 3.87083 4.85417 4.1125 4.6125C4.35417 4.37083 4.65 4.25 5 4.25C5.35 4.25 5.64583 4.37083 5.8875 4.6125C6.12917 4.85417 6.25 5.15 6.25 5.5C6.25 5.85 6.12917 6.14583 5.8875 6.3875C5.64583 6.62917 5.35 6.75 5 6.75ZM1 9.5C0.725 9.5 0.489667 9.40217 0.294 9.2065C0.098 9.0105 0 8.775 0 8.5V2.5C0 2.225 0.098 1.98967 0.294 1.794C0.489667 1.598 0.725 1.5 1 1.5H2.575L3.5 0.5H6.5L7.425 1.5H9C9.275 1.5 9.5105 1.598 9.7065 1.794C9.90217 1.98967 10 2.225 10 2.5V8.5C10 8.775 9.90217 9.0105 9.7065 9.2065C9.5105 9.40217 9.275 9.5 9 9.5H1ZM9 8.5V2.5H6.975L6.0625 1.5H3.9375L3.025 2.5H1V8.5H9Z"
        fill="url(#icon_photo_gradient)" />
</svg>
