<svg width="51" height="51" viewBox="0 0 51 51" fill="none" xmlns="http://www.w3.org/2000/svg">
    <defs>
        <radialGradient id="paint0_radial_596_6150" cx="0" cy="0" r="1" gradientUnits="userSpaceOnUse" gradientTransform="translate(39.8406 12.3196) rotate(56.0649) scale(15.3309 12.8116)">
            <stop stop-color="#D6AEF5"/>
            <stop offset="1" stop-color="#FF00A3"/>
        </radialGradient>
        <clipPath id="clip0_596_6150">
            <rect width="42" height="40" fill="white" transform="translate(4.44995 5.5)"/>
        </clipPath>
    </defs>
<g clip-path="url(#clip0_596_6150)">
<path d="M32.8452 35.4156L30.8244 37.3133C31.6112 37.7877 32.2787 38.2225 32.6411 38.5755C32.9095 38.8381 33.265 38.9705 33.6206 38.9705C33.9692 38.9705 34.3179 38.8425 34.5863 38.5888C35.1276 38.0746 35.1322 37.2361 34.6 36.7153C34.1619 36.2894 33.5563 35.8635 32.8452 35.4156Z" fill="#12052F"/>
<path d="M24.2663 39.723C23.5667 39.2486 22.7845 38.7167 21.984 38.1011C20.0663 39.7053 18.7933 41.6979 20.4471 44.7475C20.6925 45.1999 21.172 45.4603 21.6697 45.4603C21.883 45.4603 22.101 45.4117 22.3051 45.3102C22.9795 44.9726 23.241 44.1716 22.89 43.525C22.0459 41.9649 22.3602 41.1617 24.2663 39.723Z" fill="#12052F"/>
<path d="M32.7007 26.7633C31.9507 26.6397 31.2396 27.123 31.1111 27.8424C30.5262 31.1038 28.6865 33.1405 26.6427 34.7448C26.9432 34.9522 27.2437 35.1574 27.5442 35.3604C28.0121 35.6782 28.487 36.0004 28.948 36.3336C31.1088 34.5153 33.1503 32.0527 33.8247 28.2925C33.9509 27.5731 33.4485 26.8891 32.7007 26.7633Z" fill="#12052F"/>
<path d="M29.3242 45.5C29.1109 45.5 28.893 45.4515 28.6888 45.3499C28.0144 45.0123 27.753 44.2113 28.1039 43.5648C29.143 41.6472 28.4227 40.8726 25.1357 38.6439C22.1973 36.6513 18.1716 33.9239 17.1715 28.3367C17.0431 27.6151 17.5454 26.931 18.2932 26.8074C19.0433 26.6817 19.7544 27.1671 19.8828 27.8865C20.6903 32.3925 23.8947 34.5638 26.7207 36.4792C29.5742 38.4144 32.8108 40.6078 30.5422 44.7895C30.3014 45.2396 29.822 45.5 29.3242 45.5Z" fill="#12052F"/>
<path d="M13.522 34.5969C12.8247 34.5969 12.226 34.0872 12.1549 33.4053C11.8888 30.8434 13.2491 27.7232 14.6896 26.4169C15.2424 25.916 16.1141 25.938 16.6348 26.472C17.1555 27.0038 17.1325 27.8424 16.5774 28.3433C15.7838 29.0648 14.7057 31.3465 14.8915 33.1427C14.9672 33.8709 14.4166 34.5197 13.6597 34.5925C13.6161 34.5947 13.5679 34.5969 13.522 34.5969Z" fill="#12052F"/>
<path d="M37.4008 34.5969C37.3549 34.5969 37.309 34.5947 37.2609 34.5903C36.5039 34.5175 35.9534 33.8687 36.0291 33.1405C36.2172 31.3465 35.1391 29.0648 34.3431 28.3411C33.7903 27.8379 33.7651 27.0016 34.2881 26.4698C34.8111 25.938 35.6804 25.9137 36.2332 26.4169C37.6738 27.7254 39.034 30.8456 38.7679 33.4053C38.6991 34.0872 38.1004 34.5969 37.4008 34.5969Z" fill="#12052F"/>
<path opacity="0.5" d="M46.45 21.2842C46.45 12.5657 37.0475 5.5 25.45 5.5C13.8524 5.5 4.44995 12.5657 4.44995 21.2842C4.44995 24.7398 16.2563 28.9611 25.45 28.9611C36.5429 28.9611 46.45 24.5258 46.45 21.2842Z" fill="url(#paint0_radial_596_6150)"/>
<path d="M25.4614 29.2039C17.9537 29.2039 7.48239 26.5537 7.48239 22.2375C7.48239 14.6267 15.5475 8.43485 25.4614 8.43485C35.3753 8.43485 43.4404 14.6267 43.4404 22.2375C43.4404 24.1308 41.4012 25.9137 37.6967 27.2598C34.2422 28.5132 29.8977 29.2039 25.4614 29.2039ZM25.4614 11.0806C17.066 11.0806 10.235 16.0853 10.235 22.2353C10.235 22.4581 11.0011 23.6232 14.5382 24.8347C17.7312 25.927 21.7133 26.5559 25.4614 26.5559C29.5146 26.5559 33.6183 25.9093 36.7241 24.7817C39.9836 23.599 40.6879 22.4559 40.6879 22.2375C40.6901 16.0853 33.8591 11.0806 25.4614 11.0806Z" fill="#12052F"/>
<path d="M42.8005 15.1894C42.3876 15.1894 41.9816 15.0129 41.7086 14.6731C40.463 13.1196 38.8413 11.7757 36.887 10.679C36.2309 10.3105 36.0084 9.50066 36.3915 8.86735C36.7746 8.23625 37.6164 8.02221 38.2747 8.39072C40.5365 9.65954 42.4266 11.2285 43.89 13.0556C44.3534 13.6337 44.241 14.4656 43.64 14.9136C43.39 15.0989 43.0941 15.1894 42.8005 15.1894Z" fill="white"/>
<path d="M19.986 19.6623C18.6327 19.6623 17.3344 19.0047 16.4191 17.8595C15.9558 17.2791 16.0705 16.4472 16.6738 16.0037C17.277 15.5579 18.1395 15.6683 18.6029 16.2486C18.9974 16.7429 19.4883 17.0143 19.986 17.0143C20.4838 17.0143 20.9747 16.7429 21.3692 16.2486C21.8326 15.6683 22.6951 15.5601 23.2983 16.0037C23.9016 16.4494 24.014 17.2791 23.553 17.8595C22.64 19.0047 21.3394 19.6623 19.986 19.6623Z" fill="#12052F"/>
<path d="M30.9368 19.6623C29.5834 19.6623 28.2851 19.0047 27.3699 17.8595C26.9065 17.2791 27.0212 16.4472 27.6245 16.0037C28.2278 15.5579 29.0902 15.6683 29.5536 16.2486C29.9481 16.7429 30.439 17.0143 30.9368 17.0143C31.4345 17.0143 31.9254 16.7429 32.32 16.2486C32.7833 15.6683 33.6458 15.5601 34.2491 16.0037C34.8523 16.4494 34.9647 17.2791 34.5037 17.8595C33.5907 19.0047 32.2901 19.6623 30.9368 19.6623Z" fill="#12052F"/>
<path d="M25.2986 33.765C27.0396 32.3903 28.3539 30.7971 28.3539 28.8971C28.3539 28.1667 27.7369 27.5732 26.9776 27.5732C26.2184 27.5732 25.6013 28.1667 25.6013 28.8971C25.6013 29.8857 24.6173 30.9251 23.3121 31.907C23.9039 32.5999 24.5829 33.2067 25.2986 33.765Z" fill="#12052F"/>
<path d="M18.612 34.8485C17.495 35.5105 16.5453 36.1129 15.9237 36.7175C15.3892 37.2383 15.3961 38.0768 15.9374 38.591C16.2058 38.8447 16.5545 38.9727 16.9031 38.9727C17.2587 38.9727 17.6142 38.8403 17.8826 38.5777C18.3597 38.1121 19.369 37.5031 20.4861 36.8477C19.837 36.2541 19.2016 35.5921 18.612 34.8485Z" fill="#12052F"/>
</g>
</svg>
