<svg width="26" height="24" viewBox="0 0 26 24" fill="none" xmlns="http://www.w3.org/2000/svg">
    <defs>
        <linearGradient id="paint0_linear_1905_17391" x1="25.48" y1="-5.48149e-07" x2="15.6832"
            y2="29.4157" gradientUnits="userSpaceOnUse">
            <stop stop-color="#FF00A3" />
            <stop offset="1" stop-color="#BC00C0" />
        </linearGradient>
    </defs>
    <path
        d="M26 12.5528C26 11.8616 25.9263 11.1864 25.8153 10.5248C25.7987 10.4272 25.7871 10.328 25.7681 10.2304C25.6472 9.6064 25.4732 9 25.2595 8.4112C25.2198 8.2984 25.1767 8.188 25.1336 8.0768C24.9034 7.496 24.635 6.9336 24.3228 6.3984C24.2747 6.3152 24.2201 6.2376 24.1704 6.156C23.8283 5.6016 23.4556 5.0648 23.0315 4.5696C23.0191 4.556 23.005 4.5432 22.9934 4.5296C20.6088 1.7624 17.0191 0 13.0004 0C8.98251 0 5.39199 1.7624 3.00742 4.5296C2.995 4.5432 2.98092 4.556 2.96932 4.5696C2.54525 5.0656 2.17253 5.6016 1.83046 6.156C1.78077 6.2376 1.7261 6.3152 1.67806 6.3984C1.36498 6.9336 1.09745 7.496 0.867191 8.0768C0.823293 8.1872 0.781052 8.2984 0.741295 8.4112C0.527603 9 0.353668 9.6064 0.232742 10.2304C0.213692 10.328 0.202096 10.4272 0.185531 10.5248C0.0737154 11.1864 0 11.8616 0 12.5528C0 12.5552 0 12.556 0 12.5584V12.5608C0 13.3128 0.0811697 14.0464 0.212864 14.764C1.28629 15.1056 2.38043 15.4 3.4903 15.6592C3.40582 17.604 3.0389 18.628 1.95553 19.1584C2.57093 20.1176 3.31388 20.9872 4.16533 21.7504C6.13411 20.4872 6.71307 18.4088 6.8663 16.2944C7.32433 16.3632 7.79147 16.4072 8.25447 16.46V24H12.1084V16.7264C12.4065 16.7328 12.6989 16.7616 12.9988 16.7616C13.2986 16.7616 13.591 16.7328 13.8891 16.7264V24H17.743V16.46C18.206 16.4072 18.6732 16.3624 19.1312 16.2944C19.2844 18.4088 19.8634 20.4864 21.8322 21.7504C22.6836 20.9872 23.4258 20.1176 24.042 19.1584C22.9586 18.6272 22.5925 17.604 22.5072 15.6592C23.6163 15.4 24.7112 15.1064 25.7847 14.7656C25.9163 14.0472 25.9975 13.3144 25.9975 12.5616V12.5592C25.9975 12.5592 25.9975 12.556 25.9975 12.5536L26 12.5528ZM20.2179 12.7896C19.4228 12.9408 18.6243 13.0688 17.8234 13.1704C16.2215 13.3736 14.6114 13.4768 13.0004 13.4768C11.3894 13.4768 9.7793 13.3736 8.17744 13.1704C7.37651 13.0688 6.57806 12.9416 5.78293 12.7896C4.9878 12.6368 4.19515 12.4584 3.40747 12.256C3.4903 9.7688 4.59106 7.5272 6.32047 5.9064C8.04989 4.2856 10.4071 3.2864 13.0012 3.2864C15.5945 3.2864 17.9518 4.2856 19.682 5.9064C21.4114 7.5272 22.5122 9.7688 22.595 12.256C21.8073 12.4584 21.0139 12.6368 20.2196 12.7896H20.2179Z"
        fill="url(#paint0_linear_1905_17391)" />
</svg>
