<svg width="180" height="180" viewBox="0 0 180 180" fill="none" xmlns="http://www.w3.org/2000/svg">
<defs>
    <linearGradient id="paint0_linear_126_708" x1="89.9995" y1="135.594" x2="89.9995" y2="45.5803" gradientUnits="userSpaceOnUse">
        <stop offset="0.03125" stop-color="#8921F1"/>
        <stop offset="0.318203" stop-color="#EE4FFF"/>
    </linearGradient>
    <radialGradient id="paint1_radial_126_708" cx="0" cy="0" r="1" gradientUnits="userSpaceOnUse" gradientTransform="translate(89.9998 102.242) rotate(-90) scale(57.242 79.2439)">
        <stop offset="0.375" stop-color="#FF66BE"/>
        <stop offset="0.921875" stop-color="#FF00A3"/>
    </radialGradient>
</defs>
<rect width="180" height="180" />
<path d="M131.983 87.7047V86.984C131.983 62.9315 111.752 43.5987 87.3734 45.0798C65.1673 46.4325 48.0166 65.1926 48.0166 87.4382V87.7047C48.0166 90.2818 50.1098 92.3652 52.677 92.3652C55.2541 92.3652 57.3374 94.4584 57.3374 97.0256V108.173C57.3374 110.75 59.4307 112.833 61.9978 112.833C64.5749 112.833 66.6582 110.74 66.6582 108.173V97.0256C66.6582 94.4485 68.7515 92.3652 71.3186 92.3652C73.8957 92.3652 75.9791 94.4584 75.9791 97.0256V124.781C75.9791 127.358 78.0723 129.441 80.6395 129.441C83.2165 129.441 85.2999 127.348 85.2999 124.781V97.0256C85.2999 94.4485 87.3931 92.3652 89.9603 92.3652C92.5373 92.3652 94.6207 94.4584 94.6207 97.0256V130.34C94.6207 132.917 96.7139 135 99.2811 135C101.858 135 103.942 132.907 103.942 130.34V97.0256C103.942 94.4485 106.035 92.3652 108.602 92.3652C111.179 92.3652 113.262 94.4584 113.262 97.0256V110.227C113.262 112.804 115.356 114.887 117.923 114.887C120.5 114.887 122.583 112.794 122.583 110.227V97.0256C122.583 94.4485 124.676 92.3652 127.244 92.3652C129.89 92.375 131.983 90.2818 131.983 87.7047Z" fill="url(#paint0_linear_126_708)"/>
<path d="M131.983 87.7047V86.984C131.983 62.9315 111.752 43.5987 87.3734 45.0798C65.1673 46.4325 48.0166 65.1926 48.0166 87.4382V87.7047C48.0166 90.2818 50.1098 92.3652 52.677 92.3652C55.2541 92.3652 57.3374 94.4584 57.3374 97.0256V100.274C57.3374 102.851 59.4307 104.934 61.9978 104.934C64.5749 104.934 66.6582 102.841 66.6582 100.274V97.0256C66.6582 94.4485 68.7515 92.3652 71.3186 92.3652C73.8957 92.3652 75.9791 94.4584 75.9791 97.0256V112.932C75.9791 115.509 78.0723 117.593 80.6395 117.593C83.2165 117.593 85.2999 115.499 85.2999 112.932V97.0256C85.2999 94.4485 87.3931 92.3652 89.9603 92.3652C92.5373 92.3652 94.6207 94.4584 94.6207 97.0256V106.643C94.6207 109.22 96.7139 111.303 99.2811 111.303C101.858 111.303 103.942 109.21 103.942 106.643V97.0256C103.942 94.4485 106.035 92.3652 108.602 92.3652C111.179 92.3652 113.262 94.4584 113.262 97.0256V102.328C113.262 104.905 115.356 106.988 117.923 106.988C120.5 106.988 122.583 104.895 122.583 102.328V97.0256C122.583 94.4485 124.676 92.3652 127.244 92.3652C129.89 92.375 131.983 90.2818 131.983 87.7047Z" fill="url(#paint1_radial_126_708)"/>
<path d="M76.68 72.3906C79.2594 72.3906 81.3503 70.2997 81.3503 67.7203C81.3503 65.141 79.2594 63.05 76.68 63.05C74.1007 63.05 72.0098 65.141 72.0098 67.7203C72.0098 70.2997 74.1007 72.3906 76.68 72.3906Z" fill="#680198"/>
<path d="M103.803 72.3906C106.382 72.3906 108.473 70.2997 108.473 67.7203C108.473 65.141 106.382 63.05 103.803 63.05C101.224 63.05 99.1328 65.141 99.1328 67.7203C99.1328 70.2997 101.224 72.3906 103.803 72.3906Z" fill="#680198"/>
<path d="M90.2468 81.1882C87.7783 81.1882 85.4284 80.1514 83.967 78.4038C83.6511 78.0286 83.7005 77.4657 84.0757 77.1498C84.4509 76.8338 85.0137 76.8832 85.3296 77.2584C86.4552 78.6012 88.2917 79.401 90.2468 79.401C92.2018 79.401 94.0383 78.6012 95.1639 77.2584C95.4798 76.8832 96.0426 76.8338 96.4178 77.1498C96.793 77.4657 96.8424 78.0286 96.5265 78.4038C95.0553 80.1514 92.7152 81.1882 90.2468 81.1882Z" fill="#680198"/>
</svg>
