<svg width="35" height="33" viewBox="0 0 35 33" fill="none" xmlns="http://www.w3.org/2000/svg">
    <defs>
        <radialGradient id="paint0_radial_1802_13297" cx="0" cy="0" r="1" gradientUnits="userSpaceOnUse" gradientTransform="translate(29.4922 5.6262) rotate(55.7977) scale(12.6879 10.6427)">
            <stop stop-color="#D6AEF5"/>
            <stop offset="1" stop-color="#FF00A3"/>
        </radialGradient>
        <clipPath id="clip0_1802_13297">
            <rect width="35" height="33" fill="white"/>
        </clipPath>
    </defs>
    <g clip-path="url(#clip0_1802_13297)">
        <path d="M23.6626 24.6797L21.9785 26.2453C22.6342 26.6367 23.1904 26.9953 23.4924 27.2866C23.7161 27.5033 24.0124 27.6125 24.3087 27.6125C24.5992 27.6125 24.8898 27.5069 25.1134 27.2975C25.5645 26.8734 25.5684 26.1816 25.1249 25.752C24.7598 25.4006 24.2551 25.0492 23.6626 24.6797Z" fill="#F928B3"/>
        <path d="M16.5137 28.2365C15.9307 27.8451 15.2788 27.4064 14.6117 26.8984C13.0137 28.2219 11.9528 29.8658 13.331 32.3817C13.5355 32.7549 13.935 32.9698 14.3498 32.9698C14.5276 32.9698 14.7092 32.9297 14.8793 32.846C15.4413 32.5674 15.6592 31.9066 15.3668 31.3732C14.6633 30.0861 14.9252 29.4235 16.5137 28.2365Z" fill="#F928B3"/>
        <path d="M23.5425 17.5433C22.9174 17.4413 22.3248 17.84 22.2178 18.4335C21.7304 21.1242 20.1973 22.8045 18.4941 24.128C18.7446 24.2991 18.995 24.4684 19.2454 24.6359C19.6353 24.898 20.031 25.1638 20.4152 25.4387C22.2159 23.9386 23.9171 21.907 24.4791 18.8049C24.5843 18.2114 24.1656 17.647 23.5425 17.5433Z" fill="#F928B3"/>
        <path d="M20.7287 33C20.5509 33 20.3693 32.9599 20.1992 32.8762C19.6372 32.5977 19.4193 31.9368 19.7117 31.4034C20.5777 29.8214 19.9774 29.1824 17.2382 27.3437C14.7896 25.6998 11.4348 23.4497 10.6014 18.8402C10.4944 18.2449 10.913 17.6806 11.5362 17.5786C12.1612 17.4749 12.7538 17.8754 12.8608 18.4688C13.5337 22.1863 16.2041 23.9776 18.5591 25.5578C20.937 27.1544 23.6342 28.964 21.7437 32.4138C21.543 32.7852 21.1435 33 20.7287 33Z" fill="#F928B3"/>
        <path d="M7.56029 24.0035C6.97919 24.0035 6.48028 23.5829 6.42103 23.0204C6.19929 20.9068 7.33282 18.3326 8.53326 17.2549C8.99394 16.8416 9.72031 16.8599 10.1542 17.3004C10.5881 17.7391 10.569 18.4309 10.1064 18.8442C9.44506 19.4395 8.54664 21.3219 8.70147 22.8037C8.76455 23.4045 8.30579 23.9397 7.67499 23.9998C7.63867 24.0016 7.59852 24.0035 7.56029 24.0035Z" fill="#F928B3"/>
        <path d="M27.4589 24.0044C27.4207 24.0044 27.3825 24.0025 27.3423 23.9989C26.7115 23.9388 26.2528 23.4036 26.3158 22.8028C26.4726 21.3228 25.5742 19.4404 24.9109 18.8433C24.4502 18.4282 24.4292 17.7382 24.865 17.2995C25.3008 16.8608 26.0253 16.8407 26.486 17.2558C27.6864 18.3354 28.8199 20.9095 28.5982 23.0213C28.5408 23.5838 28.0419 24.0044 27.4589 24.0044Z" fill="#F928B3"/>
        <path opacity="0.43" d="M35 13.022C35 5.8292 27.1647 0 17.5 0C7.83534 0 0 5.8292 0 13.022C0 15.8728 9.83861 19.3554 17.5 19.3554C26.7441 19.3554 35 15.6963 35 13.022Z" fill="url(#paint0_radial_1802_13297)"/>
        <path d="M17.5094 19.5563C11.253 19.5563 2.52686 17.3699 2.52686 13.809C2.52686 7.53017 9.24777 2.42188 17.5094 2.42188C25.771 2.42188 32.4919 7.53017 32.4919 13.809C32.4919 15.371 30.7926 16.842 27.7054 17.9525C24.8267 18.9865 21.2063 19.5563 17.5094 19.5563ZM17.5094 4.60464C10.5132 4.60464 4.82068 8.73351 4.82068 13.8072C4.82068 13.9911 5.45913 14.9523 8.4067 15.9517C11.0675 16.8529 14.3859 17.3717 17.5094 17.3717C20.887 17.3717 24.3068 16.8383 26.895 15.9081C29.6112 14.9323 30.1981 13.9893 30.1981 13.809C30.2 8.73351 24.5075 4.60464 17.5094 4.60464Z" fill="#F928B3"/>
        <path d="M31.9585 7.99218C31.6145 7.99218 31.2761 7.84654 31.0487 7.56618C30.0107 6.28456 28.6593 5.17588 27.0306 4.2711C26.4839 3.96708 26.2985 3.29896 26.6177 2.77648C26.937 2.25582 27.6385 2.07923 28.1871 2.38325C30.0719 3.43003 31.647 4.7244 32.8665 6.23177C33.2526 6.70873 33.159 7.39506 32.6582 7.76462C32.4498 7.91754 32.2032 7.99218 31.9585 7.99218Z" fill="white"/>
        <path d="M12.9469 11.6857C11.8191 11.6857 10.7372 11.1431 9.97448 10.1983C9.58835 9.71953 9.68393 9.0332 10.1867 8.66729C10.6894 8.29955 11.4081 8.39057 11.7942 8.86936C12.123 9.27715 12.5321 9.50107 12.9469 9.50107C13.3617 9.50107 13.7708 9.27715 14.0995 8.86936C14.4857 8.39057 15.2044 8.30137 15.7071 8.66729C16.2099 9.03502 16.3035 9.71953 15.9193 10.1983C15.1585 11.1431 14.0747 11.6857 12.9469 11.6857Z" fill="#F928B3"/>
        <path d="M22.0726 11.6857C20.9448 11.6857 19.8629 11.1431 19.1002 10.1983C18.7141 9.71953 18.8097 9.0332 19.3124 8.66729C19.8151 8.29955 20.5339 8.39057 20.92 8.86936C21.2488 9.27715 21.6578 9.50107 22.0726 9.50107C22.4874 9.50107 22.8965 9.27715 23.2253 8.86936C23.6114 8.39057 24.3301 8.30137 24.8329 8.66729C25.3356 9.03502 25.4293 9.71953 25.0451 10.1983C24.2843 11.1431 23.2004 11.6857 22.0726 11.6857Z" fill="#F928B3"/>
        <path d="M17.3739 23.3192C18.8247 22.1851 19.92 20.8707 19.92 19.3032C19.92 18.7006 19.4058 18.2109 18.7731 18.2109C18.1404 18.2109 17.6262 18.7006 17.6262 19.3032C17.6262 20.1188 16.8062 20.9763 15.7185 21.7864C16.2117 22.358 16.7775 22.8586 17.3739 23.3192Z" fill="#F928B3"/>
        <path d="M11.8017 24.2148C10.8708 24.761 10.0795 25.258 9.56144 25.7568C9.11606 26.1864 9.12179 26.8782 9.57291 27.3024C9.79656 27.5118 10.0871 27.6173 10.3777 27.6173C10.6739 27.6173 10.9702 27.5081 11.1939 27.2915C11.5915 26.9073 12.4326 26.4049 13.3635 25.8642C12.8225 25.3745 12.293 24.8283 11.8017 24.2148Z" fill="#F928B3"/>
    </g>
</svg>
