<svg width="335" height="180" viewBox="0 0 335 180" fill="none" xmlns="http://www.w3.org/2000/svg">
    <defs>
        <linearGradient id="paint0_linear_126_871" x1="86.8891" y1="135.594" x2="86.8891"
            y2="45.5803" gradientUnits="userSpaceOnUse">
            <stop offset="0.03125" stop-color="#8921F1"/>
            <stop offset="0.318203" stop-color="#D553E3" />
        </linearGradient>
        <radialGradient id="paint1_radial_126_871" cx="0" cy="0" r="1"
            gradientUnits="userSpaceOnUse"
            gradientTransform="translate(86.8894 117.593) rotate(-90) scale(72.5926 133.76)">
            <stop offset="0.429461" stop-color="#FF66BE" />
            <stop offset="0.979167" stop-color="#FF00A3" />
        </radialGradient>
    </defs>
    <rect width="335" height="180" fill="none" />
    <path
        d="M128.873 87.7047V86.984C128.873 62.9315 108.641 43.5987 84.263 45.0798C62.057 46.4325 44.9062 65.1926 44.9062 87.4382V87.7047C44.9062 90.2818 46.9995 92.3652 49.5667 92.3652C52.1437 92.3652 54.2271 94.4584 54.2271 97.0256V108.173C54.2271 110.75 56.3203 112.833 58.8875 112.833C61.4645 112.833 63.5479 110.74 63.5479 108.173V97.0256C63.5479 94.4485 65.6411 92.3652 68.2083 92.3652C70.7853 92.3652 72.8687 94.4584 72.8687 97.0256V124.781C72.8687 127.358 74.9619 129.441 77.5291 129.441C80.1062 129.441 82.1895 127.348 82.1895 124.781V97.0256C82.1895 94.4485 84.2828 92.3652 86.8499 92.3652C89.427 92.3652 91.5103 94.4584 91.5103 97.0256V130.34C91.5103 132.917 93.6036 135 96.1707 135C98.7478 135 100.831 132.907 100.831 130.34V97.0256C100.831 94.4485 102.924 92.3652 105.492 92.3652C108.069 92.3652 110.152 94.4584 110.152 97.0256V110.227C110.152 112.804 112.245 114.887 114.812 114.887C117.389 114.887 119.473 112.794 119.473 110.227V97.0256C119.473 94.4485 121.566 92.3652 124.133 92.3652C126.779 92.375 128.873 90.2818 128.873 87.7047Z"
        fill="url(#paint0_linear_126_871)" />
    <path
        d="M128.873 87.7047V86.984C128.873 62.9315 108.641 43.5987 84.263 45.0798C62.057 46.4325 44.9062 65.1926 44.9062 87.4382V87.7047C44.9062 90.2818 46.9995 92.3652 49.5667 92.3652C52.1437 92.3652 54.2271 94.4584 54.2271 97.0256V100.274C54.2271 102.851 56.3203 104.934 58.8875 104.934C61.4645 104.934 63.5479 102.841 63.5479 100.274V97.0256C63.5479 94.4485 65.6411 92.3652 68.2083 92.3652C70.7853 92.3652 72.8687 94.4584 72.8687 97.0256V112.932C72.8687 115.509 74.9619 117.593 77.5291 117.593C80.1062 117.593 82.1895 115.499 82.1895 112.932V97.0256C82.1895 94.4485 84.2828 92.3652 86.8499 92.3652C89.427 92.3652 91.5103 94.4584 91.5103 97.0256V106.643C91.5103 109.22 93.6036 111.303 96.1707 111.303C98.7478 111.303 100.831 109.21 100.831 106.643V97.0256C100.831 94.4485 102.924 92.3652 105.492 92.3652C108.069 92.3652 110.152 94.4584 110.152 97.0256V102.328C110.152 104.905 112.245 106.988 114.812 106.988C117.389 106.988 119.473 104.895 119.473 102.328V97.0256C119.473 94.4485 121.566 92.3652 124.133 92.3652C126.779 92.375 128.873 90.2818 128.873 87.7047Z"
        fill="url(#paint1_radial_126_871)" />
    <path
        d="M73.5692 72.3904C76.1485 72.3904 78.2395 70.2994 78.2395 67.7201C78.2395 65.1408 76.1485 63.0498 73.5692 63.0498C70.9899 63.0498 68.8989 65.1408 68.8989 67.7201C68.8989 70.2994 70.9899 72.3904 73.5692 72.3904Z"
        fill="#1E0036" />
    <path
        d="M100.692 72.3904C103.272 72.3904 105.363 70.2994 105.363 67.7201C105.363 65.1408 103.272 63.0498 100.692 63.0498C98.1129 63.0498 96.022 65.1408 96.022 67.7201C96.022 70.2994 98.1129 72.3904 100.692 72.3904Z"
        fill="#1E0036" />
    <path
        d="M87.1359 81.1882C84.6675 81.1882 82.3175 80.1514 80.8562 78.4038C80.5402 78.0286 80.5896 77.4657 80.9648 77.1498C81.34 76.8338 81.9028 76.8832 82.2188 77.2584C83.3444 78.6012 85.1809 79.401 87.1359 79.401C89.0909 79.401 90.9274 78.6012 92.053 77.2584C92.369 76.8832 92.9318 76.8338 93.307 77.1498C93.6822 77.4657 93.7316 78.0286 93.4156 78.4038C91.9444 80.1514 89.6043 81.1882 87.1359 81.1882Z"
        fill="#1E0036" />
    <path
        d="M162.042 98.4929C169.417 98.4929 173.809 94.3397 173.809 87.012V66.7713C173.809 64.3844 172.472 63 170.205 63C167.937 63 166.601 64.3844 166.601 66.7713V86.9643C166.601 90.4252 164.978 92.287 161.97 92.287C159.679 92.287 158.079 90.9981 157.435 88.6828C156.862 86.7256 155.812 85.8663 153.998 85.8663C151.969 85.8663 150.656 87.1791 150.656 89.2557C150.656 90.3059 150.847 91.1652 151.253 92.1677C152.876 96.1299 156.862 98.4929 162.042 98.4929Z"
        fill="#FF00A3" />
    <path
        d="M183.917 97.92H200.291C202.272 97.92 203.561 96.7982 203.561 94.9364C203.561 93.0747 202.248 91.9528 200.291 91.9528H187.521V83.2646H199.67C201.484 83.2646 202.678 82.2144 202.678 80.4958C202.678 78.7773 201.461 77.727 199.67 77.727H187.521V69.4446H200.291C202.248 69.4446 203.561 68.3227 203.561 66.461C203.561 64.5992 202.272 63.4774 200.291 63.4774H183.917C181.649 63.4774 180.313 64.8618 180.313 67.2248V94.1488C180.313 96.5357 181.649 97.92 183.917 97.92Z"
        fill="#FF00A3" />
    <path
        d="M212.428 97.92H228.253C230.234 97.92 231.523 96.7982 231.523 94.9364C231.523 93.0747 230.21 91.9528 228.253 91.9528H216.032V66.7713C216.032 64.3844 214.695 63 212.428 63C210.16 63 208.824 64.3844 208.824 66.7713V94.1488C208.824 96.5357 210.16 97.92 212.428 97.92Z"
        fill="#FF00A3" />
    <path
        d="M239.459 97.92H255.284C257.265 97.92 258.554 96.7982 258.554 94.9364C258.554 93.0747 257.241 91.9528 255.284 91.9528H243.063V66.7713C243.063 64.3844 241.726 63 239.459 63C237.191 63 235.854 64.3844 235.854 66.7713V94.1488C235.854 96.5357 237.191 97.92 239.459 97.92Z"
        fill="#FF00A3" />
    <path
        d="M270.786 105.894C273.054 105.894 274.39 104.51 274.39 102.147V85.0548L284.892 68.8001C285.418 67.9647 285.656 67.177 285.656 66.3416C285.656 64.4321 284.129 63 282.1 63C280.668 63 279.737 63.6445 278.83 65.2198L270.929 78.1806H270.762L262.885 65.2198C261.931 63.5729 261.095 63 259.544 63C257.467 63 255.94 64.4321 255.94 66.3894C255.94 67.2009 256.154 68.0124 256.68 68.824L267.182 85.0548V102.147C267.182 104.51 268.518 105.894 270.786 105.894Z"
        fill="#FF00A3" />
    <path
        d="M188.715 119.211C189.459 119.211 189.881 118.862 190.101 118.036L192.552 109.471H192.644L195.095 118.036C195.325 118.871 195.729 119.211 196.491 119.211C197.216 119.211 197.62 118.853 197.84 118.036L200.787 107.469C200.87 107.166 200.906 106.918 200.906 106.717C200.906 106.065 200.447 105.652 199.74 105.652C199.125 105.652 198.74 105.982 198.593 106.643L196.381 115.842H196.307L193.874 106.744C193.672 106 193.278 105.652 192.607 105.652C191.91 105.652 191.524 105.982 191.322 106.772L188.889 115.842H188.816L186.603 106.643C186.457 105.991 186.071 105.652 185.456 105.652C184.749 105.652 184.29 106.065 184.29 106.717C184.29 106.928 184.327 107.176 184.409 107.469L187.347 118.027C187.577 118.853 187.981 119.211 188.715 119.211Z"
        fill="#FF00A3" />
    <path
        d="M202.233 119.211C202.848 119.211 203.197 118.908 203.417 118.192L204.289 115.677H209.237L210.109 118.21C210.321 118.917 210.679 119.211 211.321 119.211C212.01 119.211 212.506 118.761 212.506 118.118C212.506 117.907 212.46 117.696 212.349 117.393L208.494 106.928C208.163 106.037 207.631 105.652 206.759 105.652C205.896 105.652 205.363 106.056 205.042 106.937L201.195 117.393C201.085 117.678 201.039 117.935 201.039 118.118C201.039 118.789 201.508 119.211 202.233 119.211ZM204.849 113.804L206.713 108.149H206.777L208.659 113.804H204.849Z"
        fill="#FF00A3" />
    <path
        d="M215.604 119.055H221.865C222.516 119.055 222.948 118.669 222.948 118.054C222.948 117.439 222.507 117.054 221.865 117.054H216.788V106.882C216.788 106.101 216.347 105.652 215.604 105.652C214.869 105.652 214.419 106.101 214.419 106.882V117.825C214.419 118.596 214.869 119.055 215.604 119.055Z"
        fill="#FF00A3" />
    <path
        d="M225.872 119.055H232.133C232.784 119.055 233.216 118.669 233.216 118.054C233.216 117.439 232.775 117.054 232.133 117.054H227.056V106.882C227.056 106.101 226.615 105.652 225.872 105.652C225.137 105.652 224.687 106.101 224.687 106.882V117.825C224.687 118.596 225.137 119.055 225.872 119.055Z"
        fill="#FF00A3" />
    <path
        d="M236.14 119.055H242.593C243.245 119.055 243.677 118.669 243.677 118.054C243.677 117.439 243.245 117.054 242.593 117.054H237.324V113.271H242.318C242.933 113.271 243.337 112.904 243.337 112.326C243.337 111.747 242.924 111.389 242.318 111.389H237.324V107.809H242.593C243.245 107.809 243.677 107.423 243.677 106.808C243.677 106.193 243.245 105.808 242.593 105.808H236.14C235.405 105.808 234.955 106.267 234.955 107.038V117.825C234.955 118.596 235.405 119.055 236.14 119.055Z"
        fill="#FF00A3" />
    <path
        d="M250.19 119.211C250.934 119.211 251.374 118.761 251.374 117.981V107.809H254.404C255.046 107.809 255.487 107.423 255.487 106.808C255.487 106.193 255.056 105.808 254.404 105.808H245.985C245.334 105.808 244.902 106.193 244.902 106.808C244.902 107.423 245.343 107.809 245.985 107.809H249.015V117.981C249.015 118.761 249.456 119.211 250.19 119.211Z"
        fill="#FF00A3" />
</svg>
