<svg width="75" height="32" viewBox="0 0 75 32" fill="none" xmlns="http://www.w3.org/2000/svg">
    <path d="M6.32523 19.7183C10.4227 19.7183 12.8626 17.411 12.8626 13.34V2.09515C12.8626 0.769106 12.12 0 10.8603 0C9.60056 0 8.85798 0.769106 8.85798 2.09515V13.3135C8.85798 15.2362 7.95626 16.2706 6.28545 16.2706C5.01245 16.2706 4.124 15.5545 3.76597 14.2682C3.44771 13.1809 2.86426 12.7035 1.85646 12.7035C0.729324 12.7035 0 13.4328 0 14.5865C0 15.1699 0.106084 15.6473 0.331511 16.2043C1.23322 18.4055 3.44771 19.7183 6.32523 19.7183Z" fill="#FF00A3"/>
    <path d="M18.4782 19.4H27.5748C28.6754 19.4 29.3915 18.7768 29.3915 17.7425C29.3915 16.7082 28.6622 16.0849 27.5748 16.0849H20.4805V11.2581H27.2301C28.2378 11.2581 28.9009 10.6747 28.9009 9.7199C28.9009 8.76515 28.2246 8.18169 27.2301 8.18169H20.4805V3.58032H27.5748C28.6622 3.58032 29.3915 2.95708 29.3915 1.92276C29.3915 0.88845 28.6754 0.265209 27.5748 0.265209H18.4782C17.2184 0.265209 16.4758 1.03431 16.4758 2.3471V17.3049C16.4758 18.6309 17.2184 19.4 18.4782 19.4Z" fill="#FF00A3"/>
    <path d="M34.3175 19.4H43.1092C44.2098 19.4 44.9258 18.7768 44.9258 17.7425C44.9258 16.7082 44.1965 16.0849 43.1092 16.0849H36.3198V2.09515C36.3198 0.769106 35.5772 0 34.3175 0C33.0578 0 32.3152 0.769106 32.3152 2.09515V17.3049C32.3152 18.6309 33.0578 19.4 34.3175 19.4Z" fill="#FF00A3"/>
    <path d="M49.3347 19.4H58.1263C59.227 19.4 59.943 18.7768 59.943 17.7425C59.943 16.7082 59.2137 16.0849 58.1263 16.0849H51.337V2.09515C51.337 0.769106 50.5944 0 49.3347 0C48.0749 0 47.3323 0.769106 47.3323 2.09515V17.3049C47.3323 18.6309 48.0749 19.4 49.3347 19.4Z" fill="#FF00A3"/>
    <path d="M66.7387 23.83C67.9985 23.83 68.7411 23.0609 68.7411 21.7481V12.2526L74.5757 3.22229C74.8674 2.75817 75 2.32058 75 1.85646C75 0.795626 74.1513 0 73.0242 0C72.2286 0 71.7114 0.358032 71.2075 1.23322L66.8183 8.43364H66.7255L62.3495 1.23322C61.8191 0.318251 61.355 0 60.4931 0C59.3394 0 58.4907 0.795626 58.4907 1.88298C58.4907 2.33384 58.6101 2.78469 58.9018 3.23555L64.7364 12.2526V21.7481C64.7364 23.0609 65.479 23.83 66.7387 23.83Z" fill="#FF00A3"/>
    <path d="M21.1433 31.2283C21.5565 31.2283 21.7911 31.0345 21.9135 30.5755L23.2752 25.817H23.3262L24.688 30.5755C24.8155 31.0396 25.0399 31.2283 25.4632 31.2283C25.8661 31.2283 26.0905 31.0294 26.2129 30.5755L27.8501 24.7052C27.896 24.5369 27.9164 24.3992 27.9164 24.287C27.9164 23.9249 27.6614 23.6954 27.2686 23.6954C26.9269 23.6954 26.7127 23.879 26.6311 24.2462L25.402 29.3566H25.3612L24.0096 24.3023C23.8974 23.8892 23.6781 23.6954 23.3058 23.6954C22.9182 23.6954 22.704 23.879 22.5918 24.3176L21.2402 29.3566H21.1994L19.9703 24.2462C19.8887 23.8841 19.6745 23.6954 19.3328 23.6954C18.9401 23.6954 18.6851 23.9249 18.6851 24.287C18.6851 24.4043 18.7055 24.542 18.7514 24.7052L20.3834 30.5704C20.5109 31.0294 20.7353 31.2283 21.1433 31.2283Z" fill="#FF00A3"/>
    <path d="M28.6532 31.2283C28.995 31.2283 29.1888 31.06 29.3112 30.6622L29.7957 29.2648H32.5447L33.0292 30.6724C33.1465 31.0651 33.3454 31.2283 33.7024 31.2283C34.0849 31.2283 34.3603 30.9784 34.3603 30.6214C34.3603 30.5041 34.3348 30.3868 34.2736 30.2185L32.1316 24.4043C31.948 23.9096 31.6521 23.6954 31.1676 23.6954C30.6882 23.6954 30.3924 23.9198 30.2139 24.4094L28.0769 30.2185C28.0157 30.3766 27.9902 30.5194 27.9902 30.6214C27.9902 30.9937 28.2503 31.2283 28.6532 31.2283ZM30.1068 28.2243L31.1421 25.0826H31.1778L32.2234 28.2243H30.1068Z" fill="#FF00A3"/>
    <path d="M36.0815 31.1416H39.5599C39.922 31.1416 40.1617 30.9274 40.1617 30.5857C40.1617 30.244 39.9169 30.0298 39.5599 30.0298H36.7395V24.3788C36.7395 23.9453 36.4946 23.6954 36.0815 23.6954C35.6735 23.6954 35.4236 23.9453 35.4236 24.3788V30.4582C35.4236 30.8866 35.6735 31.1416 36.0815 31.1416Z" fill="#FF00A3"/>
    <path d="M41.786 31.1416H45.2643C45.6264 31.1416 45.8661 30.9274 45.8661 30.5857C45.8661 30.244 45.6213 30.0298 45.2643 30.0298H42.4439V24.3788C42.4439 23.9453 42.1991 23.6954 41.786 23.6954C41.378 23.6954 41.1281 23.9453 41.1281 24.3788V30.4582C41.1281 30.8866 41.378 31.1416 41.786 31.1416Z" fill="#FF00A3"/>
    <path d="M47.4904 31.1416H51.0758C51.4379 31.1416 51.6777 30.9274 51.6777 30.5857C51.6777 30.244 51.4379 30.0298 51.0758 30.0298H48.1483V27.9285H50.9228C51.2645 27.9285 51.4889 27.7245 51.4889 27.4032C51.4889 27.0819 51.2594 26.883 50.9228 26.883H48.1483V24.8939H51.0758C51.4379 24.8939 51.6777 24.6797 51.6777 24.338C51.6777 23.9963 51.4379 23.7821 51.0758 23.7821H47.4904C47.0824 23.7821 46.8325 24.0371 46.8325 24.4655V30.4582C46.8325 30.8866 47.0824 31.1416 47.4904 31.1416Z" fill="#FF00A3"/>
    <path d="M55.2961 31.2283C55.7092 31.2283 55.954 30.9784 55.954 30.5449V24.8939H57.6371C57.9941 24.8939 58.2389 24.6797 58.2389 24.338C58.2389 23.9963 57.9992 23.7821 57.6371 23.7821H52.9602C52.5981 23.7821 52.3584 23.9963 52.3584 24.338C52.3584 24.6797 52.6032 24.8939 52.9602 24.8939H54.6433V30.5449C54.6433 30.9784 54.8881 31.2283 55.2961 31.2283Z" fill="#FF00A3"/>
</svg>
