<svg id="medium-level" xmlns="http://www.w3.org/2000/svg" width="72.338" height="64.19" viewBox="0 0 72.338 64.19">
    <path d="M60.9,17.065a32.422,32.422,0,0,0-18.926-7.4v8.99H38.361V9.665a32.422,32.422,0,0,0-18.926,7.4l5.427,5.425L22.3,25.047l-5.527-5.525a32.4,32.4,0,0,0-8.963,19.02h7.132v3.616H7.617a32.357,32.357,0,0,0,6.988,20.117L19.883,57l2.558,2.557-5.435,5.433.034.034L14.47,67.567a36.169,36.169,0,1,1,50.864.528l-2.516-2.6.023-.022-6.288-6.286,2.558-2.557L65.3,62.815a32.364,32.364,0,0,0,7.426-20.658h-7.8V38.541h7.608a32.4,32.4,0,0,0-8.963-19.02l-5.308,5.306L55.7,22.27Z" transform="translate(-4 -6)" fill="#fafafa"/>
    <path d="M20.631,53.526a3.283,3.283,0,0,0,.662,2.225l3.909,4.5c2.289,1,3.305,1,5.222,0l3.909-4.5A3.283,3.283,0,0,0,35,53.526L30.154,25.459c-.293-4.061-4.411-4.1-4.7-.037Z" transform="translate(8.635 3.194)" fill="#fafafa"/>
</svg>
