<svg width="21" height="22" viewBox="0 0 21 22" fill="none" xmlns="http://www.w3.org/2000/svg">
    <g clip-path="url(#clip0_2928_4312)">
        <path d="M16.5 7.04961V3.64961C16.5 3.24961 16.2 2.94961 15.8 2.94961H11.1V1.64961C11.1 0.949609 10.5 0.349609 9.8 0.349609H7.2C6.4 0.349609 5.8 0.949609 5.8 1.64961V2.94961H1.2C0.8 3.04961 0.5 3.34961 0.5 3.64961V16.9496C0.5 17.3496 0.8 17.6496 1.2 17.6496H7.2V21.6496H16.5L20.5 17.6496V7.04961H16.5ZM7.2 1.64961H9.9V2.94961H7.2V1.64961ZM3.2 5.64961V4.34961H13.9V5.64961H3.2ZM16.5 19.7496V17.6496H18.6L16.5 19.7496ZM19.2 16.3496H15.2V20.3496H8.5V8.34961H19.2V16.3496Z" fill="#FF00A3"/>
    </g>
    <defs>
        <clipPath id="clip0_2928_4312">
            <rect width="20" height="21.3" fill="white" transform="translate(0.5 0.349609)"/>
        </clipPath>
    </defs>
</svg>
