<svg width="66" height="36" viewBox="0 0 66 36" fill="none" xmlns="http://www.w3.org/2000/svg">
    <path d="M17.0427 4.19342H17.8406V4.82297H17.8772C17.9602 4.5936 18.0944 4.41791 18.2798 4.2959C18.4701 4.16902 18.6922 4.10558 18.946 4.10558C19.4291 4.10558 19.8024 4.28126 20.066 4.63264C20.3295 4.97914 20.4613 5.46716 20.4613 6.09671C20.4613 6.72626 20.3295 7.21672 20.066 7.5681C19.8024 7.9146 19.4291 8.08784 18.946 8.08784C18.6922 8.08784 18.4701 8.0244 18.2798 7.89752C18.0944 7.77063 17.9602 7.59494 17.8772 7.37045H17.8406V9.46407H17.0427V4.19342ZM18.7044 7.39973C18.9826 7.39973 19.2046 7.31189 19.3705 7.1362C19.5365 6.95563 19.6194 6.71894 19.6194 6.42613V5.76729C19.6194 5.47448 19.5365 5.24023 19.3705 5.06454C19.2046 4.88397 18.9826 4.79369 18.7044 4.79369C18.4604 4.79369 18.2554 4.85469 18.0895 4.9767C17.9235 5.09382 17.8406 5.24999 17.8406 5.4452V6.74822C17.8406 6.94343 17.9235 7.10204 18.0895 7.22404C18.2554 7.34117 18.4604 7.39973 18.7044 7.39973ZM22.8682 8.08784C22.6046 8.08784 22.3631 8.04148 22.1435 7.94876C21.9287 7.85603 21.7457 7.72427 21.5944 7.55346C21.4431 7.37777 21.326 7.16792 21.2431 6.92391C21.1601 6.67502 21.1186 6.39928 21.1186 6.09671C21.1186 5.79414 21.1601 5.52084 21.2431 5.27683C21.326 5.02794 21.4431 4.81809 21.5944 4.64728C21.7457 4.47159 21.9287 4.33739 22.1435 4.24466C22.3631 4.15194 22.6046 4.10558 22.8682 4.10558C23.1317 4.10558 23.3708 4.15194 23.5856 4.24466C23.8052 4.33739 23.9906 4.47159 24.1419 4.64728C24.2932 4.81809 24.4103 5.02794 24.4933 5.27683C24.5763 5.52084 24.6177 5.79414 24.6177 6.09671C24.6177 6.39928 24.5763 6.67502 24.4933 6.92391C24.4103 7.16792 24.2932 7.37777 24.1419 7.55346C23.9906 7.72427 23.8052 7.85603 23.5856 7.94876C23.3708 8.04148 23.1317 8.08784 22.8682 8.08784ZM22.8682 7.42901C23.1415 7.42901 23.3611 7.34605 23.527 7.18012C23.6929 7.00931 23.7759 6.75554 23.7759 6.4188V5.77461C23.7759 5.43788 23.6929 5.18655 23.527 5.02062C23.3611 4.84981 23.1415 4.76441 22.8682 4.76441C22.5949 4.76441 22.3753 4.84981 22.2093 5.02062C22.0434 5.18655 21.9605 5.43788 21.9605 5.77461V6.4188C21.9605 6.75554 22.0434 7.00931 22.2093 7.18012C22.3753 7.34605 22.5949 7.42901 22.8682 7.42901ZM25.0761 4.19342H25.8521L26.2401 5.78925L26.5841 7.23136H26.6061L27.0014 5.78925L27.4626 4.19342H28.1799L28.6484 5.78925L29.0511 7.23136H29.073L29.4098 5.78925L29.8051 4.19342H30.5444L29.5196 8H28.6192L28.1214 6.26508L27.8139 5.19631H27.7993L27.4992 6.26508L26.9941 8H26.1156L25.0761 4.19342ZM32.7478 8.08784C32.4745 8.08784 32.2305 8.04148 32.0158 7.94876C31.801 7.85603 31.618 7.72427 31.4667 7.55346C31.3154 7.37777 31.1983 7.16792 31.1153 6.92391C31.0373 6.67502 30.9982 6.39928 30.9982 6.09671C30.9982 5.79414 31.0373 5.52084 31.1153 5.27683C31.1983 5.02794 31.3154 4.81809 31.4667 4.64728C31.618 4.47159 31.801 4.33739 32.0158 4.24466C32.2305 4.15194 32.4745 4.10558 32.7478 4.10558C33.026 4.10558 33.27 4.15438 33.4798 4.25198C33.6946 4.34959 33.8727 4.48623 34.0142 4.66192C34.1557 4.83273 34.2607 5.03282 34.329 5.26219C34.4022 5.49156 34.4388 5.73801 34.4388 6.00155V6.30168H31.8254V6.42613C31.8254 6.71894 31.9108 6.96051 32.0816 7.15084C32.2573 7.33629 32.5062 7.42901 32.8283 7.42901C33.0626 7.42901 33.2602 7.37777 33.4213 7.27529C33.5823 7.1728 33.719 7.03371 33.8312 6.85803L34.2997 7.31921C34.1582 7.55346 33.9532 7.74135 33.6848 7.88287C33.4164 8.01952 33.104 8.08784 32.7478 8.08784ZM32.7478 4.7278C32.6111 4.7278 32.4843 4.75221 32.3671 4.80101C32.2549 4.84981 32.1573 4.91813 32.0743 5.00598C31.9962 5.09382 31.9352 5.19875 31.8913 5.32075C31.8474 5.44276 31.8254 5.57696 31.8254 5.72337V5.77461H33.5969V5.70141C33.5969 5.4086 33.5213 5.17435 33.37 4.99866C33.2187 4.81809 33.0113 4.7278 32.7478 4.7278ZM35.3221 8V4.19342H36.12V4.92545H36.1566C36.2103 4.73024 36.3225 4.55944 36.4933 4.41303C36.6642 4.26662 36.9008 4.19342 37.2034 4.19342H37.4157V4.96206H37.1009C36.7837 4.96206 36.5397 5.0133 36.3689 5.11578C36.203 5.21827 36.12 5.36956 36.12 5.56964V8H35.3221ZM39.582 8.08784C39.3087 8.08784 39.0647 8.04148 38.85 7.94876C38.6353 7.85603 38.4522 7.72427 38.301 7.55346C38.1497 7.37777 38.0325 7.16792 37.9496 6.92391C37.8715 6.67502 37.8325 6.39928 37.8325 6.09671C37.8325 5.79414 37.8715 5.52084 37.9496 5.27683C38.0325 5.02794 38.1497 4.81809 38.301 4.64728C38.4522 4.47159 38.6353 4.33739 38.85 4.24466C39.0647 4.15194 39.3087 4.10558 39.582 4.10558C39.8602 4.10558 40.1042 4.15438 40.3141 4.25198C40.5288 4.34959 40.7069 4.48623 40.8484 4.66192C40.99 4.83273 41.0949 5.03282 41.1632 5.26219C41.2364 5.49156 41.273 5.73801 41.273 6.00155V6.30168H38.6597V6.42613C38.6597 6.71894 38.7451 6.96051 38.9159 7.15084C39.0916 7.33629 39.3404 7.42901 39.6625 7.42901C39.8968 7.42901 40.0944 7.37777 40.2555 7.27529C40.4165 7.1728 40.5532 7.03371 40.6654 6.85803L41.1339 7.31921C40.9924 7.55346 40.7874 7.74135 40.519 7.88287C40.2506 8.01952 39.9383 8.08784 39.582 8.08784ZM39.582 4.7278C39.4454 4.7278 39.3185 4.75221 39.2014 4.80101C39.0891 4.84981 38.9915 4.91813 38.9085 5.00598C38.8305 5.09382 38.7695 5.19875 38.7255 5.32075C38.6816 5.44276 38.6597 5.57696 38.6597 5.72337V5.77461H40.4312V5.70141C40.4312 5.4086 40.3555 5.17435 40.2042 4.99866C40.053 4.81809 39.8455 4.7278 39.582 4.7278ZM44.5501 7.37045H44.5135C44.4305 7.59494 44.2939 7.77063 44.1035 7.89752C43.9181 8.0244 43.6985 8.08784 43.4447 8.08784C42.9616 8.08784 42.5882 7.9146 42.3247 7.5681C42.0612 7.21672 41.9294 6.72626 41.9294 6.09671C41.9294 5.46716 42.0612 4.97914 42.3247 4.63264C42.5882 4.28126 42.9616 4.10558 43.4447 4.10558C43.6985 4.10558 43.9181 4.16902 44.1035 4.2959C44.2939 4.41791 44.4305 4.5936 44.5135 4.82297H44.5501V2.58294H45.348V8H44.5501V7.37045ZM43.6863 7.39973C43.9303 7.39973 44.1353 7.34117 44.3012 7.22404C44.4671 7.10204 44.5501 6.94343 44.5501 6.74822V5.4452C44.5501 5.24999 44.4671 5.09382 44.3012 4.9767C44.1353 4.85469 43.9303 4.79369 43.6863 4.79369C43.4081 4.79369 43.186 4.88397 43.0201 5.06454C42.8542 5.24023 42.7712 5.47448 42.7712 5.76729V6.42613C42.7712 6.71894 42.8542 6.95563 43.0201 7.1362C43.186 7.31189 43.4081 7.39973 43.6863 7.39973ZM48.2185 2.58294H49.0164V4.82297H49.053C49.136 4.5936 49.2702 4.41791 49.4556 4.2959C49.646 4.16902 49.868 4.10558 50.1218 4.10558C50.6049 4.10558 50.9783 4.28126 51.2418 4.63264C51.5053 4.97914 51.6371 5.46716 51.6371 6.09671C51.6371 6.72626 51.5053 7.21672 51.2418 7.5681C50.9783 7.9146 50.6049 8.08784 50.1218 8.08784C49.868 8.08784 49.646 8.0244 49.4556 7.89752C49.2702 7.77063 49.136 7.59494 49.053 7.37045H49.0164V8H48.2185V2.58294ZM49.8802 7.39973C50.1584 7.39973 50.3804 7.31189 50.5464 7.1362C50.7123 6.95563 50.7952 6.71894 50.7952 6.42613V5.76729C50.7952 5.47448 50.7123 5.24023 50.5464 5.06454C50.3804 4.88397 50.1584 4.79369 49.8802 4.79369C49.6362 4.79369 49.4312 4.85469 49.2653 4.9767C49.0994 5.09382 49.0164 5.24999 49.0164 5.4452V6.74822C49.0164 6.94343 49.0994 7.10204 49.2653 7.22404C49.4312 7.34117 49.6362 7.39973 49.8802 7.39973ZM54.8358 4.19342H55.6044L54.0013 8.754C53.9573 8.88088 53.9061 8.98825 53.8475 9.07609C53.7939 9.16882 53.728 9.24202 53.6499 9.2957C53.5767 9.35426 53.4864 9.39575 53.379 9.42015C53.2717 9.44943 53.1448 9.46407 52.9984 9.46407H52.5372V8.81256H53.1814L53.401 8.16837L52.0175 4.19342H52.8154L53.5767 6.43345L53.7963 7.26064H53.8329L54.0745 6.43345L54.8358 4.19342Z" fill="#ffffff"/>
    <path fill-rule="evenodd" clip-rule="evenodd" d="M32.231 18.5672V24.0644H41.0837V27.9196H32.231V35.5586H27.3764V14.6406H43.1541V18.4958H32.231V18.5672ZM14.4533 14.8584H6.88574V19.0705H13.2396C16.5951 19.0705 19.3794 21.8548 19.3794 25.2103C19.3794 28.5657 16.5951 31.35 13.2396 31.35H6.88574V35.5622H14.2391C20.0219 35.5622 24.6624 30.9217 24.6624 25.1389C24.6624 19.4275 20.0933 14.8584 14.4533 14.8584ZM55.4344 28.2766L60.5032 35.5586V35.4872H66.0004L58.2187 24.7069L65.5007 14.6406H60.2891L55.5772 21.4229L50.7939 14.6406H45.2967L52.6501 24.9211L44.9397 35.5586H50.5083L55.4344 28.2766Z" fill="#ffffff"/>
    <path d="M9.85228 19.9512C9.7095 19.9512 9.56672 19.9512 9.35254 19.9512C10.9946 21.0934 12.1368 23.021 12.1368 25.2342C12.1368 27.4474 11.066 29.375 9.35254 30.5172C9.49532 30.5172 9.63811 30.5172 9.85228 30.5172C12.7794 30.5172 15.1353 28.1613 15.1353 25.2342C15.1353 22.3071 12.7794 19.9512 9.85228 19.9512Z" fill="#F5516C"/>
    <path d="M11.4228 25.2309C11.4228 28.3722 8.85265 30.9423 5.71139 30.9423C2.57013 30.9423 0 28.3722 0 25.2309C0 22.0897 2.57013 19.5195 5.71139 19.5195C8.92404 19.5195 11.4228 22.0897 11.4228 25.2309Z" fill="#F5516C"/>
</svg>
