<svg width="308" height="71" viewBox="0 0 308 71" fill="none" xmlns="http://www.w3.org/2000/svg">
    <path fill-rule="evenodd" clip-rule="evenodd" d="M0.954468 21.8609L35.1755 0.332031L69.3966 21.8609H0.954468ZM58.5599 18.7525L35.1755 4.01612L11.7911 18.7525H58.5599ZM64.2654 24.0516H6.08957V27.1601H64.2654V24.0516ZM9.16627 29.2287H15.4401V60.0829H9.16627V29.2287ZM26.8492 29.2287H20.5754V60.0829H26.8492V29.2287ZM38.3711 29.2287H32.0972V60.0829H38.3711V29.2287ZM61.2975 29.2287H55.0237V60.0829H61.2975V29.2287ZM43.5018 29.2287H49.7757V60.0829H43.5018V29.2287ZM35.1775 62.0399H6.08957V65.1484H35.1775H64.2654V62.0399H35.1775ZM2.21044 67.2237H68.1431V70.3321H2.21044V67.2237Z" fill="#FF00A3"/>
    <path fill-rule="evenodd" clip-rule="evenodd" d="M238.049 27.771V39.003H256.137V46.8801H238.049V62.4883H228.13V19.748H260.367V27.6251H238.049V27.771ZM201.726 20.1895H186.264V28.7959H199.246C206.102 28.7959 211.791 34.4849 211.791 41.3409C211.791 48.1968 206.102 53.8858 199.246 53.8858H186.264V62.4922H201.288C213.104 62.4922 222.586 53.0106 222.586 41.195C222.586 29.5253 213.25 20.1895 201.726 20.1895ZM285.457 47.6094L295.814 62.4883V62.3424H307.046L291.146 40.3159L306.024 19.748H295.376L285.748 33.6058L275.975 19.748H264.743L279.768 40.7535L264.014 62.4883H275.392L285.457 47.6094ZM191.08 30.3919H190.059C193.414 32.7258 195.748 36.6643 195.748 41.1863C195.748 45.7083 193.56 49.6469 190.059 51.9808H191.08C197.061 51.9808 201.875 47.1671 201.875 41.1863C201.875 35.2056 197.061 30.3919 191.08 30.3919ZM182.618 52.8517C189.036 52.8517 194.288 47.6004 194.288 41.182C194.288 34.7637 189.182 29.5123 182.618 29.5123C176.2 29.5123 170.948 34.7637 170.948 41.182C170.948 47.6004 176.2 52.8517 182.618 52.8517Z" fill="#FF00A3"/>
    <path fill-rule="evenodd" clip-rule="evenodd" d="M136.028 26.0945C135.437 25.5137 134.487 25.5217 133.906 26.1124C133.326 26.7031 133.334 27.6529 133.924 28.2337L145.909 40.0176L84.7716 40.0176C83.9432 40.0176 83.2716 40.6892 83.2716 41.5176C83.2716 42.346 83.9432 43.0176 84.7716 43.0176L145.89 43.0176L133.928 54.7077C133.335 55.2867 133.324 56.2364 133.903 56.8289C134.482 57.4214 135.432 57.4323 136.024 56.8533L150.621 42.5889C150.91 42.3072 151.072 41.9214 151.073 41.5183C151.074 41.1153 150.912 40.729 150.625 40.4465L136.028 26.0945Z" fill="#FF00A3"/>
</svg>
