<svg width="297" height="260" viewBox="0 0 297 260" fill="none" xmlns="http://www.w3.org/2000/svg">
    <path
        d="M227.042 0.894905L139.83 14.6609C127.801 16.5596 116.432 21.4132 106.74 28.7867L19.5233 95.1438C10.622 101.916 6.15847 113.029 7.90233 124.077L23.914 225.517C27.3584 247.338 47.8402 262.235 69.6614 258.791L83.5393 256.6L270.405 133.435C280.363 126.872 285.563 115.092 283.703 103.312L272.79 34.1691C269.345 12.3479 248.863 -2.54947 227.042 0.894905Z"
        fill="white" />
    <path
        d="M289.284 173.306C291.714 171.933 294.768 173.408 295.203 176.165L296.209 182.536C299.653 204.357 284.755 224.839 262.934 228.284L186.317 240.377C181.916 241.072 179.847 235.135 183.726 232.944L289.284 173.306Z"
        fill="white" />
    <path
        d="M0.495002 77.1495L0.885633 79.6242L59.621 34.9367C62.9284 32.4204 60.6803 27.1543 56.5753 27.8022L33.7693 31.4021C11.948 34.8464 -2.94937 55.3283 0.495002 77.1495Z"
        fill="white" />
</svg>
