<svg width="297" height="260" viewBox="0 0 297 260" fill="none" xmlns="http://www.w3.org/2000/svg">
    <path
        d="M227.042 0.89344L139.83 14.6595C127.801 16.5581 116.432 21.4117 106.74 28.7852L19.5233 95.1423C10.622 101.915 6.15847 113.028 7.90233 124.076L23.914 225.515C27.3584 247.336 47.8402 262.234 69.6614 258.789L83.5393 256.599L270.405 133.433C280.363 126.87 285.563 115.091 283.703 103.311L272.79 34.1677C269.345 12.3465 248.863 -2.55093 227.042 0.89344Z"
        fill="#1B162C" />
    <path
        d="M289.284 173.304C291.714 171.931 294.768 173.406 295.203 176.163L296.209 182.535C299.653 204.356 284.755 224.838 262.934 228.282L186.317 240.376C181.916 241.071 179.847 235.134 183.726 232.942L289.284 173.304Z"
        fill="#1B162C" />
    <path
        d="M0.495002 77.148L0.885633 79.6227L59.621 34.9352C62.9284 32.4189 60.6803 27.1528 56.5753 27.8008L33.7693 31.4006C11.948 34.845 -2.94937 55.3268 0.495002 77.148Z"
        fill="#1B162C" />
</svg>
