<svg id="low-level" xmlns="http://www.w3.org/2000/svg" width="71.768" height="61.625" viewBox="0 0 71.768 61.625">
    <path d="M7.784,38.3a32.163,32.163,0,0,1,8.892-18.876L22.16,24.9,24.7,22.365l-5.384-5.384A32.16,32.16,0,0,1,38.09,9.637v8.922h3.588V9.637a32.16,32.16,0,0,1,18.777,7.345l-5.166,5.166,2.537,2.538,5.266-5.266A32.163,32.163,0,0,1,71.984,38.3H64.436v3.588h7.743a32.125,32.125,0,0,1-7.367,20.5l-6.137-6.137-2.537,2.537,6.239,6.239-.023.022,2.5,2.578A35.884,35.884,0,1,0,14.388,67.1l2.549-2.526-.034-.034,5.392-5.392-2.537-2.537-5.236,5.236A32.12,32.12,0,0,1,7.588,41.884H14.86V38.3Z" transform="translate(-4 -6)" fill="currentColor"/>
    <path d="M37.767,42.571a2.9,2.9,0,0,1-2.044.125L12.529,32.949c-3.431-1.062-2.578-4.594.97-4.036L38.588,30.35a2.9,2.9,0,0,1,1.78,1.013l3.085,4.257c.475,1.846.272,2.72-1.042,4.488Z" transform="translate(1.045 12.15)" fill="#currentColor"/>
</svg>
