<svg width="80" height="81" viewBox="0 0 80 81" fill="none" xmlns="http://www.w3.org/2000/svg">
    <path fill-rule="evenodd" clip-rule="evenodd" d="M31.3995 19.8086C30.3338 19.8086 29.47 20.623 29.47 21.6277V22.9921C29.47 23.9967 30.3338 24.8112 31.3995 24.8112H56.9594C58.0251 24.8112 58.889 23.9967 58.889 22.9921V21.6277C58.889 20.623 58.0251 19.8086 56.9594 19.8086H31.3995ZM31.3995 27.0851C30.3338 27.0851 29.47 27.8995 29.47 28.9042V29.3915C32.4627 29.3551 35.5019 30.0943 38.2715 31.6897C38.4925 31.8181 38.7096 31.9508 38.9228 32.0877H56.9594C58.0251 32.0877 58.889 31.2732 58.889 30.2685V28.9042C58.889 27.8995 58.0251 27.0851 56.9594 27.0851H31.3995ZM45.2244 39.3642C44.3815 37.5244 43.2138 35.8239 41.749 34.3616H56.9594C58.0251 34.3616 58.889 35.176 58.889 36.1807V37.545C58.889 38.5497 58.0251 39.3642 56.9594 39.3642H45.2244ZM46.8092 46.6407C46.8114 44.9421 46.5629 43.2553 46.08 41.6381H56.9594C58.0251 41.6381 58.889 42.4525 58.889 43.4572V44.8215C58.889 45.8262 58.0251 46.6407 56.9594 46.6407H46.8092ZM45.1748 53.9171C45.938 52.3023 46.4261 50.6154 46.6554 48.9146H56.9594C58.0251 48.9146 58.889 49.729 58.889 50.7337V52.098C58.889 53.1027 58.0251 53.9171 56.9594 53.9171H45.1748ZM38.633 61.1936C40.6732 59.9531 42.4757 58.272 43.8803 56.191H56.9594C58.0251 56.191 58.889 57.0055 58.889 58.0102V59.3745C58.889 60.3792 58.0251 61.1936 56.9594 61.1936H38.633Z" fill="#FF00A3"/>
    <path d="M42.8291 54.1783C38.6433 61.4387 29.2867 63.8999 22.023 59.7159C14.7593 55.5319 12.297 46.1794 16.4829 38.9189C20.6687 31.6584 30.0253 29.1973 37.289 33.3813C44.4912 37.5653 47.015 46.9178 42.8291 54.1783Z" fill="#FF00A3"/>
    <path d="M29.7601 35.5268V44.816C29.244 44.3 28.8017 43.8576 28.2119 43.2678C28.1382 42.3832 27.9908 39.8766 27.9908 39.8766L29.4652 35.4531C28.5805 35.4531 27.6959 35.6006 26.8849 35.8217L26.1477 37.9597L24.0835 36.9276C23.3463 37.3699 22.6091 37.886 21.9456 38.5495L25.6317 40.3926L25.7791 42.6043L23.5675 42.4569L21.7245 38.7707C21.1347 39.4342 20.5449 40.0977 20.1026 40.9087L21.1347 42.9729L18.923 43.7102C18.7019 44.5211 18.5544 45.4058 18.5544 46.3642L22.9777 44.9635L26.5163 45.1109L27.9908 46.5854L26.5163 48.0599L22.9777 48.2073L18.5544 46.8066C18.5544 47.6913 18.7019 48.576 18.923 49.4606L21.061 50.1979L20.0289 52.1884C20.4712 52.9257 20.9872 53.6629 21.6507 54.2527L23.4938 50.5665L25.7054 50.4191L25.5579 52.6308L21.8719 54.4739C22.5354 55.0637 23.1989 55.6534 24.0098 56.0958L26.0003 55.1374L26.7375 57.2754C27.5484 57.4965 28.4331 57.644 29.3177 57.644L27.917 53.2943C27.917 53.2943 28.0645 50.7877 28.1382 49.903C28.6542 49.3869 29.0966 48.9446 29.6863 48.3548V57.644C35.8052 57.644 40.7445 52.7045 40.7445 46.5854C40.8182 40.4663 35.8789 35.5268 29.7601 35.5268ZM32.2666 54.8425C32.2666 49.3132 32.2666 43.8576 32.2666 38.3284C34.9205 38.9181 38.3117 41.8671 38.4591 46.2905C38.6066 51.1563 34.9205 54.2527 32.2666 54.8425Z" fill="#F5F5F5"/>
    <circle cx="40" cy="40.5" r="39" stroke="#FF00A3" stroke-width="2"/>
</svg>
