<svg width="32" height="32" viewBox="0 0 32 32" fill="none" xmlns="http://www.w3.org/2000/svg">
    <circle cx="16" cy="16" r="15" stroke="#FF00A3" stroke-width="2"/>
    <path d="M10 16C10 17.4733 10.6067 18.8 11.5733 19.76L10 21.3333H14V17.3333L12.5067 18.8266C11.7867 18.1 11.3333 17.1066 11.3333 16C11.3333 14.26 12.4467 12.78 14 12.2333V10.84C11.7 11.4333 10 13.5133 10 16ZM22 10.6666H18V14.6666L19.4933 13.1733C20.2133 13.9 20.6667 14.8933 20.6667 16C20.6667 17.74 19.5533 19.22 18 19.7666V21.16C20.3 20.5666 22 18.4866 22 16C22 14.5266 21.3933 13.2 20.4267 12.24L22 10.6666Z" fill="#FF00A3"/>
</svg>
