<svg width="306" height="61" viewBox="0 0 306 61" fill="none" xmlns="http://www.w3.org/2000/svg">
    <path fill-rule="evenodd" clip-rule="evenodd" d="M67.4331 16.771V28.003H85.5211V35.8801H67.4331V51.4883H57.5138V8.74805H89.7514V16.6251H67.4331V16.771ZM31.1103 9.18955H15.6479V17.7959H28.6304C35.4864 17.7959 41.1754 23.4849 41.1754 30.3409C41.1754 37.1968 35.4864 42.8858 28.6304 42.8858H15.6479V51.4922H30.6726C42.4882 51.4922 51.9698 42.0106 51.9698 30.195C51.9698 18.5253 42.6341 9.18955 31.1103 9.18955ZM114.841 36.6094L125.198 51.4883V51.3424H136.43L120.53 29.3159L135.409 8.74805H124.76L115.133 22.6058L105.359 8.74805H94.1272L109.152 29.7535L93.3979 51.4883H104.776L114.841 36.6094ZM20.4643 19.3919H19.4432C22.7983 21.7258 25.1322 25.6643 25.1322 30.1863C25.1322 34.7083 22.9442 38.6469 19.4432 40.9808H20.4643C26.4451 40.9808 31.2588 36.1671 31.2588 30.1863C31.2588 24.2056 26.4451 19.3919 20.4643 19.3919ZM12.0023 41.8517C18.4207 41.8517 23.672 36.6004 23.672 30.182C23.672 23.7637 18.5666 18.5123 12.0023 18.5123C5.58401 18.5123 0.332642 23.7637 0.332642 30.182C0.332642 36.6004 5.58401 41.8517 12.0023 41.8517Z" fill="#FF00A3"/>
    <path fill-rule="evenodd" clip-rule="evenodd" d="M198.653 15.0945C198.062 14.5137 197.113 14.5217 196.532 15.1124C195.951 15.7031 195.959 16.6529 196.55 17.2337L208.535 29.0176L159.899 29.0176C159.07 29.0176 158.399 29.6891 158.399 30.5176C158.399 31.346 159.07 32.0176 159.899 32.0176L208.516 32.0176L196.553 43.7077C195.96 44.2867 195.95 45.2364 196.529 45.8289C197.108 46.4214 198.057 46.4323 198.65 45.8533L213.247 31.5889C213.535 31.3072 213.698 30.9214 213.698 30.5183C213.699 30.1153 213.537 29.729 213.25 29.4465L198.653 15.0945Z" fill="#FF00A3"/>
    <g clip-path="url(#clip0_3537_5394)">
        <path fill-rule="evenodd" clip-rule="evenodd" d="M239.065 7.23102C239.065 6.3454 239.519 5.44376 240.634 4.70294C241.771 3.94686 243.565 3.39844 245.992 3.39844H287.114C289.379 3.39844 291.275 5.2944 291.275 7.56019V11.0636H245.992C243.492 11.0636 241.704 10.5123 240.591 9.76349C239.508 9.03561 239.065 8.13927 239.065 7.23102ZM294.275 7.56019V11.0636H296.791C300.791 11.0636 303.953 14.3141 303.953 18.2253V54.2367C303.953 58.2365 300.703 61.3984 296.791 61.3984H247.308C240.304 61.3984 236.065 57.7252 236.065 53.4467V7.49435H236.071C236.067 7.40711 236.065 7.31933 236.065 7.23102C236.065 5.15409 237.19 3.38943 238.973 2.20461C240.732 1.03504 243.152 0.398438 245.992 0.398438H287.114C291.036 0.398438 294.275 3.63755 294.275 7.56019ZM239.065 53.4467V12.3502C240.803 13.4648 243.174 14.0636 245.992 14.0636H296.791C299.112 14.0636 300.953 15.9482 300.953 18.2253V28.7588H303.77V41.2673H300.953V54.2367C300.953 56.557 299.068 58.3984 296.791 58.3984H247.308C241.146 58.3984 239.065 55.3565 239.065 53.4467Z" fill="#FF00A3"/>
        <path d="M303.77 41.2683H293.566C290.143 41.2683 287.312 38.4374 287.312 35.014C287.312 31.5906 290.143 28.7598 293.566 28.7598H303.77V41.2683Z" fill="#FF00A3" stroke="#FF00A3" stroke-miterlimit="10"/>
    </g>
    <defs>
        <clipPath id="clip0_3537_5394">
            <rect width="70" height="61" fill="white" transform="translate(235.667)"/>
        </clipPath>
    </defs>
</svg>
