<svg width="58" height="58" viewBox="0 0 58 58" fill="none" xmlns="http://www.w3.org/2000/svg">
    <defs>
        <linearGradient id="paint0_linear_987_11512" x1="61.0756" y1="5.33107" x2="5.06827" y2="53.9504" gradientUnits="userSpaceOnUse">
            <stop stop-color="#F7931A"/>
            <stop offset="1" stop-color="#E2820F"/>
        </linearGradient>
        <clipPath id="clip0_987_11512">
            <rect width="41.5311" height="41.5311" fill="white" transform="translate(19.7558 1.17676) rotate(26.5747)"/>
        </clipPath>
    </defs>
    <path d="M24.8723 56.9101C40.2657 59.2107 54.6095 48.5968 56.9101 33.2034C59.2106 17.8099 48.5968 3.4661 33.2033 1.16554C17.8099 -1.13502 3.46608 9.47884 1.16551 24.8723C-1.13505 40.2657 9.47882 54.6095 24.8723 56.9101Z" fill="url(#paint0_linear_987_11512)"/>
    <g clip-path="url(#clip0_987_11512)">
        <path d="M17.428 37.7418L15.9765 40.6437C15.8162 40.964 15.9462 41.3541 16.2666 41.5143L18.588 42.6756C18.7419 42.7526 18.9201 42.7652 19.0834 42.7109C19.2467 42.6565 19.3817 42.5394 19.4587 42.3855L20.9102 39.4837L22.0709 40.0643L20.6194 42.9661C20.4592 43.2865 20.5891 43.6765 20.9095 43.8368L23.2309 44.998C23.3849 45.075 23.5631 45.0877 23.7264 45.0333C23.8896 44.9789 24.0246 44.8619 24.1016 44.7079L25.5531 41.8061L25.7481 41.9036C30.3725 44.2168 34.8778 43.4723 36.9529 39.3238C38.6971 35.837 37.3127 32.7617 34.7116 31.121L34.8138 30.9168C37.3466 31.4813 39.8518 30.61 41.2638 27.7871C43.0428 24.2306 41.4531 20.7362 37.3789 18.6983L37.1653 18.5915L38.6169 15.6896C38.6939 15.5357 38.7066 15.3575 38.6522 15.1942C38.5978 15.0309 38.4807 14.8959 38.3268 14.819L36.0053 13.6577C35.8514 13.5807 35.6732 13.568 35.5099 13.6224C35.3466 13.6768 35.2117 13.7939 35.1347 13.9478L33.6831 16.8496L32.3529 16.1842L33.8045 13.2824C33.8815 13.1285 33.8942 12.9503 33.8398 12.787C33.7854 12.6237 33.6683 12.4887 33.5144 12.4117L31.3624 11.3353C31.2085 11.2583 31.0303 11.2456 30.867 11.3C30.7037 11.3544 30.5687 11.4714 30.4917 11.6254L29.0402 14.5272L24.3891 12.2326C24.2352 12.1556 24.057 12.1429 23.8937 12.1973C23.7305 12.2517 23.5955 12.3687 23.5185 12.5227L22.37 14.8186C22.2109 15.1366 22.3351 15.5267 22.6554 15.6869L24.414 16.5521C24.8722 16.7851 25.2196 17.1899 25.3805 17.6782C25.5413 18.1664 25.5025 18.6985 25.2725 19.1583L18.88 31.9379C18.649 32.3997 18.2441 32.7508 17.7542 32.914C17.2644 33.0772 16.7298 33.0391 16.268 32.8081L14.5188 31.9651C14.3649 31.8881 14.1867 31.8754 14.0234 31.9298C13.8601 31.9842 13.7251 32.1012 13.6481 32.2551L12.4869 34.5766C12.3266 34.8969 12.4566 35.287 12.777 35.4473L17.428 37.7418ZM30.6262 19.6363L34.6168 21.6324C36.7201 22.6845 37.3768 24.4583 36.4316 26.348C35.4201 28.37 33.5151 28.8421 30.4926 27.3302L27.5211 25.8439L30.6262 19.6363ZM25.9221 29.0405L30.1936 31.1772C32.8331 32.4975 33.5966 34.5627 32.5004 36.7542C31.3938 38.9665 29.3634 39.3934 25.8069 37.6144L22.4686 35.9446L25.9209 29.0428L25.9221 29.0405Z" fill="white"/>
    </g>

</svg>
