<svg width="27" height="27" viewBox="0 0 27 27" fill="none" xmlns="http://www.w3.org/2000/svg">
    <defs>
        <linearGradient id="paint0_linear_987_11512" x1="27.7826" y1="4.5963" x2="0.219015"
            y2="22.5523" gradientUnits="userSpaceOnUse">
            <stop stop-color="#FF00AF" />
            <stop offset="1" stop-color="#BF0083" />
        </linearGradient>
    </defs>
    <path
        d="M9.23322 25.5908C15.9896 27.8683 23.313 24.2374 25.5905 17.481C27.868 10.7246 24.2371 3.40117 17.4806 1.12371C10.7242 -1.15375 3.40082 2.47715 1.12336 9.23357C-1.1541 15.99 2.47681 23.3134 9.23322 25.5908Z"
        fill="url(#paint0_linear_987_11512)" />
    <path fill-rule="evenodd" clip-rule="evenodd"
        d="M13.0915 20.7489L17.621 7.31177C18.9215 8.23226 19.8909 9.54711 20.3856 11.0615C20.8802 12.5759 20.8737 14.2092 20.3671 15.7194C19.8562 17.2281 18.8728 18.5319 17.5626 19.4379C16.2523 20.3439 14.685 20.8037 13.0927 20.7494L13.0915 20.7489ZM16.3919 4.34102L13.831 11.9382L13.0722 10.4082L13.8881 7.50305L16.2929 4.313C15.5426 4.07042 14.7649 3.92248 13.9779 3.87263L12.8158 5.41365L11.4535 4.04161C10.6806 4.19833 9.93014 4.45024 9.21927 4.79158L11.7408 7.332L11.2427 9.09952L9.53428 8.4246L9.03603 4.88239C8.33599 5.23936 7.68261 5.68433 7.08634 6.20611L7.35806 8.12068L5.42519 8.11161C4.98908 8.76828 4.6365 9.47672 4.37558 10.2206L8.3725 10.2388L11.1787 11.3466L11.9384 12.8783L10.4066 13.6375L7.50147 12.8188L4.30995 10.4153C4.0607 11.1825 3.92054 11.9598 3.86866 12.7293L5.4126 13.8922L4.03849 15.252C4.19721 16.0282 4.44789 16.778 4.78897 17.4859L7.32992 14.9681L9.0983 15.4652L8.42512 17.1723L4.88064 17.6707C5.23659 18.3702 5.68337 19.0227 6.20535 19.619L8.11827 19.3496L8.10991 21.2809C8.76696 21.7176 9.47589 22.0708 10.2203 22.3322L10.2374 18.3373L11.3467 15.5311L12.8769 14.7727L10.316 22.3698C12.7074 23.1759 15.3209 22.9993 17.5817 21.8788C19.8425 20.7583 21.5653 18.7857 22.3712 16.395C23.177 14.0042 22.9999 11.3912 21.8788 9.13075C20.7577 6.87028 18.7844 5.1475 16.3931 4.34142"
        fill="white" />

</svg>
