<svg width="165" height="30" viewBox="0 0 165 30" fill="none" xmlns="http://www.w3.org/2000/svg">
    <path d="M29.6956 12.7631C29.6956 12.7631 29.6702 12.5315 29.6447 12.4028C29.5175 11.6566 29.3139 10.9104 29.0595 10.2156C29.0086 10.087 28.9577 9.9583 28.9068 9.8039C28.6523 9.10914 28.3215 8.41437 27.9653 7.77107C27.9144 7.66815 27.838 7.56522 27.7871 7.48802C27.4055 6.81899 26.9729 6.17569 26.4894 5.58385C26.4894 5.58385 26.4639 5.55812 26.4385 5.53239C23.7158 2.21295 19.5681 0.102928 14.9623 0.102928C14.2753 0.102928 13.6137 0.154392 12.9521 0.25732C12.774 0.25732 12.6213 0.308784 12.4432 0.334516C11.7816 0.437445 11.1454 0.591837 10.5347 0.771961C9.92399 0.977817 9.31329 1.20941 8.72803 1.49246C8.57535 1.56965 8.42268 1.62112 8.29545 1.69831C7.73563 1.98137 7.17582 2.29015 6.64145 2.6504C6.10708 3.01065 5.62361 3.42236 5.14013 3.83407C5.0129 3.937 4.88567 4.03993 4.78389 4.16859C4.32586 4.60603 3.89327 5.06921 3.48614 5.55812C3.48614 5.55812 3.48614 5.55812 3.48614 5.58385C3.079 6.07276 2.72275 6.61313 2.39195 7.1535C2.31562 7.28216 2.21383 7.43656 2.13749 7.56522C1.80669 8.13132 1.50134 8.69743 1.27233 9.28926C0.890635 10.1899 0.585282 11.142 0.40716 12.1198C0.203591 13.0976 0.101807 14.1269 0.101807 15.1562C0.101807 16.0568 0.203591 16.9574 0.356267 17.8066C1.60313 18.2183 2.84998 18.5785 4.12229 18.8873C4.0205 21.2289 3.61337 22.4641 2.36651 23.1074C3.079 24.2653 3.91872 25.3203 4.91112 26.2209C7.17582 24.7027 7.83742 22.2067 8.01554 19.6593C8.54991 19.7365 9.08427 19.7879 9.61864 19.8651V28.9485H14.0463V20.1996C14.3771 20.1996 14.7333 20.2511 15.0641 20.2511C15.4203 20.2511 15.7511 20.2254 16.0819 20.1996V28.9485H20.5096V19.8651C21.0439 19.8137 21.5783 19.7365 22.1127 19.6593C22.2908 22.2067 22.9524 24.7027 25.2171 26.2209C26.2095 25.2946 27.0492 24.2653 27.7617 23.1074C26.5148 22.4641 26.0823 21.2289 26.0059 18.8873C27.2782 18.5785 28.5505 18.2183 29.7719 17.8066C29.9246 16.9317 30.0264 16.0568 30.0264 15.1562C30.0264 14.3327 29.9501 13.5093 29.8228 12.7116L29.6956 12.7631ZM23.2577 15.4907C22.3417 15.6708 21.4256 15.8252 20.5096 15.9539C18.6774 16.2112 16.8199 16.3141 14.9623 16.3141C11.2472 16.3141 7.55751 15.8252 3.91872 14.8474C4.09684 8.85182 8.98249 4.03993 14.9623 4.03993C17.9395 4.03993 20.6622 5.24933 22.647 7.20497C24.6318 9.1606 25.9041 11.8625 26.0059 14.8474C25.0899 15.1047 24.1992 15.3106 23.2832 15.4907H23.2577Z" fill="white"/>
    <path d="M60.4599 0.0771961H56.2868V23.1074H60.4599V0.0771961Z" fill="white"/>
    <path d="M62.3938 23.1074H66.567V0.025732L62.3938 0.0771961V23.1074Z" fill="white"/>
    <path d="M47.5333 6.63886C47.5333 6.63886 47.5079 6.63886 47.4824 6.63886C43.0548 6.6646 39.4415 10.3185 39.4415 14.8217C39.4415 14.8731 39.4415 14.9246 39.4415 14.976C39.4415 15.0275 39.4415 15.0532 39.4415 15.1047C39.4415 19.7879 43.0548 23.5705 47.5333 23.5705C50.4342 23.5705 52.9788 21.9494 54.4037 19.5306L50.8158 18.1925C50.0016 19.1704 48.8565 19.8137 47.5333 19.8137C45.8284 19.8137 44.3525 18.7329 43.6401 17.189C44.9124 17.3949 46.2101 17.4978 47.5588 17.4978C47.9913 17.4978 48.4494 17.4721 48.8819 17.4463C49.7471 17.3949 50.5868 17.3177 51.4266 17.189C52.8261 16.9574 54.2002 16.6486 55.5234 16.2112C55.5997 15.7995 55.6252 15.3878 55.6506 14.9503C55.6506 14.8988 55.6506 14.8217 55.6506 14.7702C55.6506 10.2671 52.0373 6.5874 47.5588 6.5874L47.5333 6.63886ZM47.5333 13.8181C46.2356 13.8181 44.9633 13.6894 43.6909 13.4064C43.9709 12.4543 44.5561 11.6823 45.2686 11.1162C45.5231 10.9361 45.7775 10.756 46.0574 10.6531C46.2101 10.6016 46.3628 10.5244 46.5155 10.4987C46.6427 10.4729 46.7445 10.4472 46.8717 10.4472C47.0753 10.4215 47.3043 10.37 47.5079 10.37C47.7114 10.37 47.9404 10.3957 48.144 10.4472C48.2458 10.4472 48.373 10.4729 48.4748 10.4987C48.6529 10.5501 48.8056 10.6016 48.9583 10.6531C49.2382 10.756 49.4927 10.9361 49.7471 11.1162C50.4851 11.6566 51.0449 12.4543 51.3248 13.3807C50.0525 13.6637 48.7547 13.7924 47.4824 13.7924L47.5333 13.8181Z" fill="white"/>
    <path d="M34.4286 19.8137V23.7764C34.4286 24.1366 34.3013 24.4454 34.0214 24.677C33.7415 24.9086 33.3853 25.0373 32.9527 25.0373C32.6219 25.0373 32.1893 24.9343 31.6549 24.7542C31.4514 25.3203 31.2987 25.9122 31.1715 26.504L31.1206 26.7098C31.0188 27.276 30.9425 27.8421 30.8916 28.4339C31.9349 28.8199 32.9781 29 33.996 29C35.3955 29 36.5152 28.5626 37.3549 27.7134C38.1946 26.8642 38.6272 25.732 38.6272 24.3425V7.07631H34.454V19.8137H34.4286Z" fill="white"/>
    <path d="M118.681 8.36291C117.281 7.17924 115.551 6.5874 113.464 6.5874C111.378 6.5874 109.571 7.38509 108.044 9.00621C106.492 10.6273 105.703 12.6344 105.703 15.079C105.703 17.5235 106.466 19.5306 108.019 21.126C109.571 22.7214 111.378 23.5191 113.464 23.5191C115.551 23.5191 117.281 22.953 118.681 21.795V23.0559H122.854V7.07631H118.681V8.36291ZM117.306 18.5271C116.39 19.402 115.347 19.8651 114.177 19.8651C112.879 19.8651 111.836 19.4277 110.996 18.5785C110.156 17.7036 109.749 16.5457 109.749 15.1047C109.749 13.6637 110.156 12.48 110.996 11.6051C111.836 10.7303 112.904 10.2928 114.177 10.2928C115.347 10.2928 116.416 10.7303 117.306 11.6309C118.223 12.5315 118.681 13.6894 118.681 15.079C118.681 16.4685 118.223 17.6264 117.306 18.5271Z" fill="white"/>
    <path d="M128.935 0H124.762V23.0559H128.935V0Z" fill="white"/>
    <path d="M135.017 0H130.844V23.0559H135.017V0Z" fill="white"/>
    <path d="M162.779 18.8358C161.837 19.3505 160.947 19.6078 160.158 19.6078C158.605 19.6078 157.842 18.6815 157.842 16.8545V10.5501H163.008V7.10204H157.842V2.23869H153.669V7.07631H150.285V9.98403C148.809 7.9512 146.468 6.61313 143.77 6.61313C143.77 6.61313 143.745 6.61313 143.719 6.61313C139.292 6.63886 135.679 10.2928 135.679 14.7959C135.679 14.8474 135.679 14.8988 135.679 14.9503C135.679 15.0018 135.679 15.0275 135.679 15.079C135.679 19.7622 139.292 23.5448 143.77 23.5448C146.671 23.5448 149.216 21.9237 150.641 19.5049L147.053 18.1668C146.239 19.1446 145.094 19.7879 143.77 19.7879C142.065 19.7879 140.59 18.7072 139.877 17.1633C141.149 17.3691 142.447 17.472 143.796 17.472C144.228 17.472 144.686 17.4463 145.119 17.4206C145.984 17.3691 146.824 17.2919 147.664 17.1633C149.063 16.9317 150.437 16.6229 151.76 16.1854C151.837 15.7737 151.862 15.362 151.888 14.9246C151.888 14.8731 151.888 14.7959 151.888 14.7445C151.888 13.1748 151.43 11.7338 150.666 10.4729H153.694V17.1118C153.694 19.2476 154.254 20.8429 155.348 21.898C156.443 22.953 157.969 23.4933 159.903 23.4933C161.201 23.4933 162.575 23.1074 164.025 22.3097L162.83 18.7844L162.779 18.8358ZM143.745 13.8181C142.447 13.8181 141.175 13.6894 139.903 13.4064C140.182 12.4543 140.768 11.6823 141.48 11.1162C141.735 10.9361 141.989 10.756 142.269 10.6531C142.422 10.6016 142.574 10.5244 142.727 10.4987C142.854 10.4729 142.956 10.4472 143.083 10.4472C143.287 10.4215 143.516 10.37 143.719 10.37C143.923 10.37 144.152 10.3957 144.356 10.4472C144.457 10.4472 144.585 10.4729 144.686 10.4987C144.865 10.5501 145.017 10.6016 145.17 10.6531C145.45 10.756 145.704 10.9361 145.959 11.1162C146.697 11.6566 147.257 12.4543 147.536 13.3807C146.264 13.6637 144.966 13.7924 143.694 13.7924L143.745 13.8181Z" fill="white"/>
    <path d="M79.8244 7.07631L79.0356 8.90328L75.4986 17.1375L75.3459 17.6779L73.5646 12.7116L72.0124 8.90328L71.2745 7.07631H66.6179L73.183 22.5927C72.5723 24.3425 71.6307 24.9858 69.646 24.9858V29C70.8674 29.0515 71.9615 28.8971 72.9285 28.5626C74.6843 27.945 76.0584 26.6327 77.1016 24.4454C77.1271 24.394 77.1525 24.3168 77.178 24.2653L83.565 9.31499L84.2266 7.77107L84.5065 7.07631H79.8244Z" fill="white"/>
    <path d="M102.98 7.07631L99.8505 16.9574L96.6188 7.07631H93.3363L90.1046 16.9059L86.9747 7.07631H85.7788L84.0993 10.9876L88.0944 23.1074H91.8604L94.9903 13.6894L98.0947 23.1074H101.861L107.128 7.07631H102.98Z" fill="white"/>
</svg>
