<svg width="14" height="14" viewBox="0 0 14 14" fill="none" xmlns="http://www.w3.org/2000/svg">
    <defs>
        <linearGradient id="paint0_linear_1862_1360" x1="12.75" y1="0.5" x2="6.92784" y2="16.0162"
            gradientUnits="userSpaceOnUse">
            <stop stop-color="#FF00A3" />
            <stop offset="1" stop-color="#BC00C0" />
        </linearGradient>
        <linearGradient id="paint1_linear_1862_1360" x1="12.75" y1="0.5" x2="6.92784" y2="16.0162"
            gradientUnits="userSpaceOnUse">
            <stop stop-color="#FF00A3" />
            <stop offset="1" stop-color="#BC00C0" />
        </linearGradient>
    </defs>
    <path
        d="M4.2 9.9C4.28588 9.96617 4.39159 10.0014 4.5 10C4.57762 10 4.65418 9.98193 4.72361 9.94721C4.79303 9.9125 4.85343 9.8621 4.9 9.8C5.20273 9.39636 5.59528 9.06875 6.04656 8.84311C6.49784 8.61747 6.99545 8.5 7.5 8.5C8.00455 8.5 8.50216 8.61747 8.95344 8.84311C9.40473 9.06875 9.79727 9.39636 10.1 9.8C10.1806 9.90471 10.2989 9.97378 10.4296 9.99247C10.5604 10.0111 10.6933 9.97797 10.8 9.9C10.8525 9.8606 10.8968 9.81125 10.9302 9.75475C10.9637 9.69825 10.9857 9.63571 10.995 9.57071C11.0043 9.50571 11.0007 9.43952 10.9844 9.37591C10.9681 9.3123 10.9394 9.25253 10.9 9.2C10.4575 8.60602 9.86705 8.1384 9.1875 7.84375C9.5593 7.50361 9.81963 7.05904 9.93435 6.56836C10.0491 6.07767 10.0128 5.56377 9.83038 5.09404C9.64793 4.62431 9.32779 4.22069 8.91193 3.93609C8.49607 3.65149 8.00392 3.49921 7.5 3.49921C6.99608 3.49921 6.50393 3.65149 6.08807 3.93609C5.67221 4.22069 5.35207 4.62431 5.16962 5.09404C4.98717 5.56377 4.95093 6.07767 5.06565 6.56836C5.18037 7.05904 5.4407 7.50361 5.8125 7.84375C5.13295 8.1384 4.54249 8.60602 4.1 9.2C4.02043 9.30609 3.98627 9.43944 4.00503 9.57071C4.02378 9.70199 4.09391 9.82043 4.2 9.9ZM6 6C6 5.70333 6.08797 5.41332 6.2528 5.16664C6.41762 4.91997 6.65189 4.72771 6.92597 4.61418C7.20006 4.50065 7.50166 4.47094 7.79264 4.52882C8.08361 4.5867 8.35088 4.72956 8.56066 4.93934C8.77044 5.14912 8.9133 5.41639 8.97118 5.70736C9.02906 5.99834 8.99935 6.29994 8.88582 6.57403C8.77229 6.84811 8.58003 7.08238 8.33335 7.2472C8.08668 7.41203 7.79667 7.5 7.5 7.5C7.10268 7.49835 6.72211 7.33979 6.44116 7.05884C6.16021 6.77789 6.00165 6.39732 6 6ZM12 0.5H3C2.73478 0.5 2.48043 0.605357 2.29289 0.792893C2.10536 0.98043 2 1.23478 2 1.5V2.75H1C0.867392 2.75 0.740215 2.80268 0.646447 2.89645C0.552678 2.99021 0.5 3.11739 0.5 3.25C0.5 3.38261 0.552678 3.50979 0.646447 3.60355C0.740215 3.69732 0.867392 3.75 1 3.75H2V5.25H1C0.867392 5.25 0.740215 5.30268 0.646447 5.39645C0.552678 5.49021 0.5 5.61739 0.5 5.75C0.5 5.88261 0.552678 6.00979 0.646447 6.10355C0.740215 6.19732 0.867392 6.25 1 6.25H2V7.75H1C0.867392 7.75 0.740215 7.80268 0.646447 7.89645C0.552678 7.99021 0.5 8.11739 0.5 8.25C0.5 8.38261 0.552678 8.50979 0.646447 8.60355C0.740215 8.69732 0.867392 8.75 1 8.75H2V10.25H1C0.867392 10.25 0.740215 10.3027 0.646447 10.3964C0.552678 10.4902 0.5 10.6174 0.5 10.75C0.5 10.8826 0.552678 11.0098 0.646447 11.1036C0.740215 11.1973 0.867392 11.25 1 11.25H2V12.5C2 12.7652 2.10536 13.0196 2.29289 13.2071C2.48043 13.3946 2.73478 13.5 3 13.5H12C12.2652 13.5 12.5196 13.3946 12.7071 13.2071C12.8946 13.0196 13 12.7652 13 12.5V1.5C13 1.23478 12.8946 0.98043 12.7071 0.792893C12.5196 0.605357 12.2652 0.5 12 0.5ZM12 12.5H3V1.5H12V12.5Z"
        fill="url(#paint0_linear_1862_1360)" stroke="url(#paint1_linear_1862_1360)"
        stroke-width="0.2" />

</svg>
