<svg width="14" height="15" viewBox="0 0 14 15" fill="none" xmlns="http://www.w3.org/2000/svg">
    <defs>
        <linearGradient id="paint0_linear_1399_110" x1="12.75" y1="1" x2="6.92784" y2="16.5162" gradientUnits="userSpaceOnUse">
            <stop stop-color="#FF00A3"/>
            <stop offset="1" stop-color="#BC00C0"/>
        </linearGradient>
        <linearGradient id="paint1_linear_1399_110" x1="12.75" y1="1" x2="6.92784" y2="16.5162" gradientUnits="userSpaceOnUse">
            <stop stop-color="#FF00A3"/>
            <stop offset="1" stop-color="#BC00C0"/>
        </linearGradient>
    </defs>
    <path d="M4.2 10.4C4.28588 10.4662 4.39159 10.5014 4.5 10.5C4.57762 10.5 4.65418 10.4819 4.72361 10.4472C4.79303 10.4125 4.85343 10.3621 4.9 10.3C5.20273 9.89636 5.59528 9.56875 6.04656 9.34311C6.49784 9.11747 6.99545 9 7.5 9C8.00455 9 8.50216 9.11747 8.95344 9.34311C9.40473 9.56875 9.79727 9.89636 10.1 10.3C10.1806 10.4047 10.2989 10.4738 10.4296 10.4925C10.5604 10.5111 10.6933 10.478 10.8 10.4C10.8525 10.3606 10.8968 10.3112 10.9302 10.2547C10.9637 10.1982 10.9857 10.1357 10.995 10.0707C11.0043 10.0057 11.0007 9.93952 10.9844 9.87591C10.9681 9.8123 10.9394 9.75253 10.9 9.7C10.4575 9.10602 9.86705 8.6384 9.1875 8.34375C9.5593 8.00361 9.81963 7.55904 9.93435 7.06836C10.0491 6.57767 10.0128 6.06377 9.83038 5.59404C9.64793 5.12431 9.32779 4.72069 8.91193 4.43609C8.49607 4.15149 8.00392 3.99921 7.5 3.99921C6.99608 3.99921 6.50393 4.15149 6.08807 4.43609C5.67221 4.72069 5.35207 5.12431 5.16962 5.59404C4.98717 6.06377 4.95093 6.57767 5.06565 7.06836C5.18037 7.55904 5.4407 8.00361 5.8125 8.34375C5.13295 8.6384 4.54249 9.10602 4.1 9.7C4.02043 9.80609 3.98627 9.93944 4.00503 10.0707C4.02378 10.202 4.09391 10.3204 4.2 10.4ZM6 6.5C6 6.20333 6.08797 5.91332 6.2528 5.66664C6.41762 5.41997 6.65189 5.22771 6.92597 5.11418C7.20006 5.00065 7.50166 4.97094 7.79264 5.02882C8.08361 5.0867 8.35088 5.22956 8.56066 5.43934C8.77044 5.64912 8.9133 5.91639 8.97118 6.20736C9.02906 6.49834 8.99935 6.79994 8.88582 7.07403C8.77229 7.34811 8.58003 7.58238 8.33335 7.7472C8.08668 7.91203 7.79667 8 7.5 8C7.10268 7.99835 6.72211 7.83979 6.44116 7.55884C6.16021 7.27789 6.00165 6.89732 6 6.5ZM12 1H3C2.73478 1 2.48043 1.10536 2.29289 1.29289C2.10536 1.48043 2 1.73478 2 2V3.25H1C0.867392 3.25 0.740215 3.30268 0.646447 3.39645C0.552678 3.49021 0.5 3.61739 0.5 3.75C0.5 3.88261 0.552678 4.00979 0.646447 4.10355C0.740215 4.19732 0.867392 4.25 1 4.25H2V5.75H1C0.867392 5.75 0.740215 5.80268 0.646447 5.89645C0.552678 5.99021 0.5 6.11739 0.5 6.25C0.5 6.38261 0.552678 6.50979 0.646447 6.60355C0.740215 6.69732 0.867392 6.75 1 6.75H2V8.25H1C0.867392 8.25 0.740215 8.30268 0.646447 8.39645C0.552678 8.49021 0.5 8.61739 0.5 8.75C0.5 8.88261 0.552678 9.00979 0.646447 9.10355C0.740215 9.19732 0.867392 9.25 1 9.25H2V10.75H1C0.867392 10.75 0.740215 10.8027 0.646447 10.8964C0.552678 10.9902 0.5 11.1174 0.5 11.25C0.5 11.3826 0.552678 11.5098 0.646447 11.6036C0.740215 11.6973 0.867392 11.75 1 11.75H2V13C2 13.2652 2.10536 13.5196 2.29289 13.7071C2.48043 13.8946 2.73478 14 3 14H12C12.2652 14 12.5196 13.8946 12.7071 13.7071C12.8946 13.5196 13 13.2652 13 13V2C13 1.73478 12.8946 1.48043 12.7071 1.29289C12.5196 1.10536 12.2652 1 12 1ZM12 13H3V2H12V13Z" fill="url(#paint0_linear_1399_110)" stroke="url(#paint1_linear_1399_110)" stroke-width="0.2"/>
</svg>
