<svg width="17" height="16" viewBox="0 0 17 16" fill="none" xmlns="http://www.w3.org/2000/svg">
    <defs>
        <linearGradient id="paint0_linear_2520_2468" x1="15.0199" y1="2.86133" x2="11.0898"
            y2="16.7248" gradientUnits="userSpaceOnUse">
            <stop stop-color="#FF00A3" />
            <stop offset="1" stop-color="#BC00C0" />
        </linearGradient>
        <linearGradient id="paint1_linear_2520_2468" x1="9.06093" y1="2.54772" x2="10.9028"
            y2="6.46882" gradientUnits="userSpaceOnUse">
            <stop stop-color="#FF00A3" />
            <stop offset="1" stop-color="#BC00C0" />
        </linearGradient>
    </defs>
    <path fill-rule="evenodd" clip-rule="evenodd"
        d="M1.4656 3.02244C1.57168 2.9193 1.71556 2.86135 1.86558 2.86135H3.12134C3.37259 2.85976 3.61713 2.94019 3.81579 3.08977C4.01444 3.23935 4.15573 3.44943 4.21702 3.68635L5.70073 9.46134H12.7545L14.1154 4.51135H15.2999L13.8337 9.75284C13.6997 10.2313 13.2658 10.5613 12.755 10.5613H12.0474H6.95649H5.7013C5.18259 10.5613 4.73176 10.2258 4.60562 9.73634L3.12134 3.96135H1.86558C1.71556 3.96135 1.57168 3.9034 1.4656 3.80026C1.35952 3.69711 1.29993 3.55722 1.29993 3.41135C1.29993 3.26548 1.35952 3.12559 1.4656 3.02244ZM6.95649 10.5613C7.887 10.5613 8.65346 11.3066 8.65346 12.2113C8.65346 13.1161 7.887 13.8613 6.95649 13.8613C6.02599 13.8613 5.25952 13.1161 5.25952 12.2113C5.25952 11.3066 6.02599 10.5613 6.95649 10.5613ZM12.0474 10.5613C12.9779 10.5613 13.7444 11.3066 13.7444 12.2113C13.7444 13.1161 12.9779 13.8613 12.0474 13.8613C11.1169 13.8613 10.3504 13.1161 10.3504 12.2113C10.3504 11.3066 11.1169 10.5613 12.0474 10.5613ZM7.52215 12.2113C7.52215 11.9011 7.27552 11.6613 6.95649 11.6613C6.63746 11.6613 6.39084 11.9011 6.39084 12.2113C6.39084 12.5215 6.63746 12.7613 6.95649 12.7613C7.27552 12.7613 7.52215 12.5215 7.52215 12.2113ZM12.6131 12.2113C12.6131 11.9011 12.3664 11.6613 12.0474 11.6613C11.7284 11.6613 11.4817 11.9011 11.4817 12.2113C11.4817 12.5215 11.7284 12.7613 12.0474 12.7613C12.3664 12.7613 12.6131 12.5215 12.6131 12.2113Z"
        fill="url(#paint0_linear_2520_2468)" />
    <path
        d="M9.10876 7.28332V2.49988M9.10876 7.28332L7.11566 5.29022M9.10876 7.28332L11.1019 5.29022"
        stroke="url(#paint1_linear_2520_2468)" stroke-width="0.8" stroke-linecap="round"
        stroke-linejoin="round" />

</svg>
