<svg width="17" height="16" viewBox="0 0 17 16" fill="none" xmlns="http://www.w3.org/2000/svg">
    <defs>
        <clipPath id="clip0_1402_8977">
            <rect width="16" height="16" fill="white" transform="translate(0.800049)" />
        </clipPath>
    </defs>
    <g clip-path="url(#clip0_1402_8977)">
        <path
            d="M5.40794 6.58874H2.02982C1.88049 6.58874 1.73729 6.53019 1.6317 6.42598C1.52611 6.32176 1.4668 6.18042 1.4668 6.03303V2.69878C1.4668 2.5514 1.52611 2.41005 1.6317 2.30583C1.73729 2.20162 1.88049 2.14307 2.02982 2.14307C2.17914 2.14307 2.32235 2.20162 2.42793 2.30583C2.53352 2.41005 2.59284 2.5514 2.59284 2.69878V4.69238L4.0215 3.28227C5.29047 2.03433 7.00879 1.33362 8.80013 1.33362C10.5915 1.33362 12.3098 2.03433 13.5788 3.28227C13.6841 3.38645 13.7432 3.52759 13.7432 3.67474C13.7432 3.82189 13.6841 3.96304 13.5788 4.06721C13.527 4.11951 13.4651 4.16107 13.3968 4.18944C13.3286 4.21781 13.2552 4.23243 13.1811 4.23243C13.107 4.23243 13.0337 4.21781 12.9654 4.18944C12.8971 4.16107 12.8353 4.11951 12.7835 4.06721C11.7256 3.02711 10.2933 2.44313 8.80013 2.44313C7.30696 2.44313 5.87464 3.02711 4.81677 4.06721L3.3881 5.47732H5.40794C5.55726 5.47732 5.70046 5.53587 5.80605 5.64009C5.91164 5.7443 5.97096 5.88565 5.97096 6.03303C5.97096 6.18042 5.91164 6.32176 5.80605 6.42598C5.70046 6.53019 5.55726 6.58874 5.40794 6.58874ZM15.5704 9.40896H12.1923C12.043 9.40896 11.8998 9.46751 11.7942 9.57173C11.6886 9.67594 11.6293 9.81729 11.6293 9.96467C11.6293 10.1121 11.6886 10.2534 11.7942 10.3576C11.8998 10.4618 12.043 10.5204 12.1923 10.5204H14.2122L12.7835 11.9305C11.7256 12.9706 10.2933 13.5546 8.80013 13.5546C7.30696 13.5546 5.87464 12.9706 4.81677 11.9305C4.76498 11.8782 4.70313 11.8366 4.63485 11.8083C4.56656 11.7799 4.49322 11.7653 4.41913 11.7653C4.34504 11.7653 4.2717 11.7799 4.20342 11.8083C4.13513 11.8366 4.07328 11.8782 4.0215 11.9305C3.91621 12.0347 3.85708 12.1758 3.85708 12.323C3.85708 12.4701 3.91621 12.6113 4.0215 12.7154C5.28956 13.9651 7.00822 14.667 8.80013 14.667C10.592 14.667 12.3107 13.9651 13.5788 12.7154L15.0074 11.3053V13.2989C15.0074 13.4463 15.0667 13.5877 15.1723 13.6919C15.2779 13.7961 15.4211 13.8546 15.5704 13.8546C15.7198 13.8546 15.863 13.7961 15.9686 13.6919C16.0741 13.5877 16.1335 13.4463 16.1335 13.2989V9.96467C16.1335 9.81729 16.0741 9.67594 15.9686 9.57173C15.863 9.46751 15.7198 9.40896 15.5704 9.40896Z"
            fill="#12052F" opacity="0.2" />
    </g>
</svg>
