<svg width="20" height="20" viewBox="0 0 20 20" fill="none" xmlns="http://www.w3.org/2000/svg">
    <path d="M12.7501 11.0837L9.75008 8.08366C9.66675 8.00033 9.60786 7.91005 9.57341 7.81283C9.53841 7.7156 9.52091 7.61144 9.52091 7.50033C9.52091 7.38921 9.53841 7.28505 9.57341 7.18783C9.60786 7.0906 9.66675 7.00033 9.75008 6.91699L12.7501 3.91699C12.9167 3.75033 13.1112 3.66699 13.3334 3.66699C13.5556 3.66699 13.7501 3.75033 13.9167 3.91699C14.0834 4.08366 14.1667 4.28144 14.1667 4.51033C14.1667 4.73977 14.0834 4.93783 13.9167 5.10449L12.3542 6.66699H17.5001C17.7362 6.66699 17.934 6.74671 18.0934 6.90616C18.2534 7.06616 18.3334 7.26421 18.3334 7.50033C18.3334 7.73644 18.2534 7.93421 18.0934 8.09366C17.934 8.25366 17.7362 8.33366 17.5001 8.33366H12.3542L13.9167 9.89616C14.0834 10.0628 14.1667 10.2573 14.1667 10.4795C14.1667 10.7017 14.0834 10.8962 13.9167 11.0628C13.7501 11.2295 13.5592 11.3198 13.3442 11.3337C13.1287 11.3475 12.9306 11.2642 12.7501 11.0837ZM6.08341 16.0628C6.25008 16.2295 6.44453 16.3162 6.66675 16.3228C6.88897 16.33 7.08341 16.2503 7.25008 16.0837L10.2501 13.0837C10.3334 13.0003 10.3926 12.91 10.4276 12.8128C10.462 12.7156 10.4792 12.6114 10.4792 12.5003C10.4792 12.3892 10.462 12.285 10.4276 12.1878C10.3926 12.0906 10.3334 12.0003 10.2501 11.917L7.25008 8.91699C7.08341 8.75033 6.88897 8.66699 6.66675 8.66699C6.44453 8.66699 6.25008 8.75033 6.08341 8.91699C5.91675 9.08366 5.83341 9.28144 5.83341 9.51032C5.83341 9.73977 5.91675 9.93783 6.08341 10.1045L7.64591 11.667H2.50008C2.26397 11.667 2.06619 11.7467 1.90675 11.9062C1.74675 12.0662 1.66675 12.2642 1.66675 12.5003C1.66675 12.7364 1.74675 12.9342 1.90675 13.0937C2.06619 13.2537 2.26397 13.3337 2.50008 13.3337H7.64591L6.08341 14.8962C5.91675 15.0628 5.83341 15.2573 5.83341 15.4795C5.83341 15.7017 5.91675 15.8962 6.08341 16.0628Z" fill="#12052F"/>
</svg>
