<svg width="20" height="20" viewBox="0 0 20 20" fill="none" xmlns="http://www.w3.org/2000/svg">
    <defs>
        <linearGradient id="paint0_linear_994_16233" x1="16.3833" y1="1.6665" x2="8.22127"
            y2="20.8953" gradientUnits="userSpaceOnUse">
            <stop stop-color="#FF00A3" />
            <stop offset="1" stop-color="#BC00C0" />
        </linearGradient>
    </defs>
    <path
        d="M4.16667 18.3332C3.70833 18.3332 3.31583 18.1701 2.98917 17.844C2.66306 17.5173 2.5 17.1248 2.5 16.6665V4.99984H4.16667V16.6665H13.3333V18.3332H4.16667ZM7.5 14.9998C7.04167 14.9998 6.64944 14.8368 6.32333 14.5107C5.99667 14.184 5.83333 13.7915 5.83333 13.3332V3.33317C5.83333 2.87484 5.99667 2.48234 6.32333 2.15567C6.64944 1.82956 7.04167 1.6665 7.5 1.6665H15C15.4583 1.6665 15.8508 1.82956 16.1775 2.15567C16.5036 2.48234 16.6667 2.87484 16.6667 3.33317V13.3332C16.6667 13.7915 16.5036 14.184 16.1775 14.5107C15.8508 14.8368 15.4583 14.9998 15 14.9998H7.5ZM7.5 13.3332H15V3.33317H7.5V13.3332ZM7.5 13.3332V3.33317V13.3332Z"
        fill="url(#paint0_linear_994_16233)" />
</svg>
