<svg width="18" height="18" viewBox="0 0 18 18" fill="none" xmlns="http://www.w3.org/2000/svg">
    <path d="M8.99976 0.875C4.51968 0.875 0.874756 4.51992 0.874756 9C0.874756 13.4801 4.51968 17.125 8.99976 17.125C13.4798 17.125 17.1248 13.4801 17.1248 9C17.1248 4.51992 13.4798 0.875 8.99976 0.875ZM11.9416 11.0582C12.002 11.1157 12.0504 11.1846 12.0838 11.2611C12.1172 11.3375 12.135 11.4199 12.136 11.5033C12.1371 11.5867 12.1214 11.6695 12.09 11.7468C12.0586 11.8241 12.012 11.8943 11.953 11.9533C11.894 12.0122 11.8238 12.0588 11.7465 12.0903C11.6693 12.1217 11.5865 12.1373 11.5031 12.1363C11.4197 12.1352 11.3373 12.1174 11.2608 12.084C11.1844 12.0506 11.1154 12.0023 11.058 11.9418L8.99976 9.88398L6.94155 11.9418C6.82339 12.0541 6.66605 12.1157 6.50307 12.1136C6.34009 12.1115 6.18438 12.0459 6.06913 11.9306C5.95388 11.8154 5.88821 11.6597 5.88612 11.4967C5.88404 11.3337 5.9457 11.1764 6.05796 11.0582L8.11577 9L6.05796 6.9418C5.9457 6.82363 5.88404 6.66629 5.88612 6.50331C5.88821 6.34034 5.95388 6.18462 6.06913 6.06937C6.18438 5.95412 6.34009 5.88845 6.50307 5.88637C6.66605 5.88428 6.82339 5.94594 6.94155 6.0582L8.99976 8.11602L11.058 6.0582C11.1761 5.94594 11.3335 5.88428 11.4964 5.88637C11.6594 5.88845 11.8151 5.95412 11.9304 6.06937C12.0456 6.18462 12.1113 6.34034 12.1134 6.50331C12.1155 6.66629 12.0538 6.82363 11.9416 6.9418L9.88374 9L11.9416 11.0582Z" fill="#12052F"/>
</svg>
