<svg width="66" height="37" viewBox="0 0 66 37" fill="none" xmlns="http://www.w3.org/2000/svg">
    <path
        d="M17.4345 4.19342H18.2325V4.82297H18.2691C18.352 4.5936 18.4862 4.41791 18.6717 4.2959C18.862 4.16902 19.0841 4.10558 19.3378 4.10558C19.821 4.10558 20.1943 4.28126 20.4579 4.63264C20.7214 4.97914 20.8532 5.46716 20.8532 6.09671C20.8532 6.72626 20.7214 7.21672 20.4579 7.5681C20.1943 7.9146 19.821 8.08784 19.3378 8.08784C19.0841 8.08784 18.862 8.0244 18.6717 7.89752C18.4862 7.77063 18.352 7.59494 18.2691 7.37045H18.2325V9.46407H17.4345V4.19342ZM19.0963 7.39973C19.3744 7.39973 19.5965 7.31189 19.7624 7.1362C19.9283 6.95563 20.0113 6.71894 20.0113 6.42613V5.76729C20.0113 5.47448 19.9283 5.24023 19.7624 5.06454C19.5965 4.88397 19.3744 4.79369 19.0963 4.79369C18.8523 4.79369 18.6473 4.85469 18.4814 4.9767C18.3154 5.09382 18.2325 5.24999 18.2325 5.4452V6.74822C18.2325 6.94343 18.3154 7.10204 18.4814 7.22404C18.6473 7.34117 18.8523 7.39973 19.0963 7.39973ZM23.2601 8.08784C22.9965 8.08784 22.755 8.04148 22.5353 7.94876C22.3206 7.85603 22.1376 7.72427 21.9863 7.55346C21.835 7.37777 21.7179 7.16792 21.6349 6.92391C21.552 6.67502 21.5105 6.39928 21.5105 6.09671C21.5105 5.79414 21.552 5.52084 21.6349 5.27683C21.7179 5.02794 21.835 4.81809 21.9863 4.64728C22.1376 4.47159 22.3206 4.33739 22.5353 4.24466C22.755 4.15194 22.9965 4.10558 23.2601 4.10558C23.5236 4.10558 23.7627 4.15194 23.9775 4.24466C24.1971 4.33739 24.3825 4.47159 24.5338 4.64728C24.6851 4.81809 24.8022 5.02794 24.8852 5.27683C24.9681 5.52084 25.0096 5.79414 25.0096 6.09671C25.0096 6.39928 24.9681 6.67502 24.8852 6.92391C24.8022 7.16792 24.6851 7.37777 24.5338 7.55346C24.3825 7.72427 24.1971 7.85603 23.9775 7.94876C23.7627 8.04148 23.5236 8.08784 23.2601 8.08784ZM23.2601 7.42901C23.5334 7.42901 23.753 7.34605 23.9189 7.18012C24.0848 7.00931 24.1678 6.75554 24.1678 6.4188V5.77461C24.1678 5.43788 24.0848 5.18655 23.9189 5.02062C23.753 4.84981 23.5334 4.76441 23.2601 4.76441C22.9868 4.76441 22.7672 4.84981 22.6012 5.02062C22.4353 5.18655 22.3523 5.43788 22.3523 5.77461V6.4188C22.3523 6.75554 22.4353 7.00931 22.6012 7.18012C22.7672 7.34605 22.9868 7.42901 23.2601 7.42901ZM25.468 4.19342H26.244L26.6319 5.78925L26.976 7.23136H26.998L27.3933 5.78925L27.8544 4.19342H28.5718L29.0403 5.78925L29.4429 7.23136H29.4649L29.8016 5.78925L30.1969 4.19342H30.9363L29.9115 8H29.011L28.5133 6.26508L28.2058 5.19631H28.1912L27.891 6.26508L27.3859 8H26.5075L25.468 4.19342ZM33.1397 8.08784C32.8664 8.08784 32.6224 8.04148 32.4076 7.94876C32.1929 7.85603 32.0099 7.72427 31.8586 7.55346C31.7073 7.37777 31.5902 7.16792 31.5072 6.92391C31.4291 6.67502 31.3901 6.39928 31.3901 6.09671C31.3901 5.79414 31.4291 5.52084 31.5072 5.27683C31.5902 5.02794 31.7073 4.81809 31.8586 4.64728C32.0099 4.47159 32.1929 4.33739 32.4076 4.24466C32.6224 4.15194 32.8664 4.10558 33.1397 4.10558C33.4178 4.10558 33.6619 4.15438 33.8717 4.25198C34.0864 4.34959 34.2646 4.48623 34.4061 4.66192C34.5476 4.83273 34.6525 5.03282 34.7209 5.26219C34.7941 5.49156 34.8307 5.73801 34.8307 6.00155V6.30168H32.2173V6.42613C32.2173 6.71894 32.3027 6.96051 32.4735 7.15084C32.6492 7.33629 32.8981 7.42901 33.2202 7.42901C33.4544 7.42901 33.6521 7.37777 33.8131 7.27529C33.9742 7.1728 34.1108 7.03371 34.2231 6.85803L34.6916 7.31921C34.5501 7.55346 34.3451 7.74135 34.0767 7.88287C33.8083 8.01952 33.4959 8.08784 33.1397 8.08784ZM33.1397 4.7278C33.003 4.7278 32.8761 4.75221 32.759 4.80101C32.6468 4.84981 32.5492 4.91813 32.4662 5.00598C32.3881 5.09382 32.3271 5.19875 32.2832 5.32075C32.2393 5.44276 32.2173 5.57696 32.2173 5.72337V5.77461H33.9888V5.70141C33.9888 5.4086 33.9132 5.17435 33.7619 4.99866C33.6106 4.81809 33.4032 4.7278 33.1397 4.7278ZM35.714 8V4.19342H36.5119V4.92545H36.5485C36.6022 4.73024 36.7144 4.55944 36.8852 4.41303C37.056 4.26662 37.2927 4.19342 37.5953 4.19342H37.8076V4.96206H37.4928C37.1756 4.96206 36.9316 5.0133 36.7608 5.11578C36.5949 5.21827 36.5119 5.36956 36.5119 5.56964V8H35.714ZM39.9739 8.08784C39.7006 8.08784 39.4566 8.04148 39.2419 7.94876C39.0271 7.85603 38.8441 7.72427 38.6928 7.55346C38.5416 7.37777 38.4244 7.16792 38.3415 6.92391C38.2634 6.67502 38.2243 6.39928 38.2243 6.09671C38.2243 5.79414 38.2634 5.52084 38.3415 5.27683C38.4244 5.02794 38.5416 4.81809 38.6928 4.64728C38.8441 4.47159 39.0271 4.33739 39.2419 4.24466C39.4566 4.15194 39.7006 4.10558 39.9739 4.10558C40.2521 4.10558 40.4961 4.15438 40.7059 4.25198C40.9207 4.34959 41.0988 4.48623 41.2403 4.66192C41.3818 4.83273 41.4868 5.03282 41.5551 5.26219C41.6283 5.49156 41.6649 5.73801 41.6649 6.00155V6.30168H39.0515V6.42613C39.0515 6.71894 39.1369 6.96051 39.3077 7.15084C39.4834 7.33629 39.7323 7.42901 40.0544 7.42901C40.2887 7.42901 40.4863 7.37777 40.6474 7.27529C40.8084 7.1728 40.9451 7.03371 41.0573 6.85803L41.5258 7.31921C41.3843 7.55346 41.1793 7.74135 40.9109 7.88287C40.6425 8.01952 40.3302 8.08784 39.9739 8.08784ZM39.9739 4.7278C39.8373 4.7278 39.7104 4.75221 39.5932 4.80101C39.481 4.84981 39.3834 4.91813 39.3004 5.00598C39.2223 5.09382 39.1613 5.19875 39.1174 5.32075C39.0735 5.44276 39.0515 5.57696 39.0515 5.72337V5.77461H40.8231V5.70141C40.8231 5.4086 40.7474 5.17435 40.5961 4.99866C40.4448 4.81809 40.2374 4.7278 39.9739 4.7278ZM44.942 7.37045H44.9054C44.8224 7.59494 44.6857 7.77063 44.4954 7.89752C44.31 8.0244 44.0904 8.08784 43.8366 8.08784C43.3534 8.08784 42.9801 7.9146 42.7166 7.5681C42.453 7.21672 42.3213 6.72626 42.3213 6.09671C42.3213 5.46716 42.453 4.97914 42.7166 4.63264C42.9801 4.28126 43.3534 4.10558 43.8366 4.10558C44.0904 4.10558 44.31 4.16902 44.4954 4.2959C44.6857 4.41791 44.8224 4.5936 44.9054 4.82297H44.942V2.58294H45.7399V8H44.942V7.37045ZM44.0782 7.39973C44.3222 7.39973 44.5271 7.34117 44.6931 7.22404C44.859 7.10204 44.942 6.94343 44.942 6.74822V5.4452C44.942 5.24999 44.859 5.09382 44.6931 4.9767C44.5271 4.85469 44.3222 4.79369 44.0782 4.79369C43.8 4.79369 43.5779 4.88397 43.412 5.06454C43.2461 5.24023 43.1631 5.47448 43.1631 5.76729V6.42613C43.1631 6.71894 43.2461 6.95563 43.412 7.1362C43.5779 7.31189 43.8 7.39973 44.0782 7.39973ZM48.6104 2.58294H49.4083V4.82297H49.4449C49.5278 4.5936 49.6621 4.41791 49.8475 4.2959C50.0378 4.16902 50.2599 4.10558 50.5137 4.10558C50.9968 4.10558 51.3701 4.28126 51.6337 4.63264C51.8972 4.97914 52.029 5.46716 52.029 6.09671C52.029 6.72626 51.8972 7.21672 51.6337 7.5681C51.3701 7.9146 50.9968 8.08784 50.5137 8.08784C50.2599 8.08784 50.0378 8.0244 49.8475 7.89752C49.6621 7.77063 49.5278 7.59494 49.4449 7.37045H49.4083V8H48.6104V2.58294ZM50.2721 7.39973C50.5503 7.39973 50.7723 7.31189 50.9382 7.1362C51.1042 6.95563 51.1871 6.71894 51.1871 6.42613V5.76729C51.1871 5.47448 51.1042 5.24023 50.9382 5.06454C50.7723 4.88397 50.5503 4.79369 50.2721 4.79369C50.0281 4.79369 49.8231 4.85469 49.6572 4.9767C49.4912 5.09382 49.4083 5.24999 49.4083 5.4452V6.74822C49.4083 6.94343 49.4912 7.10204 49.6572 7.22404C49.8231 7.34117 50.0281 7.39973 50.2721 7.39973ZM55.2277 4.19342H55.9963L54.3932 8.754C54.3492 8.88088 54.298 8.98825 54.2394 9.07609C54.1857 9.16882 54.1199 9.24202 54.0418 9.2957C53.9686 9.35426 53.8783 9.39575 53.7709 9.42015C53.6636 9.44943 53.5367 9.46407 53.3903 9.46407H52.9291V8.81256H53.5733L53.7929 8.16837L52.4093 4.19342H53.2073L53.9686 6.43345L54.1882 7.26064H54.2248L54.4664 6.43345L55.2277 4.19342Z"
        fill="white" />
    <path fill-rule="evenodd" clip-rule="evenodd"
        d="M32.2316 18.7982V24.3632H41.0843V28.2659H32.2316V35.999H27.377V14.8232H43.1547V18.7259H32.2316V18.7982ZM14.4543 15.0439H6.88672V19.308H13.2406C16.5961 19.308 19.3804 22.1266 19.3804 25.5234C19.3804 28.9202 16.5961 31.7388 13.2406 31.7388H6.88672V36.0029H14.2401C20.0229 36.0029 24.6634 31.3052 24.6634 25.4511C24.6634 19.6694 20.0943 15.0439 14.4543 15.0439ZM55.4341 28.6272L60.503 35.999V35.9267H66.0002L58.2184 25.0136L65.5004 14.8232H60.2888L55.5769 21.6891L50.7936 14.8232H45.2964L52.6498 25.2304L44.9395 35.999H50.508L55.4341 28.6272Z"
        fill="white" />
    <path
        d="M9.85326 20.1943C9.71048 20.1943 9.56769 20.1943 9.35352 20.1943C10.9955 21.3507 12.1378 23.302 12.1378 25.5425C12.1378 27.7829 11.0669 29.7343 9.35352 30.8906C9.4963 30.8906 9.63908 30.8906 9.85326 30.8906C12.7803 30.8906 15.1363 28.5056 15.1363 25.5425C15.1363 22.5793 12.7803 20.1943 9.85326 20.1943Z"
        fill="#F5516C" />
    <path
        d="M11.4228 25.5357C11.4228 28.7157 8.85265 31.3175 5.71139 31.3175C2.57013 31.3175 0 28.7157 0 25.5357C0 22.3557 2.57013 19.7539 5.71139 19.7539C8.92404 19.7539 11.4228 22.3557 11.4228 25.5357Z"
        fill="#F5516C" />
</svg>
