<svg width="66" height="37" viewBox="0 0 66 37" fill="none" xmlns="http://www.w3.org/2000/svg">
    <path
        d="M17.0436 4.19342H17.8416V4.82297H17.8782C17.9611 4.5936 18.0953 4.41791 18.2808 4.2959C18.4711 4.16902 18.6932 4.10558 18.9469 4.10558C19.4301 4.10558 19.8034 4.28126 20.0669 4.63264C20.3305 4.97914 20.4622 5.46716 20.4622 6.09671C20.4622 6.72626 20.3305 7.21672 20.0669 7.5681C19.8034 7.9146 19.4301 8.08784 18.9469 8.08784C18.6932 8.08784 18.4711 8.0244 18.2808 7.89752C18.0953 7.77063 17.9611 7.59494 17.8782 7.37045H17.8416V9.46407H17.0436V4.19342ZM18.7054 7.39973C18.9835 7.39973 19.2056 7.31189 19.3715 7.1362C19.5374 6.95563 19.6204 6.71894 19.6204 6.42613V5.76729C19.6204 5.47448 19.5374 5.24023 19.3715 5.06454C19.2056 4.88397 18.9835 4.79369 18.7054 4.79369C18.4614 4.79369 18.2564 4.85469 18.0905 4.9767C17.9245 5.09382 17.8416 5.24999 17.8416 5.4452V6.74822C17.8416 6.94343 17.9245 7.10204 18.0905 7.22404C18.2564 7.34117 18.4614 7.39973 18.7054 7.39973ZM22.8692 8.08784C22.6056 8.08784 22.364 8.04148 22.1444 7.94876C21.9297 7.85603 21.7467 7.72427 21.5954 7.55346C21.4441 7.37777 21.327 7.16792 21.244 6.92391C21.1611 6.67502 21.1196 6.39928 21.1196 6.09671C21.1196 5.79414 21.1611 5.52084 21.244 5.27683C21.327 5.02794 21.4441 4.81809 21.5954 4.64728C21.7467 4.47159 21.9297 4.33739 22.1444 4.24466C22.364 4.15194 22.6056 4.10558 22.8692 4.10558C23.1327 4.10558 23.3718 4.15194 23.5865 4.24466C23.8062 4.33739 23.9916 4.47159 24.1429 4.64728C24.2942 4.81809 24.4113 5.02794 24.4943 5.27683C24.5772 5.52084 24.6187 5.79414 24.6187 6.09671C24.6187 6.39928 24.5772 6.67502 24.4943 6.92391C24.4113 7.16792 24.2942 7.37777 24.1429 7.55346C23.9916 7.72427 23.8062 7.85603 23.5865 7.94876C23.3718 8.04148 23.1327 8.08784 22.8692 8.08784ZM22.8692 7.42901C23.1424 7.42901 23.3621 7.34605 23.528 7.18012C23.6939 7.00931 23.7769 6.75554 23.7769 6.4188V5.77461C23.7769 5.43788 23.6939 5.18655 23.528 5.02062C23.3621 4.84981 23.1424 4.76441 22.8692 4.76441C22.5959 4.76441 22.3762 4.84981 22.2103 5.02062C22.0444 5.18655 21.9614 5.43788 21.9614 5.77461V6.4188C21.9614 6.75554 22.0444 7.00931 22.2103 7.18012C22.3762 7.34605 22.5959 7.42901 22.8692 7.42901ZM25.0771 4.19342H25.8531L26.241 5.78925L26.5851 7.23136H26.607L27.0023 5.78925L27.4635 4.19342H28.1809L28.6494 5.78925L29.052 7.23136H29.074L29.4107 5.78925L29.806 4.19342H30.5454L29.5205 8H28.6201L28.1224 6.26508L27.8149 5.19631H27.8003L27.5001 6.26508L26.995 8H26.1166L25.0771 4.19342ZM32.7488 8.08784C32.4755 8.08784 32.2315 8.04148 32.0167 7.94876C31.802 7.85603 31.619 7.72427 31.4677 7.55346C31.3164 7.37777 31.1993 7.16792 31.1163 6.92391C31.0382 6.67502 30.9992 6.39928 30.9992 6.09671C30.9992 5.79414 31.0382 5.52084 31.1163 5.27683C31.1993 5.02794 31.3164 4.81809 31.4677 4.64728C31.619 4.47159 31.802 4.33739 32.0167 4.24466C32.2315 4.15194 32.4755 4.10558 32.7488 4.10558C33.0269 4.10558 33.2709 4.15438 33.4808 4.25198C33.6955 4.34959 33.8737 4.48623 34.0152 4.66192C34.1567 4.83273 34.2616 5.03282 34.33 5.26219C34.4032 5.49156 34.4398 5.73801 34.4398 6.00155V6.30168H31.8264V6.42613C31.8264 6.71894 31.9118 6.96051 32.0826 7.15084C32.2583 7.33629 32.5072 7.42901 32.8293 7.42901C33.0635 7.42901 33.2612 7.37777 33.4222 7.27529C33.5833 7.1728 33.7199 7.03371 33.8322 6.85803L34.3007 7.31921C34.1591 7.55346 33.9542 7.74135 33.6858 7.88287C33.4174 8.01952 33.105 8.08784 32.7488 8.08784ZM32.7488 4.7278C32.6121 4.7278 32.4852 4.75221 32.3681 4.80101C32.2559 4.84981 32.1583 4.91813 32.0753 5.00598C31.9972 5.09382 31.9362 5.19875 31.8923 5.32075C31.8484 5.44276 31.8264 5.57696 31.8264 5.72337V5.77461H33.5979V5.70141C33.5979 5.4086 33.5223 5.17435 33.371 4.99866C33.2197 4.81809 33.0123 4.7278 32.7488 4.7278ZM35.3231 8V4.19342H36.121V4.92545H36.1576C36.2113 4.73024 36.3235 4.55944 36.4943 4.41303C36.6651 4.26662 36.9018 4.19342 37.2044 4.19342H37.4167V4.96206H37.1019C36.7847 4.96206 36.5407 5.0133 36.3699 5.11578C36.2039 5.21827 36.121 5.36956 36.121 5.56964V8H35.3231ZM39.583 8.08784C39.3097 8.08784 39.0657 8.04148 38.851 7.94876C38.6362 7.85603 38.4532 7.72427 38.3019 7.55346C38.1506 7.37777 38.0335 7.16792 37.9506 6.92391C37.8725 6.67502 37.8334 6.39928 37.8334 6.09671C37.8334 5.79414 37.8725 5.52084 37.9506 5.27683C38.0335 5.02794 38.1506 4.81809 38.3019 4.64728C38.4532 4.47159 38.6362 4.33739 38.851 4.24466C39.0657 4.15194 39.3097 4.10558 39.583 4.10558C39.8612 4.10558 40.1052 4.15438 40.315 4.25198C40.5298 4.34959 40.7079 4.48623 40.8494 4.66192C40.9909 4.83273 41.0959 5.03282 41.1642 5.26219C41.2374 5.49156 41.274 5.73801 41.274 6.00155V6.30168H38.6606V6.42613C38.6606 6.71894 38.746 6.96051 38.9168 7.15084C39.0925 7.33629 39.3414 7.42901 39.6635 7.42901C39.8978 7.42901 40.0954 7.37777 40.2565 7.27529C40.4175 7.1728 40.5542 7.03371 40.6664 6.85803L41.1349 7.31921C40.9934 7.55346 40.7884 7.74135 40.52 7.88287C40.2516 8.01952 39.9393 8.08784 39.583 8.08784ZM39.583 4.7278C39.4463 4.7278 39.3195 4.75221 39.2023 4.80101C39.0901 4.84981 38.9925 4.91813 38.9095 5.00598C38.8314 5.09382 38.7704 5.19875 38.7265 5.32075C38.6826 5.44276 38.6606 5.57696 38.6606 5.72337V5.77461H40.4322V5.70141C40.4322 5.4086 40.3565 5.17435 40.2052 4.99866C40.0539 4.81809 39.8465 4.7278 39.583 4.7278ZM44.5511 7.37045H44.5144C44.4315 7.59494 44.2948 7.77063 44.1045 7.89752C43.9191 8.0244 43.6994 8.08784 43.4457 8.08784C42.9625 8.08784 42.5892 7.9146 42.3257 7.5681C42.0621 7.21672 41.9304 6.72626 41.9304 6.09671C41.9304 5.46716 42.0621 4.97914 42.3257 4.63264C42.5892 4.28126 42.9625 4.10558 43.4457 4.10558C43.6994 4.10558 43.9191 4.16902 44.1045 4.2959C44.2948 4.41791 44.4315 4.5936 44.5144 4.82297H44.5511V2.58294H45.349V8H44.5511V7.37045ZM43.6872 7.39973C43.9313 7.39973 44.1362 7.34117 44.3022 7.22404C44.4681 7.10204 44.5511 6.94343 44.5511 6.74822V5.4452C44.5511 5.24999 44.4681 5.09382 44.3022 4.9767C44.1362 4.85469 43.9313 4.79369 43.6872 4.79369C43.4091 4.79369 43.187 4.88397 43.0211 5.06454C42.8552 5.24023 42.7722 5.47448 42.7722 5.76729V6.42613C42.7722 6.71894 42.8552 6.95563 43.0211 7.1362C43.187 7.31189 43.4091 7.39973 43.6872 7.39973ZM48.2195 2.58294H49.0174V4.82297H49.054C49.1369 4.5936 49.2711 4.41791 49.4566 4.2959C49.6469 4.16902 49.869 4.10558 50.1227 4.10558C50.6059 4.10558 50.9792 4.28126 51.2428 4.63264C51.5063 4.97914 51.6381 5.46716 51.6381 6.09671C51.6381 6.72626 51.5063 7.21672 51.2428 7.5681C50.9792 7.9146 50.6059 8.08784 50.1227 8.08784C49.869 8.08784 49.6469 8.0244 49.4566 7.89752C49.2711 7.77063 49.1369 7.59494 49.054 7.37045H49.0174V8H48.2195V2.58294ZM49.8812 7.39973C50.1594 7.39973 50.3814 7.31189 50.5473 7.1362C50.7133 6.95563 50.7962 6.71894 50.7962 6.42613V5.76729C50.7962 5.47448 50.7133 5.24023 50.5473 5.06454C50.3814 4.88397 50.1594 4.79369 49.8812 4.79369C49.6372 4.79369 49.4322 4.85469 49.2663 4.9767C49.1003 5.09382 49.0174 5.24999 49.0174 5.4452V6.74822C49.0174 6.94343 49.1003 7.10204 49.2663 7.22404C49.4322 7.34117 49.6372 7.39973 49.8812 7.39973ZM54.8368 4.19342H55.6054L54.0022 8.754C53.9583 8.88088 53.9071 8.98825 53.8485 9.07609C53.7948 9.16882 53.729 9.24202 53.6509 9.2957C53.5777 9.35426 53.4874 9.39575 53.38 9.42015C53.2727 9.44943 53.1458 9.46407 52.9994 9.46407H52.5382V8.81256H53.1824L53.402 8.16837L52.0184 4.19342H52.8163L53.5777 6.43345L53.7973 7.26064H53.8339L54.0754 6.43345L54.8368 4.19342Z"
        fill="#132235" />
    <path fill-rule="evenodd" clip-rule="evenodd"
        d="M32.2316 18.7982V24.3632H41.0843V28.2659H32.2316V35.999H27.377V14.8232H43.1547V18.7259H32.2316V18.7982ZM14.4543 15.0439H6.88672V19.308H13.2406C16.5961 19.308 19.3804 22.1266 19.3804 25.5234C19.3804 28.9202 16.5961 31.7388 13.2406 31.7388H6.88672V36.0029H14.2401C20.0229 36.0029 24.6634 31.3052 24.6634 25.4511C24.6634 19.6694 20.0943 15.0439 14.4543 15.0439ZM55.4341 28.6272L60.503 35.999V35.9267H66.0002L58.2184 25.0136L65.5004 14.8232H60.2888L55.5769 21.6891L50.7936 14.8232H45.2964L52.6498 25.2304L44.9395 35.999H50.508L55.4341 28.6272Z"
        fill="#092441" />
    <path
        d="M9.85326 20.1943C9.71048 20.1943 9.56769 20.1943 9.35352 20.1943C10.9955 21.3507 12.1378 23.302 12.1378 25.5425C12.1378 27.7829 11.0669 29.7343 9.35352 30.8906C9.4963 30.8906 9.63908 30.8906 9.85326 30.8906C12.7803 30.8906 15.1363 28.5056 15.1363 25.5425C15.1363 22.5793 12.7803 20.1943 9.85326 20.1943Z"
        fill="#F5516C" />
    <path
        d="M11.4228 25.5357C11.4228 28.7157 8.85265 31.3175 5.71139 31.3175C2.57013 31.3175 0 28.7157 0 25.5357C0 22.3557 2.57013 19.7539 5.71139 19.7539C8.92404 19.7539 11.4228 22.3557 11.4228 25.5357Z"
        fill="#F5516C" />
</svg>
