<svg xmlns="http://www.w3.org/2000/svg" width="17" height="16" fill="none">
    <path fill="#12052F"
        d="M14.31 11.211a1.097 1.097 0 0 1-.894-.461l-.006-.01-.022-.033v-.003l-.015-.026-.003-.005-.014-.026-.003-.005-.014-.027-.002-.006-.013-.026a.044.044 0 0 0-.003-.007l-.012-.027a.05.05 0 0 0-.003-.008l-.011-.027-.003-.008-.011-.028a.05.05 0 0 0-.003-.008l-.01-.028-.003-.01a.564.564 0 0 1-.013-.039l-.009-.028-.002-.011-.009-.03-.003-.011-.007-.029-.003-.013-.007-.029c0-.005-.003-.01-.004-.015 0-.005-.004-.019-.006-.028-.002-.01 0-.013-.004-.019-.003-.006-.003-.017-.005-.025l-.008-.047a3.008 3.008 0 0 1-.02-.124V9.98c0-.013-.003-.026-.005-.038v-.007c0-.013-.003-.025-.005-.038v-.005a2.34 2.34 0 0 1-.009-.097c0-.01 0-.022-.003-.033V9.75l-.003-.033v-.012l-.003-.047v-.004l-.003-.042v-.16c.502-.121.998-.26 1.485-.42l.007-.042a6.062 6.062 0 0 0 .09-.99v-.004a5.899 5.899 0 0 0-.085-.951v-.01c-.006-.042-.011-.083-.019-.125v-.003a5.693 5.693 0 0 0-.214-.807l-.016-.047-.038-.106-.02-.05-.029-.076-.02-.047-.046-.111a5.859 5.859 0 0 0-.272-.552l-.06-.098-.01-.015a5.91 5.91 0 0 0-.515-.745l-.008-.009a5.875 5.875 0 0 0-4.551-2.135H8.81a5.94 5.94 0 0 0-.993.09 5.79 5.79 0 0 0-.754.174h-.005l-.033.01a5.886 5.886 0 0 0-.677.27c-.058.027-.116.054-.174.083l-.12.062-.01.005-.09.047-.062.034a5.11 5.11 0 0 0-.369.226l-.004.002-.003.003a5.901 5.901 0 0 0-.729.591 5.917 5.917 0 0 0-.515.538l-.009.01a5.985 5.985 0 0 0-.433.61l-.027.043-.06.101-.012.02A5.585 5.585 0 0 0 3.005 7c-.055.328-.083.66-.083.994 0 .184.01.368.029.552.016.162.04.324.067.483.487.16.984.298 1.485.42v.05a.12.12 0 0 0 0 .014V9.565c0 .036-.004.07-.007.104 0 .015 0 .03-.003.044v.006l-.003.04c-.04.447-.126.768-.29 1.001a1.094 1.094 0 0 1-.88.444H1.472c.243.554.548 1.078.909 1.563h.932c.533 0 1.054-.16 1.495-.462l.028-.019c.18-.127.345-.275.489-.442l.006-.007c.395-.476.58-1.072.661-1.694v-.01c0-.01 0-.018.004-.028v-.011l.006-.047v-.015c0-.005 0-.014.002-.021.002-.007 0-.014 0-.021v-.02c0-.006 0-.016.002-.024.003-.008 0-.011 0-.017 0-.013 0-.026.003-.04V9.79c0-.014 0-.028.004-.041.207.032.418.053.629.077v5.885c.57.158 1.155.252 1.745.28V9.958c.135.003.268.016.404.016s.268-.013.403-.016v6.033h.008l.076-.004h.024c.027 0 .052-.004.079-.006h.028l.074-.006.032-.003.072-.007.035-.004.047-.005.06-.006.036-.005.078-.01.022-.003c.362-.05.72-.123 1.072-.222V9.832c.21-.025.422-.047.63-.078l.002.04c.073.977.34 1.934 1.218 2.518.441.302.963.463 1.497.462h.91c.362-.484.666-1.009.91-1.563H14.31ZM12.08 8.11a17.089 17.089 0 0 1-3.267.324 16.872 16.872 0 0 1-4.347-.572 4.357 4.357 0 0 1 2.73-3.896H7.2c.124-.05.251-.094.38-.132l.015-.005a4.352 4.352 0 0 1 5.564 4.034c-.359.093-.718.175-1.078.247Z"
        mask="#12052F" />
    <circle cx="8.8" cy="8" r="7.48" stroke="#12052F" stroke-linecap="round" stroke-linejoin="round"
        stroke-width="1.04" />
</svg>