<svg width="17" height="16" viewBox="0 0 17 16" fill="none" xmlns="http://www.w3.org/2000/svg">
    <defs>
        <linearGradient id="paint0_linear_1402_9493" x1="12.64" y1="3.20007" x2="7.87407" y2="14.208" gradientUnits="userSpaceOnUse">
            <stop stop-color="#FF00A3"/>
            <stop offset="1" stop-color="#BC00C0"/>
        </linearGradient>
        <linearGradient id="paint1_linear_1402_9493" x1="16.48" y1="-6.96606e-07" x2="-2.9102" y2="28.1927" gradientUnits="userSpaceOnUse">
            <stop stop-color="#FF00A3"/>
            <stop offset="1" stop-color="#BC00C0"/>
        </linearGradient>
    </defs>
    <path d="M8.80104 4.15996C10.5883 4.15996 11.8583 5.50379 11.8583 7.42355C9.88872 8.18667 7.71337 8.18667 5.74383 7.42355C5.74383 5.50379 7.01375 4.15996 8.80104 4.15996ZM8.80104 3.20007C6.59044 3.20007 4.80315 4.87987 4.80315 7.47155C4.83137 7.8555 5.06654 8.19146 5.41459 8.33544L6.21417 8.57541V9.67928C6.21417 9.74292 6.18939 9.80396 6.14529 9.84896C6.10119 9.89397 6.04137 9.91925 5.979 9.91925C5.91663 9.91925 5.85681 9.89397 5.81271 9.84896C5.76861 9.80396 5.74383 9.74292 5.74383 9.67928C5.75158 9.61435 5.74475 9.54848 5.72385 9.48665C5.70296 9.42482 5.66854 9.36865 5.62322 9.32241C5.5779 9.27616 5.52286 9.24104 5.46226 9.21972C5.40167 9.1984 5.33711 9.19143 5.27349 9.19934C5.20986 9.19143 5.14531 9.1984 5.08472 9.21972C5.02412 9.24104 4.96908 9.27616 4.92376 9.32241C4.87843 9.36865 4.84402 9.42482 4.82313 9.48665C4.80223 9.54848 4.7954 9.61435 4.80315 9.67928C4.79714 9.83445 4.82187 9.98926 4.87587 10.1344C4.92987 10.2796 5.01203 10.4122 5.11742 10.5242C5.22282 10.6363 5.34928 10.7254 5.48924 10.7864C5.6292 10.8474 5.77978 10.8789 5.93197 10.8791H5.979C6.64218 10.9079 7.18307 10.356 7.15485 9.67928V8.81538H7.62519V11.551C7.62519 11.8726 7.15485 11.8726 7.15485 11.551C7.1626 11.4861 7.15577 11.4203 7.13487 11.3584C7.11398 11.2966 7.07956 11.2404 7.03424 11.1942C6.98892 11.1479 6.93388 11.1128 6.87328 11.0915C6.81269 11.0702 6.74814 11.0632 6.68451 11.0711C6.62089 11.0632 6.55633 11.0702 6.49574 11.0915C6.43514 11.1128 6.3801 11.1479 6.33478 11.1942C6.28946 11.2404 6.25504 11.2966 6.23415 11.3584C6.21325 11.4203 6.20642 11.4861 6.21417 11.551C6.16243 12.223 6.68451 12.7989 7.34299 12.7989H7.39002C8.0532 12.8277 8.59409 12.2758 8.56587 11.599V8.95937H9.03621V11.599C9.02912 11.7585 9.05469 11.9178 9.11127 12.0666C9.16786 12.2155 9.25422 12.3507 9.36485 12.4635C9.47549 12.5764 9.60796 12.6646 9.75383 12.7223C9.8997 12.78 10.0558 12.8061 10.2121 12.7989H10.2591C10.9035 12.7989 11.4161 12.2518 11.3879 11.599C11.3879 10.9607 10.4472 10.9607 10.4472 11.599C10.4472 11.9206 9.97689 11.9206 9.97689 11.599V8.86338H10.4472V9.72727C10.4472 10.38 10.9787 10.9079 11.6231 10.8791H11.6701C12.3145 10.8791 12.8272 10.332 12.7989 9.67928C12.7989 9.04096 11.8583 9.04096 11.8583 9.67928C11.8583 10.0008 11.3879 10.0008 11.3879 9.67928V8.57541L12.1875 8.33544C12.5261 8.17226 12.7566 7.8459 12.7989 7.47155C12.7989 4.87987 11.0116 3.20007 8.80104 3.20007Z" fill="url(#paint0_linear_1402_9493)"/>
    <circle cx="8.80005" cy="8" r="7.48" stroke="url(#paint1_linear_1402_9493)" stroke-width="1.04" stroke-linecap="round" stroke-linejoin="round"/>
</svg>
