<svg width="17" height="16" viewBox="0 0 17 16" fill="none" xmlns="http://www.w3.org/2000/svg">
    <defs>
        <linearGradient id="earn_icon_gradient" x1="12.64" y1="3.19971" x2="7.87407" y2="14.2076"
            gradientUnits="userSpaceOnUse">
            <stop stop-color="#FF00A3" />
            <stop offset="1" stop-color="#BC00C0" />
        </linearGradient>
        <linearGradient id="paint1_linear_3934_4543" x1="16.48" y1="-6.96606e-07" x2="-2.9102"
            y2="28.1927" gradientUnits="userSpaceOnUse">
            <stop stop-color="#FF00A3" />
            <stop offset="1" stop-color="#BC00C0" />
        </linearGradient>
    </defs>
    <g id="Icon-button/Earn">
        <path id="Vector2"
            d="M8.80104 4.15959C10.5883 4.15959 11.8583 5.50342 11.8583 7.42319C9.88872 8.1863 7.71337 8.1863 5.74383 7.42319C5.74383 5.50342 7.01375 4.15959 8.80104 4.15959ZM8.80104 3.19971C6.59044 3.19971 4.80315 4.8795 4.80315 7.47118C4.83137 7.85513 5.06654 8.19109 5.41459 8.33508L6.21417 8.57505V9.67891C6.21417 9.74255 6.18939 9.80359 6.14529 9.8486C6.10119 9.8936 6.04137 9.91888 5.979 9.91888C5.91663 9.91888 5.85681 9.8936 5.81271 9.8486C5.76861 9.80359 5.74383 9.74255 5.74383 9.67891C5.75158 9.61399 5.74475 9.54811 5.72385 9.48628C5.70296 9.42445 5.66854 9.36829 5.62322 9.32204C5.5779 9.27579 5.52286 9.24068 5.46226 9.21935C5.40167 9.19803 5.33711 9.19106 5.27349 9.19897C5.20986 9.19106 5.14531 9.19803 5.08472 9.21935C5.02412 9.24068 4.96908 9.27579 4.92376 9.32204C4.87843 9.36829 4.84402 9.42445 4.82313 9.48628C4.80223 9.54811 4.7954 9.61399 4.80315 9.67891C4.79714 9.83408 4.82187 9.98889 4.87587 10.1341C4.92987 10.2793 5.01203 10.4118 5.11742 10.5239C5.22282 10.6359 5.34928 10.7251 5.48924 10.786C5.6292 10.847 5.77978 10.8786 5.93197 10.8788H5.979C6.64218 10.9076 7.18307 10.3556 7.15485 9.67891V8.81502H7.62519V11.5507C7.62519 11.8722 7.15485 11.8722 7.15485 11.5507C7.1626 11.4858 7.15577 11.4199 7.13487 11.3581C7.11398 11.2962 7.07956 11.2401 7.03424 11.1938C6.98892 11.1476 6.93388 11.1124 6.87328 11.0911C6.81269 11.0698 6.74814 11.0628 6.68451 11.0707C6.62089 11.0628 6.55633 11.0698 6.49574 11.0911C6.43514 11.1124 6.3801 11.1476 6.33478 11.1938C6.28946 11.2401 6.25504 11.2962 6.23415 11.3581C6.21325 11.4199 6.20642 11.4858 6.21417 11.5507C6.16243 12.2226 6.68451 12.7985 7.34299 12.7985H7.39002C8.0532 12.8273 8.59409 12.2754 8.56587 11.5987V8.959H9.03621V11.5987C9.02912 11.7582 9.05469 11.9174 9.11127 12.0663C9.16786 12.2151 9.25422 12.3503 9.36485 12.4632C9.47549 12.5761 9.60796 12.6642 9.75383 12.7219C9.8997 12.7797 10.0558 12.8058 10.2121 12.7985H10.2591C10.9035 12.7985 11.4161 12.2514 11.3879 11.5987C11.3879 10.9604 10.4472 10.9604 10.4472 11.5987C10.4472 11.9202 9.97689 11.9202 9.97689 11.5987V8.86301H10.4472V9.7269C10.4472 10.3796 10.9787 10.9076 11.6231 10.8788H11.6701C12.3145 10.8788 12.8272 10.3316 12.7989 9.67891C12.7989 9.04059 11.8583 9.04059 11.8583 9.67891C11.8583 10.0005 11.3879 10.0005 11.3879 9.67891V8.57505L12.1875 8.33508C12.5261 8.1719 12.7566 7.84554 12.7989 7.47118C12.7989 4.8795 11.0116 3.19971 8.80104 3.19971Z"
            fill="url(#earn_icon_gradient)" />
        <circle id="Ellipse 125" cx="8.80005" cy="8" r="7.48" stroke="url(#paint1_linear_3934_4543)"
            stroke-width="1.04" stroke-linecap="round" stroke-linejoin="round" />
    </g>
</svg>
