<svg width="24" height="24" viewBox="0 0 24 24" fill="none" xmlns="http://www.w3.org/2000/svg">
    <path
        d="M4.5 7.6875H12.75M12 15.9375H20.25M4.5 15.9375H6.75M18 7.6875H20.25M18 7.875C18 9.32475 16.8247 10.5 15.375 10.5C13.9253 10.5 12.75 9.32475 12.75 7.875C12.75 6.42525 13.9253 5.25 15.375 5.25C16.8247 5.25 18 6.42525 18 7.875ZM12 16.125C12 17.5747 10.8247 18.75 9.375 18.75C7.92525 18.75 6.75 17.5747 6.75 16.125C6.75 14.6753 7.92525 13.5 9.375 13.5C10.8247 13.5 12 14.6753 12 16.125Z"
        stroke="#12052F" stroke-width="1.2" stroke-linecap="round" />
</svg>
