<svg width="16" height="16" viewBox="0 0 16 16" fill="none" xmlns="http://www.w3.org/2000/svg">
    <path d="M2.16667 7.16667C1.70833 7.16667 1.31583 7.00333 0.989167 6.67667C0.663055 6.35055 0.5 5.95833 0.5 5.5V2.16667C0.5 1.70833 0.663055 1.31583 0.989167 0.989167C1.31583 0.663055 1.70833 0.5 2.16667 0.5H5.5C5.95833 0.5 6.35083 0.663055 6.6775 0.989167C7.00361 1.31583 7.16667 1.70833 7.16667 2.16667V5.5C7.16667 5.95833 7.00361 6.35055 6.6775 6.67667C6.35083 7.00333 5.95833 7.16667 5.5 7.16667H2.16667ZM2.16667 15.5C1.70833 15.5 1.31583 15.3369 0.989167 15.0108C0.663055 14.6842 0.5 14.2917 0.5 13.8333V10.5C0.5 10.0417 0.663055 9.64917 0.989167 9.3225C1.31583 8.99639 1.70833 8.83333 2.16667 8.83333H5.5C5.95833 8.83333 6.35083 8.99639 6.6775 9.3225C7.00361 9.64917 7.16667 10.0417 7.16667 10.5V13.8333C7.16667 14.2917 7.00361 14.6842 6.6775 15.0108C6.35083 15.3369 5.95833 15.5 5.5 15.5H2.16667ZM10.5 7.16667C10.0417 7.16667 9.64944 7.00333 9.32333 6.67667C8.99667 6.35055 8.83333 5.95833 8.83333 5.5V2.16667C8.83333 1.70833 8.99667 1.31583 9.32333 0.989167C9.64944 0.663055 10.0417 0.5 10.5 0.5H13.8333C14.2917 0.5 14.6842 0.663055 15.0108 0.989167C15.3369 1.31583 15.5 1.70833 15.5 2.16667V5.5C15.5 5.95833 15.3369 6.35055 15.0108 6.67667C14.6842 7.00333 14.2917 7.16667 13.8333 7.16667H10.5ZM10.5 15.5C10.0417 15.5 9.64944 15.3369 9.32333 15.0108C8.99667 14.6842 8.83333 14.2917 8.83333 13.8333V10.5C8.83333 10.0417 8.99667 9.64917 9.32333 9.3225C9.64944 8.99639 10.0417 8.83333 10.5 8.83333H13.8333C14.2917 8.83333 14.6842 8.99639 15.0108 9.3225C15.3369 9.64917 15.5 10.0417 15.5 10.5V13.8333C15.5 14.2917 15.3369 14.6842 15.0108 15.0108C14.6842 15.3369 14.2917 15.5 13.8333 15.5H10.5ZM2.16667 5.5H5.5V2.16667H2.16667V5.5ZM10.5 5.5H13.8333V2.16667H10.5V5.5ZM10.5 13.8333H13.8333V10.5H10.5V13.8333ZM2.16667 13.8333H5.5V10.5H2.16667V13.8333Z" fill="#12052F"/>
</svg>
