<svg width="14" height="14" viewBox="0 0 14 14" fill="none" xmlns="http://www.w3.org/2000/svg">
    <defs>
        <linearGradient id="paint0_linear_997_19861" x1="13.6666" y1="-1.69033" x2="0.301944"
            y2="-1.38128" gradientUnits="userSpaceOnUse">
            <stop stop-color="#EE1771" />
            <stop offset="1" stop-color="#EE1798" />
        </linearGradient>
    </defs>
    <path
        d="M6.33325 9.00016H7.66658V10.3335H6.33325V9.00016ZM6.33325 3.66683H7.66658V7.66683H6.33325V3.66683ZM6.99992 0.333496C3.31325 0.333496 0.333252 3.3335 0.333252 7.00016C0.333252 8.76827 1.03563 10.464 2.28587 11.7142C2.90493 12.3333 3.63986 12.8243 4.4487 13.1594C5.25753 13.4944 6.12444 13.6668 6.99992 13.6668C8.76803 13.6668 10.4637 12.9644 11.714 11.7142C12.9642 10.464 13.6666 8.76827 13.6666 7.00016C13.6666 6.12468 13.4941 5.25778 13.1591 4.44894C12.8241 3.6401 12.333 2.90517 11.714 2.28612C11.0949 1.66706 10.36 1.176 9.55114 0.840966C8.7423 0.505935 7.8754 0.333496 6.99992 0.333496ZM6.99992 12.3335C5.58543 12.3335 4.22888 11.7716 3.22868 10.7714C2.22849 9.7712 1.66659 8.41465 1.66659 7.00016C1.66659 5.58567 2.22849 4.22912 3.22868 3.22893C4.22888 2.22873 5.58543 1.66683 6.99992 1.66683C8.41441 1.66683 9.77096 2.22873 10.7712 3.22893C11.7713 4.22912 12.3333 5.58567 12.3333 7.00016C12.3333 8.41465 11.7713 9.7712 10.7712 10.7714C9.77096 11.7716 8.41441 12.3335 6.99992 12.3335Z"
        fill="url(#paint0_linear_997_19861)" />
</svg>
