<svg width="17" height="16" viewBox="0 0 17 16" fill="none" xmlns="http://www.w3.org/2000/svg">
    <defs>
        <linearGradient id="paint0_linear_2520_3059" x1="13.28" y1="2.66699" x2="8.16148"
            y2="15.0802" gradientUnits="userSpaceOnUse">
            <stop stop-color="#FF00A3" />
            <stop offset="1" stop-color="#BC00C0" />
        </linearGradient>
    </defs>
    <path
        d="M4.36324 7.99461C4.20995 7.83896 4.1333 7.64085 4.1333 7.40029C4.1333 7.15974 4.20995 6.96163 4.36324 6.80598L8.20943 2.90047C8.29305 2.81557 8.38363 2.75557 8.48118 2.72048C8.57872 2.68482 8.68324 2.66699 8.79472 2.66699C8.90621 2.66699 9.01073 2.68482 9.10827 2.72048C9.20582 2.75557 9.2964 2.81557 9.38002 2.90047L13.2262 6.80598C13.3795 6.96163 13.4595 7.15606 13.4662 7.38926C13.4734 7.62302 13.3934 7.82481 13.2262 7.99461C13.0729 8.15026 12.8778 8.22809 12.6409 8.22809C12.404 8.22809 12.2089 8.15026 12.0556 7.99461L8.79472 4.70465L5.53382 7.99461C5.38053 8.15026 5.18878 8.23177 4.95856 8.23913C4.7289 8.24592 4.53046 8.16441 4.36324 7.99461ZM4.36324 13.0887C4.20995 12.9331 4.1333 12.735 4.1333 12.4944C4.1333 12.2539 4.20995 12.0558 4.36324 11.9001L8.20943 7.99461C8.29305 7.90971 8.38363 7.84943 8.48118 7.81377C8.57872 7.77868 8.68324 7.76113 8.79472 7.76113C8.90621 7.76113 9.01073 7.77868 9.10827 7.81377C9.20582 7.84943 9.2964 7.90971 9.38002 7.99461L13.2262 11.9001C13.3795 12.0558 13.4595 12.2502 13.4662 12.4834C13.4734 12.7172 13.3934 12.9189 13.2262 13.0887C13.0729 13.2444 12.8778 13.3222 12.6409 13.3222C12.404 13.3222 12.2089 13.2444 12.0556 13.0887L8.79472 9.79878L5.53382 13.0887C5.38053 13.2444 5.18878 13.3259 4.95856 13.3333C4.7289 13.3401 4.53046 13.2586 4.36324 13.0887Z"
        fill="url(#paint0_linear_2520_3059)" />

</svg>
