<svg width="20" height="20" viewBox="0 0 20 20" fill="none" xmlns="http://www.w3.org/2000/svg">
    <path d="M10.3994 14.2002C10.6261 14.2002 10.8162 14.1234 10.9698 13.9698C11.1229 13.8167 11.1994 13.6269 11.1994 13.4002V10.1802C11.1994 9.95353 11.1229 9.76686 10.9698 9.62019C10.8162 9.47353 10.6261 9.4002 10.3994 9.4002C10.1727 9.4002 9.98288 9.47673 9.82981 9.6298C9.67621 9.7834 9.59941 9.97353 9.59941 10.2002V13.4202C9.59941 13.6469 9.67621 13.8335 9.82981 13.9802C9.98288 14.1269 10.1727 14.2002 10.3994 14.2002ZM10.3994 7.8002C10.6261 7.8002 10.8162 7.7234 10.9698 7.5698C11.1229 7.41673 11.1994 7.22686 11.1994 7.0002C11.1994 6.77353 11.1229 6.5834 10.9698 6.4298C10.8162 6.27673 10.6261 6.2002 10.3994 6.2002C10.1727 6.2002 9.98288 6.27673 9.82981 6.4298C9.67621 6.5834 9.59941 6.77353 9.59941 7.0002C9.59941 7.22686 9.67621 7.41673 9.82981 7.5698C9.98288 7.7234 10.1727 7.8002 10.3994 7.8002ZM10.3994 18.2002C9.29275 18.2002 8.25275 17.9901 7.27941 17.5698C6.30608 17.1501 5.45941 16.5802 4.73941 15.8602C4.01941 15.1402 3.44955 14.2935 3.02981 13.3202C2.60955 12.3469 2.39941 11.3069 2.39941 10.2002C2.39941 9.09353 2.60955 8.05353 3.02981 7.0802C3.44955 6.10686 4.01941 5.2602 4.73941 4.5402C5.45941 3.8202 6.30608 3.25006 7.27941 2.8298C8.25275 2.41006 9.29275 2.2002 10.3994 2.2002C11.5061 2.2002 12.5461 2.41006 13.5194 2.8298C14.4927 3.25006 15.3394 3.8202 16.0594 4.5402C16.7794 5.2602 17.3493 6.10686 17.769 7.0802C18.1893 8.05353 18.3994 9.09353 18.3994 10.2002C18.3994 11.3069 18.1893 12.3469 17.769 13.3202C17.3493 14.2935 16.7794 15.1402 16.0594 15.8602C15.3394 16.5802 14.4927 17.1501 13.5194 17.5698C12.5461 17.9901 11.5061 18.2002 10.3994 18.2002ZM10.3994 16.6002C12.1727 16.6002 13.6829 15.977 14.9298 14.7306C16.1762 13.4837 16.7994 11.9735 16.7994 10.2002C16.7994 8.42686 16.1762 6.91673 14.9298 5.6698C13.6829 4.4234 12.1727 3.8002 10.3994 3.8002C8.62608 3.8002 7.11621 4.4234 5.86981 5.6698C4.62288 6.91673 3.99941 8.42686 3.99941 10.2002C3.99941 11.9735 4.62288 13.4837 5.86981 14.7306C7.11621 15.977 8.62608 16.6002 10.3994 16.6002Z" fill="#12052F"/>
</svg>
