<svg width="14" height="16" viewBox="0 0 14 16" fill="none" xmlns="http://www.w3.org/2000/svg">
    <defs>
        <linearGradient id="paint0_linear_987_11512" x1="9.8" y1="3.16675" x2="3.84253" y2="16.9266" gradientUnits="userSpaceOnUse">
            <stop stop-color="#FF00A3"/>
            <stop offset="1" stop-color="#BC00C0"/>
        </linearGradient>
        <linearGradient id="paint1_linear_987_11512" x1="13.2667" y1="1.16675" x2="11.8177" y2="5.18264" gradientUnits="userSpaceOnUse">
            <stop stop-color="#FF00A3"/>
            <stop offset="1" stop-color="#BC00C0"/>
        </linearGradient>
    </defs>
    <path d="M5.00124 4.3666C7.23536 4.3666 8.82276 6.04639 8.82276 8.4461C6.36083 9.39999 3.64165 9.39999 1.17973 8.4461C1.17973 6.04639 2.76713 4.3666 5.00124 4.3666ZM5.00124 3.16675C2.23799 3.16675 0.00387436 5.26649 0.00387436 8.50609C0.0391499 8.98603 0.333113 9.40598 0.768178 9.58596L1.76765 9.88592V11.2658C1.76765 11.3453 1.73668 11.4216 1.68155 11.4779C1.62642 11.5341 1.55165 11.5657 1.47369 11.5657C1.39572 11.5657 1.32095 11.5341 1.26583 11.4779C1.2107 11.4216 1.17973 11.3453 1.17973 11.2658C1.18941 11.1846 1.18087 11.1023 1.15475 11.025C1.12863 10.9477 1.08562 10.8775 1.02896 10.8197C0.972312 10.7619 0.903508 10.718 0.827767 10.6913C0.752025 10.6647 0.671331 10.6559 0.5918 10.6658C0.512269 10.6559 0.431575 10.6647 0.355834 10.6913C0.280092 10.718 0.211288 10.7619 0.154635 10.8197C0.0979824 10.8775 0.0549661 10.9477 0.0288458 11.025C0.00272543 11.1023 -0.00581398 11.1846 0.00387436 11.2658C-0.00364015 11.4597 0.0272788 11.6532 0.0947801 11.8347C0.162281 12.0162 0.264977 12.1819 0.396718 12.3219C0.52846 12.462 0.686538 12.5734 0.861488 12.6497C1.03644 12.7259 1.22466 12.7653 1.4149 12.7656H1.47369C2.30266 12.8016 2.97878 12.1116 2.9435 11.2658V10.1859H3.53143V13.6055C3.53143 14.0074 2.9435 14.0074 2.9435 13.6055C2.95319 13.5243 2.94465 13.442 2.91853 13.3647C2.89241 13.2874 2.84939 13.2172 2.79274 13.1594C2.73609 13.1016 2.66729 13.0577 2.59154 13.031C2.5158 13.0044 2.43511 12.9957 2.35558 13.0055C2.27605 12.9957 2.19535 13.0044 2.11961 13.031C2.04387 13.0577 1.97507 13.1016 1.91841 13.1594C1.86176 13.2172 1.81874 13.2874 1.79262 13.3647C1.7665 13.442 1.75796 13.5243 1.76765 13.6055C1.70298 14.4454 2.35558 15.1653 3.17867 15.1653H3.23747C4.06644 15.2013 4.74256 14.5114 4.70728 13.6655V10.3659H5.29521V13.6655C5.28635 13.8648 5.3183 14.0639 5.38903 14.2499C5.45976 14.436 5.56771 14.605 5.70601 14.7461C5.8443 14.8872 6.00989 14.9974 6.19223 15.0695C6.37457 15.1417 6.56965 15.1743 6.76502 15.1653H6.82381C7.62927 15.1653 8.27011 14.4814 8.23483 13.6655C8.23483 12.8676 7.05898 12.8676 7.05898 13.6655C7.05898 14.0674 6.47106 14.0674 6.47106 13.6655V10.2459H7.05898V11.3257C7.05898 12.1416 7.72334 12.8016 8.5288 12.7656H8.58759C9.39305 12.7656 10.0339 12.0817 9.99861 11.2658C9.99861 10.4679 8.82276 10.4679 8.82276 11.2658C8.82276 11.6677 8.23483 11.6677 8.23483 11.2658V9.88592L9.23431 9.58596C9.65761 9.38198 9.9457 8.97403 9.99861 8.50609C9.99861 5.26649 7.76449 3.16675 5.00124 3.16675Z" fill="url(#paint0_linear_987_11512)"/>
    <path d="M11.5961 1.18957C11.5756 1.2044 11.5602 1.22533 11.5523 1.24939L11.3373 1.89477C11.29 2.03667 11.2104 2.1656 11.1046 2.27135C10.9989 2.37711 10.8699 2.45678 10.728 2.50406L10.0826 2.719C10.0586 2.72696 10.0377 2.74231 10.0228 2.76285C10.008 2.78339 10 2.80808 10 2.83341C10 2.85875 10.008 2.88344 10.0228 2.90398C10.0377 2.92452 10.0586 2.93986 10.0826 2.94783L10.728 3.16277C10.8699 3.21005 10.9989 3.28972 11.1046 3.39548C11.2104 3.50123 11.29 3.63016 11.3373 3.77206L11.5523 4.41744C11.5602 4.4415 11.5756 4.46243 11.5961 4.47726C11.6166 4.4921 11.6413 4.50008 11.6667 4.50008C11.692 4.50008 11.7167 4.4921 11.7372 4.47726C11.7578 4.46243 11.7731 4.4415 11.7811 4.41744L11.996 3.77206C12.0433 3.63016 12.123 3.50123 12.2287 3.39548C12.3345 3.28972 12.4634 3.21005 12.6053 3.16277L13.2507 2.94783C13.2747 2.93986 13.2957 2.92452 13.3105 2.90398C13.3253 2.88344 13.3333 2.85875 13.3333 2.83341C13.3333 2.80808 13.3253 2.78339 13.3105 2.76285C13.2957 2.74231 13.2747 2.72696 13.2507 2.719L12.6053 2.50406C12.3176 2.40797 12.0921 2.18247 11.996 1.89477L11.7811 1.24939C11.7731 1.22533 11.7578 1.2044 11.7372 1.18957C11.7167 1.17473 11.692 1.16675 11.6667 1.16675C11.6413 1.16675 11.6166 1.17473 11.5961 1.18957Z" stroke="url(#paint1_linear_987_11512)" stroke-width="0.8"/>
</svg>
