<svg width="16" height="17" viewBox="0 0 16 17" fill="none" xmlns="http://www.w3.org/2000/svg">
    <mask id="path-1-inside-1_2911_9513" fill="white">
        <path
            d="M8 4C7.10998 4 6.23995 4.26392 5.49993 4.75839C4.75991 5.25285 4.18314 5.95566 3.84254 6.77792C3.50195 7.60019 3.41283 8.50499 3.58647 9.37791C3.7601 10.2508 4.18868 11.0526 4.81802 11.682C5.44736 12.3113 6.24918 12.7399 7.12209 12.9135C7.99501 13.0872 8.89981 12.9981 9.72208 12.6575C10.5443 12.3169 11.2471 11.7401 11.7416 11.0001C12.2361 10.26 12.5 9.39002 12.5 8.5C12.4983 7.30703 12.0237 6.1634 11.1802 5.31985C10.3366 4.47629 9.19297 4.00165 8 4ZM8 11.5C7.40666 11.5 6.82664 11.3241 6.33329 10.9944C5.83994 10.6648 5.45542 10.1962 5.22836 9.64805C5.0013 9.09987 4.94189 8.49667 5.05764 7.91473C5.1734 7.33279 5.45912 6.79824 5.87868 6.37868C6.29824 5.95912 6.83279 5.6734 7.41473 5.55764C7.99667 5.44189 8.59987 5.5013 9.14805 5.72836C9.69623 5.95542 10.1648 6.33994 10.4944 6.83329C10.8241 7.32664 11 7.90666 11 8.5C11 9.29565 10.6839 10.0587 10.1213 10.6213C9.55871 11.1839 8.79565 11.5 8 11.5ZM7.25 2.25V1.25C7.25 1.05109 7.32902 0.860322 7.46967 0.71967C7.61032 0.579018 7.80109 0.5 8 0.5C8.19891 0.5 8.38968 0.579018 8.53033 0.71967C8.67098 0.860322 8.75 1.05109 8.75 1.25V2.25C8.75 2.44891 8.67098 2.63968 8.53033 2.78033C8.38968 2.92098 8.19891 3 8 3C7.80109 3 7.61032 2.92098 7.46967 2.78033C7.32902 2.63968 7.25 2.44891 7.25 2.25ZM11.8875 4.6125C11.8176 4.54282 11.7621 4.46003 11.7242 4.36886C11.6864 4.2777 11.6669 4.17996 11.6669 4.08125C11.6669 3.98254 11.6864 3.8848 11.7242 3.79364C11.7621 3.70247 11.8176 3.61968 11.8875 3.55L12.5938 2.84375C12.7346 2.70285 12.9257 2.6237 13.125 2.6237C13.3243 2.6237 13.5154 2.70285 13.6562 2.84375C13.7971 2.98465 13.8763 3.17574 13.8763 3.375C13.8763 3.57426 13.7971 3.76535 13.6562 3.90625L12.95 4.6125C12.8802 4.68209 12.7973 4.73723 12.7062 4.77476C12.615 4.8123 12.5173 4.83149 12.4187 4.83125C12.2199 4.83039 12.0293 4.75189 11.8875 4.6125V4.6125ZM16 8.5C16 8.69891 15.921 8.88968 15.7803 9.03033C15.6397 9.17098 15.4489 9.25 15.25 9.25H14.25C14.0511 9.25 13.8603 9.17098 13.7197 9.03033C13.579 8.88968 13.5 8.69891 13.5 8.5C13.5 8.30109 13.579 8.11032 13.7197 7.96967C13.8603 7.82902 14.0511 7.75 14.25 7.75H15.25C15.4489 7.75 15.6397 7.82902 15.7803 7.96967C15.921 8.11032 16 8.30109 16 8.5ZM13.6562 13.0938C13.7262 13.1634 13.7816 13.2462 13.8195 13.3374C13.8574 13.4285 13.8768 13.5263 13.8768 13.625C13.8768 13.7237 13.8574 13.8215 13.8195 13.9126C13.7816 14.0038 13.7262 14.0866 13.6562 14.1562C13.5873 14.227 13.5046 14.2829 13.4132 14.3205C13.3219 14.3581 13.2238 14.3767 13.125 14.375C13.0264 14.3752 12.9288 14.356 12.8376 14.3185C12.7464 14.281 12.6636 14.2258 12.5938 14.1562L11.8875 13.45C11.7466 13.3091 11.6674 13.118 11.6674 12.9187C11.6674 12.7195 11.7466 12.5284 11.8875 12.3875C12.0284 12.2466 12.2195 12.1674 12.4187 12.1674C12.618 12.1674 12.8091 12.2466 12.95 12.3875L13.6562 13.0938ZM8.75 14.75V15.75C8.75 15.9489 8.67098 16.1397 8.53033 16.2803C8.38968 16.421 8.19891 16.5 8 16.5C7.80109 16.5 7.61032 16.421 7.46967 16.2803C7.32902 16.1397 7.25 15.9489 7.25 15.75V14.75C7.25 14.5511 7.32902 14.3603 7.46967 14.2197C7.61032 14.079 7.80109 14 8 14C8.19891 14 8.38968 14.079 8.53033 14.2197C8.67098 14.3603 8.75 14.5511 8.75 14.75ZM4.1125 12.3875C4.18242 12.4572 4.2379 12.54 4.27575 12.6311C4.31361 12.7223 4.33309 12.82 4.33309 12.9187C4.33309 13.0175 4.31361 13.1152 4.27575 13.2064C4.2379 13.2975 4.18242 13.3803 4.1125 13.45L3.40625 14.1562C3.33642 14.2258 3.25356 14.281 3.1624 14.3185C3.07124 14.356 2.97358 14.3752 2.875 14.375C2.77622 14.3767 2.67814 14.3581 2.58678 14.3205C2.49543 14.2829 2.41272 14.227 2.34375 14.1562C2.27383 14.0866 2.21835 14.0038 2.1805 13.9126C2.14264 13.8215 2.12316 13.7237 2.12316 13.625C2.12316 13.5263 2.14264 13.4285 2.1805 13.3374C2.21835 13.2462 2.27383 13.1634 2.34375 13.0938L3.05 12.3875C3.11968 12.3176 3.20247 12.2621 3.29364 12.2242C3.3848 12.1864 3.48254 12.1669 3.58125 12.1669C3.67996 12.1669 3.7777 12.1864 3.86886 12.2242C3.96003 12.2621 4.04282 12.3176 4.1125 12.3875V12.3875ZM1.75 9.25H0.75C0.551088 9.25 0.360322 9.17098 0.21967 9.03033C0.0790176 8.88968 0 8.69891 0 8.5C0 8.30109 0.0790176 8.11032 0.21967 7.96967C0.360322 7.82902 0.551088 7.75 0.75 7.75H1.75C1.94891 7.75 2.13968 7.82902 2.28033 7.96967C2.42098 8.11032 2.5 8.30109 2.5 8.5C2.5 8.69891 2.42098 8.88968 2.28033 9.03033C2.13968 9.17098 1.94891 9.25 1.75 9.25ZM2.34375 3.90625C2.20285 3.76535 2.1237 3.57426 2.1237 3.375C2.1237 3.17574 2.20285 2.98465 2.34375 2.84375C2.48465 2.70285 2.67574 2.6237 2.875 2.6237C3.07426 2.6237 3.26535 2.70285 3.40625 2.84375L4.1125 3.55C4.18242 3.61968 4.2379 3.70247 4.27575 3.79364C4.31361 3.8848 4.33309 3.98254 4.33309 4.08125C4.33309 4.17996 4.31361 4.2777 4.27575 4.36886C4.2379 4.46003 4.18242 4.54282 4.1125 4.6125C3.97071 4.75189 3.78008 4.83039 3.58125 4.83125C3.48267 4.83149 3.38501 4.8123 3.29385 4.77476C3.20269 4.73723 3.11983 4.68209 3.05 4.6125L2.34375 3.90625Z" />
    </mask>
    <path
        d="M8 4C7.10998 4 6.23995 4.26392 5.49993 4.75839C4.75991 5.25285 4.18314 5.95566 3.84254 6.77792C3.50195 7.60019 3.41283 8.50499 3.58647 9.37791C3.7601 10.2508 4.18868 11.0526 4.81802 11.682C5.44736 12.3113 6.24918 12.7399 7.12209 12.9135C7.99501 13.0872 8.89981 12.9981 9.72208 12.6575C10.5443 12.3169 11.2471 11.7401 11.7416 11.0001C12.2361 10.26 12.5 9.39002 12.5 8.5C12.4983 7.30703 12.0237 6.1634 11.1802 5.31985C10.3366 4.47629 9.19297 4.00165 8 4ZM8 11.5C7.40666 11.5 6.82664 11.3241 6.33329 10.9944C5.83994 10.6648 5.45542 10.1962 5.22836 9.64805C5.0013 9.09987 4.94189 8.49667 5.05764 7.91473C5.1734 7.33279 5.45912 6.79824 5.87868 6.37868C6.29824 5.95912 6.83279 5.6734 7.41473 5.55764C7.99667 5.44189 8.59987 5.5013 9.14805 5.72836C9.69623 5.95542 10.1648 6.33994 10.4944 6.83329C10.8241 7.32664 11 7.90666 11 8.5C11 9.29565 10.6839 10.0587 10.1213 10.6213C9.55871 11.1839 8.79565 11.5 8 11.5ZM7.25 2.25V1.25C7.25 1.05109 7.32902 0.860322 7.46967 0.71967C7.61032 0.579018 7.80109 0.5 8 0.5C8.19891 0.5 8.38968 0.579018 8.53033 0.71967C8.67098 0.860322 8.75 1.05109 8.75 1.25V2.25C8.75 2.44891 8.67098 2.63968 8.53033 2.78033C8.38968 2.92098 8.19891 3 8 3C7.80109 3 7.61032 2.92098 7.46967 2.78033C7.32902 2.63968 7.25 2.44891 7.25 2.25ZM11.8875 4.6125C11.8176 4.54282 11.7621 4.46003 11.7242 4.36886C11.6864 4.2777 11.6669 4.17996 11.6669 4.08125C11.6669 3.98254 11.6864 3.8848 11.7242 3.79364C11.7621 3.70247 11.8176 3.61968 11.8875 3.55L12.5938 2.84375C12.7346 2.70285 12.9257 2.6237 13.125 2.6237C13.3243 2.6237 13.5154 2.70285 13.6562 2.84375C13.7971 2.98465 13.8763 3.17574 13.8763 3.375C13.8763 3.57426 13.7971 3.76535 13.6562 3.90625L12.95 4.6125C12.8802 4.68209 12.7973 4.73723 12.7062 4.77476C12.615 4.8123 12.5173 4.83149 12.4187 4.83125C12.2199 4.83039 12.0293 4.75189 11.8875 4.6125V4.6125ZM16 8.5C16 8.69891 15.921 8.88968 15.7803 9.03033C15.6397 9.17098 15.4489 9.25 15.25 9.25H14.25C14.0511 9.25 13.8603 9.17098 13.7197 9.03033C13.579 8.88968 13.5 8.69891 13.5 8.5C13.5 8.30109 13.579 8.11032 13.7197 7.96967C13.8603 7.82902 14.0511 7.75 14.25 7.75H15.25C15.4489 7.75 15.6397 7.82902 15.7803 7.96967C15.921 8.11032 16 8.30109 16 8.5ZM13.6562 13.0938C13.7262 13.1634 13.7816 13.2462 13.8195 13.3374C13.8574 13.4285 13.8768 13.5263 13.8768 13.625C13.8768 13.7237 13.8574 13.8215 13.8195 13.9126C13.7816 14.0038 13.7262 14.0866 13.6562 14.1562C13.5873 14.227 13.5046 14.2829 13.4132 14.3205C13.3219 14.3581 13.2238 14.3767 13.125 14.375C13.0264 14.3752 12.9288 14.356 12.8376 14.3185C12.7464 14.281 12.6636 14.2258 12.5938 14.1562L11.8875 13.45C11.7466 13.3091 11.6674 13.118 11.6674 12.9187C11.6674 12.7195 11.7466 12.5284 11.8875 12.3875C12.0284 12.2466 12.2195 12.1674 12.4187 12.1674C12.618 12.1674 12.8091 12.2466 12.95 12.3875L13.6562 13.0938ZM8.75 14.75V15.75C8.75 15.9489 8.67098 16.1397 8.53033 16.2803C8.38968 16.421 8.19891 16.5 8 16.5C7.80109 16.5 7.61032 16.421 7.46967 16.2803C7.32902 16.1397 7.25 15.9489 7.25 15.75V14.75C7.25 14.5511 7.32902 14.3603 7.46967 14.2197C7.61032 14.079 7.80109 14 8 14C8.19891 14 8.38968 14.079 8.53033 14.2197C8.67098 14.3603 8.75 14.5511 8.75 14.75ZM4.1125 12.3875C4.18242 12.4572 4.2379 12.54 4.27575 12.6311C4.31361 12.7223 4.33309 12.82 4.33309 12.9187C4.33309 13.0175 4.31361 13.1152 4.27575 13.2064C4.2379 13.2975 4.18242 13.3803 4.1125 13.45L3.40625 14.1562C3.33642 14.2258 3.25356 14.281 3.1624 14.3185C3.07124 14.356 2.97358 14.3752 2.875 14.375C2.77622 14.3767 2.67814 14.3581 2.58678 14.3205C2.49543 14.2829 2.41272 14.227 2.34375 14.1562C2.27383 14.0866 2.21835 14.0038 2.1805 13.9126C2.14264 13.8215 2.12316 13.7237 2.12316 13.625C2.12316 13.5263 2.14264 13.4285 2.1805 13.3374C2.21835 13.2462 2.27383 13.1634 2.34375 13.0938L3.05 12.3875C3.11968 12.3176 3.20247 12.2621 3.29364 12.2242C3.3848 12.1864 3.48254 12.1669 3.58125 12.1669C3.67996 12.1669 3.7777 12.1864 3.86886 12.2242C3.96003 12.2621 4.04282 12.3176 4.1125 12.3875V12.3875ZM1.75 9.25H0.75C0.551088 9.25 0.360322 9.17098 0.21967 9.03033C0.0790176 8.88968 0 8.69891 0 8.5C0 8.30109 0.0790176 8.11032 0.21967 7.96967C0.360322 7.82902 0.551088 7.75 0.75 7.75H1.75C1.94891 7.75 2.13968 7.82902 2.28033 7.96967C2.42098 8.11032 2.5 8.30109 2.5 8.5C2.5 8.69891 2.42098 8.88968 2.28033 9.03033C2.13968 9.17098 1.94891 9.25 1.75 9.25ZM2.34375 3.90625C2.20285 3.76535 2.1237 3.57426 2.1237 3.375C2.1237 3.17574 2.20285 2.98465 2.34375 2.84375C2.48465 2.70285 2.67574 2.6237 2.875 2.6237C3.07426 2.6237 3.26535 2.70285 3.40625 2.84375L4.1125 3.55C4.18242 3.61968 4.2379 3.70247 4.27575 3.79364C4.31361 3.8848 4.33309 3.98254 4.33309 4.08125C4.33309 4.17996 4.31361 4.2777 4.27575 4.36886C4.2379 4.46003 4.18242 4.54282 4.1125 4.6125C3.97071 4.75189 3.78008 4.83039 3.58125 4.83125C3.48267 4.83149 3.38501 4.8123 3.29385 4.77476C3.20269 4.73723 3.11983 4.68209 3.05 4.6125L2.34375 3.90625Z"
        fill="#12052F" stroke="#12052F" stroke-width="1.6" mask="url(#path-1-inside-1_2911_9513)" />
</svg>
