<svg width="16" height="14" viewBox="0 0 16 14" fill="none" xmlns="http://www.w3.org/2000/svg">
    <path d="M3.9375 2C3.9375 1.75136 4.03627 1.5129 4.21209 1.33709C4.3879 1.16127 4.62636 1.0625 4.875 1.0625H14.875C15.1236 1.0625 15.3621 1.16127 15.5379 1.33709C15.7137 1.5129 15.8125 1.75136 15.8125 2C15.8125 2.24864 15.7137 2.4871 15.5379 2.66291C15.3621 2.83873 15.1236 2.9375 14.875 2.9375H4.875C4.62636 2.9375 4.3879 2.83873 4.21209 2.66291C4.03627 2.4871 3.9375 2.24864 3.9375 2ZM14.875 6.0625H4.875C4.62636 6.0625 4.3879 6.16127 4.21209 6.33709C4.03627 6.5129 3.9375 6.75136 3.9375 7C3.9375 7.24864 4.03627 7.4871 4.21209 7.66291C4.3879 7.83873 4.62636 7.9375 4.875 7.9375H14.875C15.1236 7.9375 15.3621 7.83873 15.5379 7.66291C15.7137 7.4871 15.8125 7.24864 15.8125 7C15.8125 6.75136 15.7137 6.5129 15.5379 6.33709C15.3621 6.16127 15.1236 6.0625 14.875 6.0625ZM14.875 11.0625H4.875C4.62636 11.0625 4.3879 11.1613 4.21209 11.3371C4.03627 11.5129 3.9375 11.7514 3.9375 12C3.9375 12.2486 4.03627 12.4871 4.21209 12.6629C4.3879 12.8387 4.62636 12.9375 4.875 12.9375H14.875C15.1236 12.9375 15.3621 12.8387 15.5379 12.6629C15.7137 12.4871 15.8125 12.2486 15.8125 12C15.8125 11.7514 15.7137 11.5129 15.5379 11.3371C15.3621 11.1613 15.1236 11.0625 14.875 11.0625ZM1.4375 5.75C1.19027 5.75 0.948599 5.82331 0.743038 5.96066C0.537476 6.09802 0.377261 6.29324 0.282651 6.52165C0.188042 6.75005 0.163287 7.00139 0.211519 7.24386C0.25975 7.48634 0.378801 7.70907 0.553617 7.88388C0.728433 8.0587 0.951161 8.17775 1.19364 8.22598C1.43611 8.27421 1.68745 8.24946 1.91585 8.15485C2.14426 8.06024 2.33949 7.90003 2.47684 7.69446C2.61419 7.4889 2.6875 7.24723 2.6875 7C2.6875 6.66848 2.5558 6.35054 2.32138 6.11612C2.08696 5.8817 1.76902 5.75 1.4375 5.75ZM1.4375 0.75C1.19027 0.75 0.948599 0.823311 0.743038 0.960663C0.537476 1.09801 0.377261 1.29324 0.282651 1.52165C0.188042 1.75005 0.163287 2.00139 0.211519 2.24386C0.25975 2.48634 0.378801 2.70907 0.553617 2.88388C0.728433 3.0587 0.951161 3.17775 1.19364 3.22598C1.43611 3.27421 1.68745 3.24946 1.91585 3.15485C2.14426 3.06024 2.33949 2.90002 2.47684 2.69446C2.61419 2.4889 2.6875 2.24723 2.6875 2C2.6875 1.66848 2.5558 1.35054 2.32138 1.11612C2.08696 0.881696 1.76902 0.75 1.4375 0.75ZM1.4375 10.75C1.19027 10.75 0.948599 10.8233 0.743038 10.9607C0.537476 11.098 0.377261 11.2932 0.282651 11.5216C0.188042 11.7501 0.163287 12.0014 0.211519 12.2439C0.25975 12.4863 0.378801 12.7091 0.553617 12.8839C0.728433 13.0587 0.951161 13.1778 1.19364 13.226C1.43611 13.2742 1.68745 13.2495 1.91585 13.1549C2.14426 13.0602 2.33949 12.9 2.47684 12.6945C2.61419 12.4889 2.6875 12.2472 2.6875 12C2.6875 11.6685 2.5558 11.3505 2.32138 11.1161C2.08696 10.8817 1.76902 10.75 1.4375 10.75Z" fill="#12052F"/>
</svg>
