<svg width="12" height="15" viewBox="0 0 12 15" fill="none" xmlns="http://www.w3.org/2000/svg">
    <defs>
        <linearGradient id="paint0_linear_1399_110" x1="12.75" y1="1" x2="6.92784" y2="16.5162" gradientUnits="userSpaceOnUse">
            <stop stop-color="#FF00A3"/>
            <stop offset="1" stop-color="#BC00C0"/>
        </linearGradient>
        <linearGradient id="paint1_linear_1399_110" x1="12.75" y1="1" x2="6.92784" y2="16.5162" gradientUnits="userSpaceOnUse">
            <stop stop-color="#FF00A3"/>
            <stop offset="1" stop-color="#BC00C0"/>
        </linearGradient>
    </defs>
    <path fill-rule="evenodd" clip-rule="evenodd" d="M10 6.90002C10.5304 6.90002 11.0391 7.11074 11.4142 7.48581C11.7893 7.86088 12 8.36959 12 8.90002V12.9C12 13.4305 11.7893 13.9392 11.4142 14.3142C11.0391 14.6893 10.5304 14.9 10 14.9H2C1.46957 14.9 0.960859 14.6893 0.585787 14.3142C0.210714 13.9392 0 13.4305 0 12.9V8.90002C0 8.36959 0.210714 7.86088 0.585787 7.48581C0.960859 7.11074 1.46957 6.90002 2 6.90002V4.90002C2 3.83916 2.42143 2.82174 3.17157 2.0716C3.92172 1.32145 4.93913 0.900024 6 0.900024C7.06087 0.900024 8.07828 1.32145 8.82843 2.0716C9.57857 2.82174 10 3.83916 10 4.90002V6.90002ZM6 2.23336C6.70724 2.23336 7.38552 2.51431 7.88562 3.01441C8.38572 3.5145 8.66667 4.19278 8.66667 4.90002V6.90002H3.33333V4.90002C3.33333 4.19278 3.61428 3.5145 4.11438 3.01441C4.61448 2.51431 5.29276 2.23336 6 2.23336ZM10 8.23336H2C1.82319 8.23336 1.65362 8.3036 1.5286 8.42862C1.40357 8.55364 1.33333 8.72321 1.33333 8.90002V12.9C1.33333 13.0768 1.40357 13.2464 1.5286 13.3714C1.65362 13.4965 1.82319 13.5667 2 13.5667H10C10.1768 13.5667 10.3464 13.4965 10.4714 13.3714C10.5964 13.2464 10.6667 13.0768 10.6667 12.9V8.90002C10.6667 8.72321 10.5964 8.55364 10.4714 8.42862C10.3464 8.3036 10.1768 8.23336 10 8.23336Z" fill="url(#paint0_linear_1399_110)"/>
</svg>
