<svg width="18" height="18" viewBox="0 0 18 18" fill="none" xmlns="http://www.w3.org/2000/svg">
    <defs>
        <linearGradient id="paint0_linear_990_14063" x1="5.5575" y1="4.5" x2="5.3759" y2="6.00996"
            gradientUnits="userSpaceOnUse">
            <stop stop-color="#FF00A3" />
            <stop offset="1" stop-color="#BC00C0" />
        </linearGradient>
        <linearGradient id="paint1_linear_990_14063" x1="17.64" y1="2.25" x2="13.0053" y2="19.3775"
            gradientUnits="userSpaceOnUse">
            <stop stop-color="#FF00A3" />
            <stop offset="1" stop-color="#BC00C0" />
        </linearGradient>
        <linearGradient id="paint2_linear_990_14063" x1="17.64" y1="2.25" x2="13.0053" y2="19.3775"
            gradientUnits="userSpaceOnUse">
            <stop stop-color="#FF00A3" />
            <stop offset="1" stop-color="#BC00C0" />
        </linearGradient>
        <clipPath id="clip0_990_14063">
            <rect width="18" height="18" fill="white" />
        </clipPath>
    </defs>
    <g clip-path="url(#clip0_990_14063)">
        <path
            d="M5.0625 5.625C5.21168 5.625 5.35476 5.56574 5.46025 5.46025C5.56574 5.35476 5.625 5.21168 5.625 5.0625C5.625 4.91332 5.56574 4.77024 5.46025 4.66475C5.35476 4.55926 5.21168 4.5 5.0625 4.5C4.91332 4.5 4.77024 4.55926 4.66475 4.66475C4.55926 4.77024 4.5 4.91332 4.5 5.0625C4.5 5.21168 4.55926 5.35476 4.66475 5.46025C4.77024 5.56574 4.91332 5.625 5.0625 5.625ZM3.375 5.0625C3.375 5.21168 3.31574 5.35476 3.21025 5.46025C3.10476 5.56574 2.96168 5.625 2.8125 5.625C2.66332 5.625 2.52024 5.56574 2.41475 5.46025C2.30926 5.35476 2.25 5.21168 2.25 5.0625C2.25 4.91332 2.30926 4.77024 2.41475 4.66475C2.52024 4.55926 2.66332 4.5 2.8125 4.5C2.96168 4.5 3.10476 4.55926 3.21025 4.66475C3.31574 4.77024 3.375 4.91332 3.375 5.0625Z"
            fill="url(#paint0_linear_990_14063)" />
        <path
            d="M0 4.5C0 3.90326 0.237053 3.33097 0.65901 2.90901C1.08097 2.48705 1.65326 2.25 2.25 2.25H15.75C16.3467 2.25 16.919 2.48705 17.341 2.90901C17.7629 3.33097 18 3.90326 18 4.5V5.625C18 6.22174 17.7629 6.79403 17.341 7.21599C16.919 7.63795 16.3467 7.875 15.75 7.875H9.5625V11.25C10.0101 11.25 10.4393 11.4278 10.7557 11.7443C11.0722 12.0607 11.25 12.4899 11.25 12.9375H17.4375C17.5867 12.9375 17.7298 12.9968 17.8352 13.1023C17.9407 13.2077 18 13.3508 18 13.5C18 13.6492 17.9407 13.7923 17.8352 13.8977C17.7298 14.0032 17.5867 14.0625 17.4375 14.0625H11.25C11.25 14.5101 11.0722 14.9393 10.7557 15.2557C10.4393 15.5722 10.0101 15.75 9.5625 15.75H8.4375C7.98995 15.75 7.56072 15.5722 7.24426 15.2557C6.92779 14.9393 6.75 14.5101 6.75 14.0625H0.5625C0.413316 14.0625 0.270242 14.0032 0.164752 13.8977C0.0592632 13.7923 0 13.6492 0 13.5C0 13.3508 0.0592632 13.2077 0.164752 13.1023C0.270242 12.9968 0.413316 12.9375 0.5625 12.9375H6.75C6.75 12.4899 6.92779 12.0607 7.24426 11.7443C7.56072 11.4278 7.98995 11.25 8.4375 11.25V7.875H2.25C1.65326 7.875 1.08097 7.63795 0.65901 7.21599C0.237053 6.79403 0 6.22174 0 5.625V4.5ZM1.125 4.5V5.625C1.125 5.92337 1.24353 6.20952 1.4545 6.42049C1.66548 6.63147 1.95163 6.75 2.25 6.75H15.75C16.0484 6.75 16.3345 6.63147 16.5455 6.42049C16.7565 6.20952 16.875 5.92337 16.875 5.625V4.5C16.875 4.20163 16.7565 3.91548 16.5455 3.7045C16.3345 3.49353 16.0484 3.375 15.75 3.375H2.25C1.95163 3.375 1.66548 3.49353 1.4545 3.7045C1.24353 3.91548 1.125 4.20163 1.125 4.5ZM7.875 12.9375V14.0625C7.875 14.2117 7.93426 14.3548 8.03975 14.4602C8.14524 14.5657 8.28832 14.625 8.4375 14.625H9.5625C9.71168 14.625 9.85476 14.5657 9.96025 14.4602C10.0657 14.3548 10.125 14.2117 10.125 14.0625V12.9375C10.125 12.7883 10.0657 12.6452 9.96025 12.5398C9.85476 12.4343 9.71168 12.375 9.5625 12.375H8.4375C8.28832 12.375 8.14524 12.4343 8.03975 12.5398C7.93426 12.6452 7.875 12.7883 7.875 12.9375Z"
            fill="url(#paint1_linear_990_14063)" stroke="url(#paint2_linear_990_14063)"
            stroke-width="0.2" />
    </g>
</svg>
