<svg width="14" height="15" viewBox="0 0 14 15" fill="none" xmlns="http://www.w3.org/2000/svg">
    <defs>
        <linearGradient id="paint0_linear_1399_110" x1="12.75" y1="1" x2="6.92784" y2="16.5162" gradientUnits="userSpaceOnUse">
            <stop stop-color="#FF00A3"/>
            <stop offset="1" stop-color="#BC00C0"/>
        </linearGradient>
        <linearGradient id="paint1_linear_1399_110" x1="12.75" y1="1" x2="6.92784" y2="16.5162" gradientUnits="userSpaceOnUse">
            <stop stop-color="#FF00A3"/>
            <stop offset="1" stop-color="#BC00C0"/>
        </linearGradient>
    </defs>
    <path d="M12.972 9.71671C13.108 9.39271 12.7193 9.11671 12.3933 9.26071C11.7417 9.54674 11.0376 9.69387 10.326 9.69271C7.536 9.69271 5.27467 7.47671 5.27467 4.74271C5.27364 3.8196 5.5359 2.91535 6.03067 2.13604C6.22 1.83737 5.99267 1.42404 5.646 1.51204C2.97333 2.19404 1 4.57537 1 7.40804C1 10.7727 3.78333 13.5 7.21733 13.5C9.81733 13.5 12.044 11.9367 12.972 9.71671Z" stroke="url(#paint1_linear_1399_110)" stroke-width="1.2"/>
    <path d="M9.40734 1.56877C9.05401 1.33277 8.63267 1.75411 8.86801 2.10744L9.28801 2.73744C9.45838 2.99288 9.54931 3.29306 9.54931 3.60011C9.54931 3.90716 9.45838 4.20733 9.28801 4.46277L8.86801 5.09277C8.63267 5.44611 9.05467 5.86744 9.40801 5.63144L10.0373 5.21144C10.2928 5.04106 10.593 4.95014 10.9 4.95014C11.2071 4.95014 11.5072 5.04106 11.7627 5.21144L12.3927 5.63144C12.746 5.86744 13.1673 5.44611 12.9313 5.09277L12.5113 4.46277C12.341 4.20733 12.25 3.90716 12.25 3.60011C12.25 3.29306 12.341 2.99288 12.5113 2.73744L12.9313 2.10744C13.1673 1.75411 12.746 1.33277 12.392 1.56877L11.7627 1.98877C11.5072 2.15915 11.2071 2.25007 10.9 2.25007C10.593 2.25007 10.2928 2.15915 10.0373 1.98877L9.40734 1.56877V1.56877Z" stroke="url(#paint1_linear_1399_110)" stroke-width="1.2"/>
</svg>
