<svg width="17" height="16" viewBox="0 0 17 16" fill="none" xmlns="http://www.w3.org/2000/svg">
    <defs>
        <linearGradient id="paint0_linear_2520_3934" x1="13.9274" y1="3.5" x2="10.2686" y2="16.0493"
            gradientUnits="userSpaceOnUse">
            <stop stop-color="#FF00A3" />
            <stop offset="1" stop-color="#BC00C0" />
        </linearGradient>
        <linearGradient id="paint1_linear_2520_3934" x1="8.79447" y1="7.50595" x2="7.18135"
            y2="4.07177" gradientUnits="userSpaceOnUse">
            <stop stop-color="#FF00A3" />
            <stop offset="1" stop-color="#BC00C0" />
        </linearGradient>
    </defs>
    <path fill-rule="evenodd" clip-rule="evenodd"
        d="M1.94637 3.64647C2.04014 3.5527 2.16732 3.50002 2.29993 3.50002H3.40993C3.63202 3.49857 3.84817 3.5717 4.02377 3.70768C4.19936 3.84366 4.32425 4.03464 4.37843 4.25002L5.68993 9.50002H11.9249L13.1279 5.00002H14.1749L12.8789 9.76502C12.7604 10.2 12.3769 10.5 11.9254 10.5H11.2999H6.79993H5.69043C5.23193 10.5 4.83343 10.195 4.72193 9.75002L3.40993 4.50002H2.29993C2.16732 4.50002 2.04014 4.44734 1.94637 4.35357C1.85261 4.25981 1.79993 4.13263 1.79993 4.00002C1.79993 3.86741 1.85261 3.74024 1.94637 3.64647ZM6.79993 10.5C7.62243 10.5 8.29993 11.1775 8.29993 12C8.29993 12.8225 7.62243 13.5 6.79993 13.5C5.97743 13.5 5.29993 12.8225 5.29993 12C5.29993 11.1775 5.97743 10.5 6.79993 10.5ZM11.2999 10.5C12.1224 10.5 12.7999 11.1775 12.7999 12C12.7999 12.8225 12.1224 13.5 11.2999 13.5C10.4774 13.5 9.79993 12.8225 9.79993 12C9.79993 11.1775 10.4774 10.5 11.2999 10.5ZM7.29993 12C7.29993 11.718 7.08193 11.5 6.79993 11.5C6.51793 11.5 6.29993 11.718 6.29993 12C6.29993 12.282 6.51793 12.5 6.79993 12.5C7.08193 12.5 7.29993 12.282 7.29993 12ZM11.7999 12C11.7999 11.718 11.5819 11.5 11.2999 11.5C11.0179 11.5 10.7999 11.718 10.7999 12C10.7999 12.282 11.0179 12.5 11.2999 12.5C11.5819 12.5 11.7999 12.282 11.7999 12Z"
        fill="url(#paint0_linear_2520_3934)" />
    <path
        d="M8.75257 3.35841V7.54784M8.75257 3.35841L10.4982 5.10401M8.75257 3.35841L7.00698 5.10401"
        stroke="url(#paint1_linear_2520_3934)" stroke-width="0.8" stroke-linecap="round"
        stroke-linejoin="round" />

</svg>
