<svg width="18" height="16" viewBox="0 0 18 16" fill="none" xmlns="http://www.w3.org/2000/svg">
    <path d="M1.5 3.6875H9.75M9 11.9375H17.25M1.5 11.9375H3.75M15 3.6875H17.25M15 3.875C15 5.32475 13.8247 6.5 12.375 6.5C10.9253 6.5 9.75 5.32475 9.75 3.875C9.75 2.42525 10.9253 1.25 12.375 1.25C13.8247 1.25 15 2.42525 15 3.875ZM9 12.125C9 13.5747 7.82475 14.75 6.375 14.75C4.92525 14.75 3.75 13.5747 3.75 12.125C3.75 10.6753 4.92525 9.5 6.375 9.5C7.82475 9.5 9 10.6753 9 12.125Z" stroke="#12052F" stroke-width="1.2" stroke-linecap="round"/>
</svg>
