<svg width="14" height="16" viewBox="0 0 14 16" fill="none" xmlns="http://www.w3.org/2000/svg">
    <path
        d="M2.83337 15.5C2.37504 15.5 1.98282 15.3369 1.65671 15.0108C1.33004 14.6842 1.16671 14.2917 1.16671 13.8333V3H0.333374V1.33333H4.50004V0.5H9.50004V1.33333H13.6667V3H12.8334V13.8333C12.8334 14.2917 12.6703 14.6842 12.3442 15.0108C12.0175 15.3369 11.625 15.5 11.1667 15.5H2.83337ZM11.1667 3H2.83337V13.8333H11.1667V3ZM4.50004 12.1667H6.16671V4.66667H4.50004V12.1667ZM7.83337 12.1667H9.50004V4.66667H7.83337V12.1667ZM2.83337 3V13.8333V3Z"
        fill="#12052F" />
</svg>
