<svg width="14" height="14" viewBox="0 0 14 14" fill="none" xmlns="http://www.w3.org/2000/svg">
    <defs>
        <linearGradient id="paint0_linear_2911_13912" x1="12.944" y1="0.599975" x2="7.38011"
            y2="16.021" gradientUnits="userSpaceOnUse">
            <stop stop-color="#FF00A3" />
            <stop offset="1" stop-color="#BC00C0" />
        </linearGradient>
    </defs>
    <path
        d="M9.46669 6.99998C9.32524 6.99998 9.18959 7.05617 9.08957 7.15619C8.98955 7.2562 8.93336 7.39186 8.93336 7.53331C8.93336 7.67476 8.98955 7.81041 9.08957 7.91043C9.18959 8.01045 9.32524 8.06664 9.46669 8.06664H10.5334C10.6748 8.06664 10.8105 8.01045 10.9105 7.91043C11.0105 7.81041 11.0667 7.67476 11.0667 7.53331C11.0667 7.39186 11.0105 7.2562 10.9105 7.15619C10.8105 7.05617 10.6748 6.99998 10.5334 6.99998H9.46669ZM2.00002 0.599976C1.57568 0.599976 1.16871 0.768547 0.868654 1.0686C0.568595 1.36866 0.400024 1.77563 0.400024 2.19998V10.7333C0.400024 11.4406 0.680976 12.1188 1.18107 12.6189C1.68117 13.119 2.35945 13.4 3.06669 13.4H11.0667C11.6325 13.4 12.1751 13.1752 12.5752 12.7751C12.9753 12.3751 13.2 11.8324 13.2 11.2666V4.86664C13.2 4.49217 13.1014 4.1243 12.9142 3.80001C12.727 3.47571 12.4577 3.20641 12.1334 3.01918V2.73331C12.1334 2.16751 11.9086 1.62489 11.5085 1.22481C11.1084 0.824737 10.5658 0.599976 10 0.599976H2.00002ZM2.00002 1.66664H10C10.2829 1.66664 10.5542 1.77902 10.7543 1.97906C10.9543 2.1791 11.0667 2.45041 11.0667 2.73331H2.00002C1.85858 2.73331 1.72292 2.67712 1.6229 2.5771C1.52288 2.47708 1.46669 2.34142 1.46669 2.19998C1.46669 2.05853 1.52288 1.92287 1.6229 1.82285C1.72292 1.72283 1.85858 1.66664 2.00002 1.66664V1.66664ZM2.00002 3.79998H11.0667C11.3496 3.79998 11.6209 3.91236 11.8209 4.1124C12.021 4.31243 12.1334 4.58374 12.1334 4.86664V11.2666C12.1334 11.5495 12.021 11.8209 11.8209 12.0209C11.6209 12.2209 11.3496 12.3333 11.0667 12.3333H3.06669C2.64234 12.3333 2.23538 12.1647 1.93532 11.8647C1.63526 11.5646 1.46669 11.1577 1.46669 10.7333V3.70931C1.63309 3.76798 1.81336 3.79998 2.00002 3.79998Z"
        fill="url(#paint0_linear_2911_13912)" />
</svg>
