<svg width="17" height="16" viewBox="0 0 17 16" fill="none" xmlns="http://www.w3.org/2000/svg">
    <defs>
        <linearGradient id="paint0_linear_1402_14881" x1="14.944" y1="1.59998" x2="9.38011" y2="17.021" gradientUnits="userSpaceOnUse">
            <stop stop-color="#FF00A3"/>
            <stop offset="1" stop-color="#BC00C0"/>
        </linearGradient>
    </defs>
    <path d="M11.4667 7.99998C11.3252 7.99998 11.1896 8.05617 11.0896 8.15619C10.9895 8.2562 10.9334 8.39186 10.9334 8.53331C10.9334 8.67476 10.9895 8.81041 11.0896 8.91043C11.1896 9.01045 11.3252 9.06664 11.4667 9.06664H12.5334C12.6748 9.06664 12.8105 9.01045 12.9105 8.91043C13.0105 8.81041 13.0667 8.67476 13.0667 8.53331C13.0667 8.39186 13.0105 8.2562 12.9105 8.15619C12.8105 8.05617 12.6748 7.99998 12.5334 7.99998H11.4667ZM4.00002 1.59998C3.57568 1.59998 3.16871 1.76855 2.86865 2.0686C2.5686 2.36866 2.40002 2.77563 2.40002 3.19998V11.7333C2.40002 12.4406 2.68098 13.1188 3.18107 13.6189C3.68117 14.119 4.35945 14.4 5.06669 14.4H13.0667C13.6325 14.4 14.1751 14.1752 14.5752 13.7751C14.9753 13.3751 15.2 12.8324 15.2 12.2666V5.86664C15.2 5.49217 15.1014 5.1243 14.9142 4.80001C14.727 4.47571 14.4577 4.20641 14.1334 4.01918V3.73331C14.1334 3.16751 13.9086 2.62489 13.5085 2.22481C13.1084 1.82474 12.5658 1.59998 12 1.59998H4.00002ZM4.00002 2.66664H12C12.2829 2.66664 12.5542 2.77902 12.7543 2.97906C12.9543 3.1791 13.0667 3.45041 13.0667 3.73331H4.00002C3.85858 3.73331 3.72292 3.67712 3.6229 3.5771C3.52288 3.47708 3.46669 3.34142 3.46669 3.19998C3.46669 3.05853 3.52288 2.92287 3.6229 2.82285C3.72292 2.72283 3.85858 2.66664 4.00002 2.66664V2.66664ZM4.00002 4.79998H13.0667C13.3496 4.79998 13.6209 4.91236 13.8209 5.1124C14.021 5.31243 14.1334 5.58374 14.1334 5.86664V12.2666C14.1334 12.5495 14.021 12.8209 13.8209 13.0209C13.6209 13.2209 13.3496 13.3333 13.0667 13.3333H5.06669C4.64234 13.3333 4.23538 13.1647 3.93532 12.8647C3.63526 12.5646 3.46669 12.1577 3.46669 11.7333V4.70931C3.63309 4.76798 3.81336 4.79998 4.00002 4.79998Z" fill="url(#paint0_linear_1402_14881)"/>
</svg>
