<svg width="26" height="26" viewBox="0 0 26 26" fill="none" xmlns="http://www.w3.org/2000/svg">
    <defs>
        <filter id="filter0_b_4656_29278" x="-2.68867" y="-2.56953" width="31.1022" height="31.102" filterUnits="userSpaceOnUse" color-interpolation-filters="sRGB">
            <feFlood flood-opacity="0" result="BackgroundImageFix"/>
            <feGaussianBlur in="BackgroundImageFix" stdDeviation="1.48106"/>
            <feComposite in2="SourceAlpha" operator="in" result="effect1_backgroundBlur_4656_29278"/>
            <feBlend mode="normal" in="SourceGraphic" in2="effect1_backgroundBlur_4656_29278" result="shape"/>
        </filter>
        <filter id="filter1_b_4656_29278" x="1.01396" y="1.13359" width="23.6969" height="23.6977" filterUnits="userSpaceOnUse" color-interpolation-filters="sRGB">
            <feFlood flood-opacity="0" result="BackgroundImageFix"/>
            <feGaussianBlur in="BackgroundImageFix" stdDeviation="1.48106"/>
            <feComposite in2="SourceAlpha" operator="in" result="effect1_backgroundBlur_4656_29278"/>
            <feBlend mode="normal" in="SourceGraphic" in2="effect1_backgroundBlur_4656_29278" result="shape"/>
        </filter>
    </defs>
    <g opacity="0.4" filter="url(#filter0_b_4656_29278)">
        <circle cx="12.8624" cy="12.9816" r="12.589" fill="#E500AF"/>
    </g>
    <g filter="url(#filter1_b_4656_29278)">
        <circle cx="12.8624" cy="12.982" r="8.88633" fill="#E500AF"/>
    </g>
    <path d="M20.7459 13.2405C20.8905 13.3851 21.125 13.3851 21.2696 13.2405L23.6259 10.8841C23.7705 10.7395 23.7705 10.5051 23.6259 10.3605C23.4813 10.2159 23.2469 10.2159 23.1023 10.3605L21.0077 12.455L18.9132 10.3605C18.7686 10.2159 18.5342 10.2159 18.3896 10.3605C18.245 10.5051 18.245 10.7395 18.3896 10.8841L20.7459 13.2405ZM20.1515 9.41229L19.8216 9.58039V9.58039L20.1515 9.41229ZM14.381 5.21976L14.4389 4.85406V4.85406L14.381 5.21976ZM10.6102 5.15539C10.4157 5.21858 10.3093 5.42746 10.3725 5.62195C10.4357 5.81643 10.6445 5.92286 10.839 5.85967L10.6102 5.15539ZM21.378 12.9787C21.378 11.6805 21.0708 10.4008 20.4814 9.24419L19.8216 9.58039C20.3579 10.6329 20.6375 11.7974 20.6375 12.9787H21.378ZM20.4814 9.24419C19.8921 8.08755 19.0374 7.08681 17.9872 6.32379L17.5519 6.92289C18.5076 7.61722 19.2853 8.52787 19.8216 9.58039L20.4814 9.24419ZM17.9872 6.32379C16.937 5.56077 15.7211 5.05713 14.4389 4.85406L14.3231 5.58547C15.4898 5.77026 16.5962 6.22856 17.5519 6.92289L17.9872 6.32379ZM14.4389 4.85406C13.1568 4.65099 11.8448 4.75424 10.6102 5.15539L10.839 5.85967C11.9625 5.49464 13.1564 5.40068 14.3231 5.58547L14.4389 4.85406Z" fill="#FDD4F3"/>
    <path d="M9.29706 6.26966C9.34998 6.07214 9.23276 5.86911 9.03524 5.81618L5.81641 4.9537C5.61889 4.90077 5.41586 5.01799 5.36293 5.21551C5.31001 5.41304 5.42723 5.61607 5.62475 5.66899L8.48593 6.43564L7.71928 9.29682C7.66635 9.49435 7.78357 9.69738 7.98109 9.7503C8.17862 9.80323 8.38165 9.68601 8.43457 9.48849L9.29706 6.26966ZM6.27894 8.69852L6.58947 8.90018L6.27894 8.69852ZM5.05463 12.1559L5.42287 12.1946L5.05463 12.1559ZM5.53336 15.7922L5.18769 15.9249L5.53336 15.7922ZM7.36303 19.09C7.51499 19.2268 7.74911 19.2146 7.88594 19.0626C8.02277 18.9106 8.0105 18.6765 7.85854 18.5397L7.36303 19.09ZM8.75428 5.85317C7.63006 6.50223 6.67542 7.40815 5.96841 8.49686L6.58947 8.90018C7.23283 7.90948 8.10153 7.08512 9.12454 6.49449L8.75428 5.85317ZM5.96841 8.49686C5.2614 9.58556 4.82209 10.8261 4.6864 12.1172L5.42287 12.1946C5.54634 11.0198 5.94611 9.89087 6.58947 8.90018L5.96841 8.49686ZM4.6864 12.1172C4.5507 13.4082 4.72249 14.713 5.18769 15.9249L5.87904 15.6595C5.45571 14.5567 5.29939 13.3694 5.42287 12.1946L4.6864 12.1172ZM5.18769 15.9249C5.6529 17.1368 6.39833 18.2214 7.36303 19.09L7.85854 18.5397C6.98068 17.7493 6.30236 16.7623 5.87904 15.6595L5.18769 15.9249Z" fill="#FDD4F3"/>
    <path d="M8.84399 19.4314C8.64646 19.4843 8.52925 19.6873 8.58217 19.8849L9.44465 23.1037C9.49758 23.3012 9.70061 23.4184 9.89813 23.3655C10.0957 23.3126 10.2129 23.1095 10.1599 22.912L9.3933 20.0508L12.2545 19.2842C12.452 19.2313 12.5692 19.0282 12.5163 18.8307C12.4634 18.6332 12.2603 18.516 12.0628 18.5689L8.84399 19.4314ZM12.4565 20.8307L12.4371 21.2005L12.4565 20.8307ZM16.0628 20.1623L15.9122 19.8241L16.0628 20.1623ZM18.9726 17.9296L18.6848 17.6966V17.6966L18.9726 17.9296ZM20.9138 14.6961C20.9563 14.4961 20.8286 14.2995 20.6286 14.257C20.4285 14.2145 20.2319 14.3421 20.1894 14.5422L20.9138 14.6961ZM8.75469 20.1097C9.8789 20.7588 11.1408 21.1325 12.4371 21.2005L12.4759 20.461C11.2962 20.3991 10.148 20.059 9.12495 19.4684L8.75469 20.1097ZM12.4371 21.2005C13.7335 21.2684 15.0275 21.0286 16.2134 20.5006L15.9122 19.8241C14.8331 20.3045 13.6555 20.5228 12.4759 20.461L12.4371 21.2005ZM16.2134 20.5006C17.3993 19.9726 18.4434 19.1714 19.2603 18.1626L18.6848 17.6966C17.9414 18.6146 16.9913 19.3436 15.9122 19.8241L16.2134 20.5006ZM19.2603 18.1626C20.0773 17.1537 20.6439 15.9659 20.9138 14.6961L20.1894 14.5422C19.9438 15.6976 19.4282 16.7785 18.6848 17.6966L19.2603 18.1626Z" fill="#FDD4F3"/>
    <path d="M10.2489 13.2436L12.2091 15.0731L15.4762 11.4141" stroke="white" stroke-width="1.48106" stroke-linecap="round" stroke-linejoin="round"/>
</svg>
